<svg xmlns="http://www.w3.org/2000/svg" viewBox="0 0 225 225" width="32" height="32" role="img" aria-label="GereOM favicon">
  <title>GereOM</title>

<path d="M0 0 C74.25 0 148.5 0 225 0 C225 74.25 225 148.5 225 225 C150.75 225 76.5 225 0 225 C0 150.75 0 76.5 0 0 Z " fill="#08354D" transform="translate(0,0)"/>
<path d="M0 0 C1.138 -0.01 2.276 -0.02 3.449 -0.031 C13.039 0.069 23.684 0.896 31.188 7.438 C34.072 11.371 34.556 14.134 34.528 18.972 C34.528 20.273 34.528 21.574 34.527 22.914 C34.512 24.324 34.496 25.734 34.48 27.145 C34.475 28.595 34.471 30.045 34.468 31.495 C34.456 35.301 34.427 39.107 34.393 42.912 C34.363 46.8 34.349 50.688 34.334 54.576 C34.302 62.197 34.251 69.817 34.188 77.438 C29.629 79.078 26.049 79.632 21.188 79.438 C21.188 80.097 21.188 80.757 21.188 81.438 C22.178 81.767 23.167 82.097 24.188 82.438 C23.857 83.427 23.528 84.418 23.188 85.438 C24.178 85.438 25.167 85.438 26.188 85.438 C26.188 86.428 26.188 87.418 26.188 88.438 C25.528 88.438 24.868 88.438 24.188 88.438 C24.188 89.097 24.188 89.757 24.188 90.438 C25.178 90.767 26.167 91.097 27.188 91.438 C26.197 91.767 25.208 92.097 24.188 92.438 C23.528 91.778 22.868 91.118 22.188 90.438 C21.857 91.097 21.528 91.757 21.188 92.438 C20.197 92.438 19.208 92.438 18.188 92.438 C18.188 90.127 18.188 87.817 18.188 85.438 C17.857 85.767 17.528 86.097 17.188 86.438 C16.197 86.438 15.208 86.438 14.188 86.438 C14.188 88.418 14.188 90.397 14.188 92.438 C13.197 92.438 12.208 92.438 11.188 92.438 C11.188 90.457 11.188 88.478 11.188 86.438 C10.363 86.767 10.363 86.767 6.188 88.438 C6.847 89.757 7.507 91.077 8.188 92.438 C5.218 91.778 2.248 91.118 -0.812 90.438 C-1.143 91.097 -1.472 91.757 -1.812 92.438 C-2.143 91.778 -2.472 91.118 -2.812 90.438 C-3.143 91.097 -3.472 91.757 -3.812 92.438 C-4.472 92.438 -5.132 92.438 -5.812 92.438 C-6.143 89.798 -6.472 87.157 -6.812 84.438 C-7.142 84.602 -7.142 84.602 -8.812 85.438 C-8.812 89.438 -8.812 89.438 -7.812 92.438 C-9.132 91.778 -10.452 91.118 -11.812 90.438 C-11.812 89.447 -11.812 88.457 -11.812 87.438 C-12.472 87.108 -13.132 86.778 -13.812 86.438 C-13.812 88.418 -13.812 90.397 -13.812 92.438 C-14.803 92.438 -15.792 92.438 -16.812 92.438 C-17.143 91.447 -17.472 90.457 -17.812 89.438 C-19.463 89.438 -21.113 89.438 -22.812 89.438 C-22.812 90.097 -22.812 90.757 -22.812 91.438 C-21.162 91.438 -19.512 91.438 -17.812 91.438 C-17.812 91.767 -17.812 92.097 -17.812 92.438 C-20.123 92.438 -22.433 92.438 -24.812 92.438 C-25.472 90.457 -26.132 88.478 -26.812 86.438 C-29.452 86.438 -32.093 86.438 -34.812 86.438 C-34.812 88.088 -34.812 89.738 -34.812 91.438 C-36.132 91.108 -37.452 90.778 -38.812 90.438 C-38.812 89.447 -38.812 88.457 -38.812 87.438 C-38.132 86.798 -37.451 86.159 -36.75 85.5 C-36.111 84.819 -35.471 84.139 -34.812 83.438 C-35.062 81.187 -35.062 81.187 -35.812 79.438 C-43.437 78.438 -43.437 78.438 -46.812 78.438 C-47.142 77.448 -47.472 76.457 -47.812 75.438 C-47.153 75.108 -46.493 74.778 -45.812 74.438 C-46.803 74.438 -47.793 74.438 -48.812 74.438 C-48.812 75.757 -48.812 77.078 -48.812 78.438 C-49.803 78.438 -50.793 78.438 -51.812 78.438 C-51.812 79.097 -51.812 79.757 -51.812 80.438 C-53.132 80.767 -54.452 81.097 -55.812 81.438 C-56.142 80.778 -56.472 80.118 -56.812 79.438 C-59.596 80.829 -59.791 82.593 -60.812 85.438 C-62.132 85.438 -63.453 85.438 -64.812 85.438 C-65.142 86.097 -65.472 86.757 -65.812 87.438 C-65.812 86.778 -65.812 86.118 -65.812 85.438 C-69.627 86.709 -70.606 88.41 -73.062 91.562 C-80.657 101.064 -80.657 101.064 -84.812 104.438 C-85.472 104.438 -86.132 104.438 -86.812 104.438 C-86.812 105.097 -86.812 105.757 -86.812 106.438 C-99.187 117.408 -112.245 123.544 -128.762 123.801 C-132.181 123.394 -134.087 122.515 -136.812 120.438 C-136.812 119.778 -136.812 119.118 -136.812 118.438 C-137.472 118.438 -138.132 118.438 -138.812 118.438 C-138.812 116.457 -138.812 114.478 -138.812 112.438 C-138.153 112.438 -137.493 112.438 -136.812 112.438 C-136.72 111.854 -136.627 111.27 -136.531 110.668 C-133.849 102.345 -122.625 97.942 -115.402 94.232 C-113.544 93.291 -111.679 92.363 -109.812 91.438 C-112.558 91.438 -114.481 91.814 -117.125 92.438 C-131.693 95.134 -149.996 95.522 -163.312 88.25 C-167.303 85.418 -170.078 82.031 -171.812 77.438 C-172.178 74.381 -172.131 71.495 -171.812 68.438 C-171.153 68.438 -170.493 68.438 -169.812 68.438 C-169.689 67.674 -169.565 66.911 -169.438 66.125 C-168.812 63.438 -168.812 63.438 -166.812 60.438 C-166.153 60.438 -165.493 60.438 -164.812 60.438 C-164.776 59.886 -164.74 59.334 -164.703 58.766 C-163.342 55.209 -160.514 53.415 -157.562 51.188 C-157.244 50.945 -157.244 50.945 -155.635 49.715 C-122.486 24.76 -79.963 12.563 -39.812 4.438 C-39.301 4.332 -39.301 4.332 -36.71 3.8 C-24.469 1.357 -12.491 0.078 0 0 Z " fill="#08354D" transform="translate(190.8125,43.5625)"/>
<path d="M0 0 C1.138 -0.01 2.276 -0.02 3.449 -0.031 C13.039 0.069 23.684 0.896 31.188 7.438 C34.72 11.677 34.456 15.152 34.188 20.438 C33.528 20.438 32.868 20.438 32.188 20.438 C31.919 21.221 31.651 22.005 31.375 22.812 C30.188 25.437 30.188 25.437 27.188 27.438 C24.5 27.562 24.5 27.562 22.188 27.438 C22.518 26.118 22.847 24.797 23.188 23.438 C23.847 23.438 24.507 23.438 25.188 23.438 C26.431 19.706 26.831 16.308 26.188 12.438 C22.676 7.34 17.993 5.803 12.188 4.438 C8.364 4.052 4.59 4.056 0.75 4.125 C0.22 4.131 0.22 4.131 -2.462 4.164 C-29.356 4.655 -55.27 11.339 -80.812 19.438 C-81.289 19.588 -81.289 19.588 -83.701 20.351 C-107.164 27.877 -132.939 37.369 -151.365 54.307 C-152.812 55.438 -152.812 55.438 -154.812 55.438 C-155.06 55.994 -155.308 56.551 -155.562 57.125 C-156.812 59.438 -156.812 59.438 -158.875 61.938 C-162.629 66.781 -162.323 72.519 -161.812 78.438 C-159.976 83.406 -156.41 85.289 -151.812 87.438 C-151.104 87.798 -150.395 88.159 -149.664 88.531 C-130.853 94.51 -108.508 86.831 -91.812 78.438 C-90.748 77.906 -89.683 77.375 -88.586 76.828 C-76.219 70.348 -63.949 61.858 -55.188 50.906 C-54.734 50.422 -54.28 49.937 -53.812 49.438 C-53.153 49.438 -52.493 49.438 -51.812 49.438 C-51.709 48.654 -51.606 47.87 -51.5 47.062 C-50.812 44.438 -50.812 44.438 -47.812 42.438 C-44.125 42.812 -44.125 42.812 -40.812 43.438 C-41.143 45.417 -41.472 47.398 -41.812 49.438 C-42.472 49.438 -43.132 49.438 -43.812 49.438 C-44.079 50.158 -44.346 50.879 -44.621 51.621 C-48.24 60.176 -54.329 67.611 -59.992 74.906 C-61.812 77.438 -61.812 77.438 -62.812 80.438 C-62.153 80.438 -61.493 80.438 -60.812 80.438 C-60.812 81.097 -60.812 81.757 -60.812 82.438 C-61.711 82.672 -62.609 82.907 -63.535 83.148 C-67.23 84.602 -68.711 86.053 -71.25 89.062 C-72.016 89.952 -72.781 90.841 -73.57 91.758 C-74.31 92.642 -75.05 93.526 -75.812 94.438 C-77.078 95.942 -78.349 97.442 -79.625 98.938 C-80.147 99.567 -80.669 100.196 -81.207 100.844 C-82.946 102.57 -84.577 103.468 -86.812 104.438 C-86.812 105.097 -86.812 105.757 -86.812 106.438 C-99.187 117.408 -112.245 123.544 -128.762 123.801 C-132.181 123.394 -134.087 122.515 -136.812 120.438 C-136.812 119.778 -136.812 119.118 -136.812 118.438 C-137.472 118.438 -138.132 118.438 -138.812 118.438 C-138.812 116.457 -138.812 114.478 -138.812 112.438 C-138.153 112.438 -137.493 112.438 -136.812 112.438 C-136.72 111.854 -136.627 111.27 -136.531 110.668 C-133.849 102.345 -122.625 97.942 -115.402 94.232 C-113.544 93.291 -111.679 92.363 -109.812 91.438 C-112.558 91.438 -114.481 91.814 -117.125 92.438 C-131.693 95.134 -149.996 95.522 -163.312 88.25 C-167.303 85.418 -170.078 82.031 -171.812 77.438 C-172.178 74.381 -172.131 71.495 -171.812 68.438 C-171.153 68.438 -170.493 68.438 -169.812 68.438 C-169.689 67.674 -169.565 66.911 -169.438 66.125 C-168.812 63.438 -168.812 63.438 -166.812 60.438 C-166.153 60.438 -165.493 60.438 -164.812 60.438 C-164.776 59.886 -164.74 59.334 -164.703 58.766 C-163.342 55.209 -160.514 53.415 -157.562 51.188 C-157.244 50.945 -157.244 50.945 -155.635 49.715 C-122.486 24.76 -79.963 12.563 -39.812 4.438 C-39.301 4.332 -39.301 4.332 -36.71 3.8 C-24.469 1.357 -12.491 0.078 0 0 Z " fill="#D8E7EB" transform="translate(190.8125,43.5625)"/>
<path d="M0 0 C1.138 -0.01 2.276 -0.02 3.449 -0.031 C13.039 0.069 23.684 0.896 31.188 7.438 C34.72 11.677 34.456 15.152 34.188 20.438 C33.528 20.438 32.868 20.438 32.188 20.438 C31.919 21.221 31.651 22.005 31.375 22.812 C30.188 25.437 30.188 25.437 27.188 27.438 C24.5 27.562 24.5 27.562 22.188 27.438 C22.518 26.118 22.847 24.797 23.188 23.438 C23.847 23.438 24.507 23.438 25.188 23.438 C26.431 19.706 26.831 16.308 26.188 12.438 C22.676 7.34 17.993 5.803 12.188 4.438 C8.364 4.052 4.59 4.056 0.75 4.125 C0.22 4.131 0.22 4.131 -2.462 4.164 C-29.356 4.655 -55.27 11.339 -80.812 19.438 C-81.289 19.588 -81.289 19.588 -83.701 20.351 C-107.164 27.877 -132.939 37.369 -151.365 54.307 C-152.812 55.438 -152.812 55.438 -154.812 55.438 C-155.06 55.994 -155.308 56.551 -155.562 57.125 C-156.812 59.438 -156.812 59.438 -158.875 61.938 C-162.629 66.781 -162.323 72.519 -161.812 78.438 C-159.976 83.406 -156.41 85.289 -151.812 87.438 C-151.104 87.798 -150.395 88.159 -149.664 88.531 C-130.853 94.51 -108.508 86.831 -91.812 78.438 C-90.748 77.906 -89.683 77.375 -88.586 76.828 C-83.082 73.944 -78.018 70.621 -73.004 66.953 C-70.996 65.565 -69.022 64.464 -66.812 63.438 C-66.648 63.933 -66.648 63.933 -65.812 66.438 C-65.317 66.767 -65.317 66.767 -62.812 68.438 C-62.977 68.933 -62.977 68.933 -63.812 71.438 C-64.472 71.438 -65.132 71.438 -65.812 71.438 C-65.812 72.097 -65.812 72.757 -65.812 73.438 C-66.472 73.438 -67.132 73.438 -67.812 73.438 C-68.039 73.994 -68.266 74.551 -68.5 75.125 C-70.642 78.899 -72.907 81.735 -77.092 83.278 C-79.8 83.979 -82.508 84.574 -85.25 85.125 C-87.103 85.522 -88.956 85.922 -90.809 86.324 C-91.686 86.512 -92.564 86.699 -93.468 86.893 C-95.812 87.438 -95.812 87.438 -98.848 88.449 C-117.633 94.711 -142.591 97.458 -161.195 89.406 C-166.252 86.645 -169.764 82.861 -171.812 77.438 C-172.178 74.381 -172.131 71.495 -171.812 68.438 C-171.153 68.438 -170.493 68.438 -169.812 68.438 C-169.689 67.674 -169.565 66.911 -169.438 66.125 C-168.812 63.438 -168.812 63.438 -166.812 60.438 C-166.153 60.438 -165.493 60.438 -164.812 60.438 C-164.776 59.886 -164.74 59.334 -164.703 58.766 C-163.342 55.209 -160.514 53.415 -157.562 51.188 C-157.244 50.945 -157.244 50.945 -155.635 49.715 C-122.486 24.76 -79.963 12.563 -39.812 4.438 C-39.301 4.332 -39.301 4.332 -36.71 3.8 C-24.469 1.357 -12.491 0.078 0 0 Z " fill="#DAE8ED" transform="translate(190.8125,43.5625)"/>
<path d="M0 0 C3.832 0.511 7.599 0.389 11.461 0.328 C11.273 2.703 11.273 2.703 10.461 5.328 C7.898 6.641 7.898 6.641 5.461 7.328 C6.121 7.658 6.781 7.988 7.461 8.328 C8.086 10.391 8.086 10.391 8.461 12.328 C8.461 11.606 8.461 10.884 8.461 10.141 C10.002 5.807 13.481 4.341 17.461 2.328 C22.362 0.695 27.318 1.273 32.461 1.328 C32.461 5.288 32.461 9.248 32.461 13.328 C27.957 15.086 24.285 15.521 19.461 15.328 C19.461 15.988 19.461 16.648 19.461 17.328 C19.956 17.493 19.956 17.493 22.461 18.328 C22.296 18.823 22.296 18.823 21.461 21.328 C22.451 21.328 23.441 21.328 24.461 21.328 C24.461 22.318 24.461 23.308 24.461 24.328 C23.801 24.328 23.141 24.328 22.461 24.328 C22.461 24.988 22.461 25.648 22.461 26.328 C22.956 26.493 22.956 26.493 25.461 27.328 C24.966 27.493 24.966 27.493 22.461 28.328 C22.131 27.998 22.131 27.998 20.461 26.328 C20.131 26.988 19.801 27.648 19.461 28.328 C18.471 28.328 17.481 28.328 16.461 28.328 C16.461 26.018 16.461 23.708 16.461 21.328 C16.296 21.493 16.296 21.493 15.461 22.328 C14.471 22.328 13.481 22.328 12.461 22.328 C12.461 24.308 12.461 26.288 12.461 28.328 C11.471 28.328 10.481 28.328 9.461 28.328 C9.461 26.348 9.461 24.368 9.461 22.328 C7.811 22.988 6.161 23.648 4.461 24.328 C5.121 25.648 5.781 26.968 6.461 28.328 C4.976 27.998 4.976 27.998 -2.539 26.328 C-2.869 26.988 -3.199 27.648 -3.539 28.328 C-3.704 27.998 -3.704 27.998 -4.539 26.328 C-4.869 26.988 -5.199 27.648 -5.539 28.328 C-6.199 28.328 -6.859 28.328 -7.539 28.328 C-7.704 27.008 -7.704 27.008 -8.539 20.328 C-8.869 20.493 -8.869 20.493 -10.539 21.328 C-10.539 25.328 -10.539 25.328 -9.539 28.328 C-10.859 27.668 -12.179 27.008 -13.539 26.328 C-13.539 25.338 -13.539 24.348 -13.539 23.328 C-14.199 22.998 -14.859 22.668 -15.539 22.328 C-15.539 24.308 -15.539 26.288 -15.539 28.328 C-16.529 28.328 -17.519 28.328 -18.539 28.328 C-18.869 27.338 -19.199 26.348 -19.539 25.328 C-21.189 25.328 -22.839 25.328 -24.539 25.328 C-24.539 25.988 -24.539 26.648 -24.539 27.328 C-22.889 27.328 -21.239 27.328 -19.539 27.328 C-19.539 27.658 -19.539 27.988 -19.539 28.328 C-21.849 28.328 -24.159 28.328 -26.539 28.328 C-27.199 26.348 -27.859 24.368 -28.539 22.328 C-31.179 22.328 -33.819 22.328 -36.539 22.328 C-36.539 23.978 -36.539 25.628 -36.539 27.328 C-37.859 26.998 -39.179 26.668 -40.539 26.328 C-40.539 25.338 -40.539 24.348 -40.539 23.328 C-39.858 22.689 -39.178 22.049 -38.477 21.391 C-38.157 21.05 -38.157 21.05 -36.539 19.328 C-36.664 17.309 -36.664 17.309 -37.539 15.328 C-39.387 14.281 -39.387 14.281 -41.602 13.578 C-42.335 13.336 -43.069 13.093 -43.824 12.844 C-44.39 12.674 -44.956 12.503 -45.539 12.328 C-45.247 8.827 -44.756 7.545 -42.227 5.016 C-39.539 3.328 -39.539 3.328 -35.539 3.328 C-35.539 4.318 -35.539 5.308 -35.539 6.328 C-34.054 6.163 -34.054 6.163 -26.539 5.328 C-26.539 4.668 -26.539 4.008 -26.539 3.328 C-27.859 2.998 -29.179 2.668 -30.539 2.328 C-28.648 0.437 -25.968 1.091 -23.449 1 C-23.134 1.054 -23.134 1.054 -21.539 1.328 C-21.209 1.823 -21.209 1.823 -19.539 4.328 C-23.989 7.858 -27.088 8.451 -32.727 8.391 C-33.27 8.386 -33.27 8.386 -36.02 8.363 C-36.851 8.352 -37.682 8.34 -38.539 8.328 C-38.209 9.318 -37.879 10.308 -37.539 11.328 C-29.412 11.831 -22.72 11.428 -15.539 7.328 C-12.664 4.766 -12.664 4.766 -10.539 2.328 C-7.145 -1.308 -4.59 -0.701 0 0 Z " fill="#113B50" transform="translate(192.5390625,107.671875)"/>
<path d="M0 0 C-0.66 1.65 -1.32 3.3 -2 5 C-2.66 5 -3.32 5 -4 5 C-4 5.66 -4 6.32 -4 7 C-4.66 7 -5.32 7 -6 7 C-6.205 7.529 -6.41 8.057 -6.621 8.602 C-8.597 12.038 -11.258 14.597 -14.062 17.375 C-14.647 17.955 -15.231 18.535 -15.833 19.133 C-24.084 27.171 -34.633 35.165 -46.625 35.125 C-47.401 35.128 -48.177 35.13 -48.977 35.133 C-51 35 -51 35 -53 34 C-52.859 32.541 -52.712 31.083 -52.562 29.625 C-52.481 28.813 -52.4 28.001 -52.316 27.164 C-52 25 -52 25 -51 23 C-50.34 23 -49.68 23 -49 23 C-49 22.34 -49 21.68 -49 21 C-37.28 10.576 -15.879 0 0 0 Z " fill="#0B344B" transform="translate(113,129)"/>
<path d="M0 0 C0.33 1.32 0.66 2.64 1 4 C1.66 4 2.32 4 3 4 C3 4.99 3 5.98 3 7 C3.66 7 4.32 7 5 7 C5.33 5.68 5.66 4.36 6 3 C7.245 5.491 7 7.042 6.875 9.812 C6.856 14.106 6.999 16.708 10 20 C12.234 21.572 14.527 22.844 17 24 C17.709 24.361 18.418 24.722 19.148 25.094 C37.96 31.072 60.305 23.393 77 15 C78.065 14.469 79.13 13.938 80.227 13.391 C85.731 10.507 90.795 7.183 95.809 3.516 C97.816 2.127 99.79 1.027 102 0 C102.165 0.495 102.165 0.495 103 3 C103.99 3.66 104.98 4.32 106 5 C105.67 5.99 105.34 6.98 105 8 C104.34 8 103.68 8 103 8 C103 8.66 103 9.32 103 10 C102.34 10 101.68 10 101 10 C100.773 10.557 100.546 11.114 100.312 11.688 C98.17 15.462 95.905 18.298 91.72 19.84 C89.013 20.542 86.304 21.136 83.562 21.688 C81.709 22.085 79.856 22.485 78.004 22.887 C77.126 23.074 76.249 23.262 75.344 23.455 C73 24 73 24 69.965 25.012 C51.179 31.274 26.222 34.021 7.617 25.969 C2.561 23.207 -0.952 19.423 -3 14 C-3.365 10.944 -3.318 8.058 -3 5 C-2.34 5 -1.68 5 -1 5 C-0.67 3.35 -0.34 1.7 0 0 Z " fill="#DAE8ED" transform="translate(22,107)"/>
<path d="M0 0 C-0.33 1.98 -0.66 3.96 -1 6 C-1.66 6 -2.32 6 -3 6 C-3.267 6.721 -3.534 7.441 -3.809 8.184 C-7.428 16.739 -13.516 24.173 -19.18 31.469 C-21 34 -21 34 -22 37 C-21.34 37 -20.68 37 -20 37 C-20 37.66 -20 38.32 -20 39 C-20.447 39.114 -20.447 39.114 -22.707 39.691 C-26.503 41.2 -28.077 42.835 -30.688 45.938 C-31.061 46.375 -31.061 46.375 -32.949 48.59 C-33.626 49.385 -34.303 50.181 -35 51 C-35.987 52.013 -36.981 53.02 -38 54 C-38 52.68 -38 51.36 -38 50 C-38.66 50 -39.32 50 -40 50 C-40 49.34 -40 48.68 -40 48 C-39.34 48 -38.68 48 -38 48 C-37.835 47.01 -37.835 47.01 -37 42 C-37.99 42 -38.98 42 -40 42 C-39.67 41.01 -39.34 40.02 -39 39 C-37.927 38.752 -36.855 38.505 -35.75 38.25 C-31.317 36.772 -30.351 35.32 -28.043 31.461 C-27.699 30.979 -27.355 30.497 -27 30 C-26.34 30 -25.68 30 -25 30 C-25 29.34 -25 28.68 -25 28 C-24.34 28 -23.68 28 -23 28 C-23 27.01 -23 26.02 -23 25 C-23.99 24.34 -24.98 23.68 -26 23 C-25.658 20.018 -25.361 18.39 -23.293 16.156 C-22.598 15.61 -21.903 15.063 -21.188 14.5 C-18.004 11.898 -15.549 9.236 -13 6 C-12.34 6 -11.68 6 -11 6 C-10.897 5.216 -10.794 4.433 -10.688 3.625 C-9.135 -2.303 -4.916 -0.927 0 0 Z M-42 50 C-41.67 50.165 -41.67 50.165 -40 51 C-40.33 51.165 -40.33 51.165 -42 52 C-42 51.34 -42 50.68 -42 50 Z " fill="#EFF5F7" transform="translate(150,87)"/>
<path d="M0 0 C3.832 0.511 7.599 0.389 11.461 0.328 C11.131 1.978 10.801 3.628 10.461 5.328 C9.141 5.328 7.821 5.328 6.461 5.328 C6.461 4.668 6.461 4.008 6.461 3.328 C0.466 4.341 -3.635 5.74 -8.539 9.328 C-9.199 9.328 -9.859 9.328 -10.539 9.328 C-10.539 9.988 -10.539 10.648 -10.539 11.328 C-13.697 14.43 -16.108 14.704 -20.441 14.691 C-21.579 14.691 -22.717 14.69 -23.889 14.689 C-25.073 14.673 -26.257 14.657 -27.477 14.641 C-28.067 14.642 -28.067 14.642 -31.053 14.65 C-40.644 14.591 -40.644 14.591 -45.539 12.328 C-45.247 8.827 -44.756 7.545 -42.227 5.016 C-39.539 3.328 -39.539 3.328 -35.539 3.328 C-35.539 4.318 -35.539 5.308 -35.539 6.328 C-34.054 6.163 -34.054 6.163 -26.539 5.328 C-26.539 4.668 -26.539 4.008 -26.539 3.328 C-27.859 2.998 -29.179 2.668 -30.539 2.328 C-28.648 0.437 -25.968 1.091 -23.449 1 C-23.134 1.054 -23.134 1.054 -21.539 1.328 C-21.209 1.823 -21.209 1.823 -19.539 4.328 C-23.989 7.858 -27.088 8.451 -32.727 8.391 C-33.27 8.386 -33.27 8.386 -36.02 8.363 C-36.851 8.352 -37.682 8.34 -38.539 8.328 C-38.209 9.318 -37.879 10.308 -37.539 11.328 C-29.412 11.831 -22.72 11.428 -15.539 7.328 C-12.664 4.766 -12.664 4.766 -10.539 2.328 C-7.145 -1.308 -4.59 -0.701 0 0 Z " fill="#DEECF1" transform="translate(192.5390625,107.671875)"/>
<path d="M0 0 C0.938 0.021 0.938 0.021 5.688 0.125 C5.688 4.085 5.688 8.045 5.688 12.125 C-0.78 14.848 -7.226 14.976 -13.938 13.125 C-14.721 12.795 -15.505 12.465 -16.312 12.125 C-16.625 9.375 -16.625 9.375 -16.312 6.125 C-11.544 1.22 -6.696 -0.147 0 0 Z " fill="#CDE0E7" transform="translate(219.3125,108.875)"/>
<path d="M0 0 C0.33 0.66 0.66 1.32 1 2 C0.67 2.99 0.34 3.98 0 5 C0.33 4.34 0.66 3.68 1 3 C3.649 2.406 6.292 2.258 9 2 C10.562 3.75 10.562 3.75 12 6 C11.688 8.25 11.688 8.25 11 10 C11.66 10.33 12.32 10.66 13 11 C12.34 11.33 12.34 11.33 9 13 C8.34 11.68 7.68 10.36 7 9 C7.66 8.67 8.32 8.34 9 8 C8.01 8 7.02 8 6 8 C6 9.32 6 10.64 6 12 C5.01 12 4.02 12 3 12 C3 12.66 3 13.32 3 14 C1.68 14.33 0.36 14.66 -1 15 C-1.33 14.34 -1.66 13.68 -2 13 C-4.784 14.392 -4.979 16.156 -6 19 C-7.32 19 -8.64 19 -10 19 C-10.33 19.66 -10.66 20.32 -11 21 C-11 20.34 -11 19.68 -11 19 C-11.66 18.67 -12.32 18.34 -13 18 C-11 16 -11 16 -8.375 15.875 C-7.591 15.916 -6.808 15.957 -6 16 C-6 15.34 -6 14.68 -6 14 C-6.66 14 -7.32 14 -8 14 C-7.376 10.239 -5.652 7.81 -3.438 4.75 C-3.117 4.304 -3.117 4.304 -1.496 2.047 C-1.002 1.371 -0.509 0.696 0 0 Z " fill="#0F374E" transform="translate(136,110)"/>
<path d="M0 0 C-1.667 1.667 -3.333 3.333 -5 5 C-5.557 5.598 -6.114 6.196 -6.688 6.812 C-8 8 -8 8 -10 8 C-10.267 8.576 -10.534 9.152 -10.809 9.746 C-12.427 12.808 -14.527 15.38 -16.66 18.098 C-18 20 -18 20 -19 23 C-19.66 23 -20.32 23 -21 23 C-21.33 22.34 -21.66 21.68 -22 21 C-22.66 21.99 -23.32 22.98 -24 24 C-23.859 22.541 -23.712 21.083 -23.562 19.625 C-23.481 18.813 -23.4 18.001 -23.316 17.164 C-23 15 -23 15 -22 13 C-21.34 13 -20.68 13 -20 13 C-19.96 12.707 -19.96 12.707 -19.758 11.223 C-18.091 6.335 -12.291 3.29 -7.953 0.848 C-4.728 -0.648 -3.457 -1.152 0 0 Z " fill="#E1EEF1" transform="translate(46,91)"/>
<path d="M0 0 C0.66 0 1.32 0 2 0 C1.67 1.65 1.34 3.3 1 5 C0.34 5 -0.32 5 -1 5 C-1.227 5.557 -1.454 6.114 -1.688 6.688 C-3.814 10.435 -6.089 13.281 -10.231 14.84 C-12.892 15.545 -15.553 16.137 -18.25 16.688 C-19.154 16.887 -20.057 17.086 -20.988 17.291 C-22.78 17.684 -24.574 18.07 -26.369 18.447 C-30.254 19.264 -34.126 20.134 -38 21 C-35.754 18.754 -33.623 18.002 -30.691 16.893 C-20.464 13.017 -7.856 7.856 0 0 Z " fill="#233842" transform="translate(124,112)"/>
<path d="M0 0 C0.33 1.32 0.66 2.64 1 4 C1.66 4 2.32 4 3 4 C3 4.99 3 5.98 3 7 C3.66 7 4.32 7 5 7 C5.33 5.68 5.66 4.36 6 3 C7.533 6.066 7.018 9.114 6.938 12.492 C7 15 7 15 7.559 17.148 C8.204 19.855 7.157 21.551 6 24 C1.185 21.953 -0.997 18.754 -3 14 C-3.383 10.943 -3.319 8.059 -3 5 C-2.34 5 -1.68 5 -1 5 C-0.67 3.35 -0.34 1.7 0 0 Z " fill="#CDDBE0" transform="translate(22,107)"/>
<path d="M0 0 C0.511 -0.001 0.511 -0.001 3.098 -0.008 C5.938 0.125 5.938 0.125 7.871 0.625 C10.901 1.358 13.826 1.257 16.938 1.25 C18.154 1.253 19.371 1.255 20.625 1.258 C23.938 1.125 23.938 1.125 26.188 0.555 C28.977 -0.13 31.265 1.234 33.938 2.125 C35.279 1.827 36.616 1.503 37.938 1.125 C40.129 3.317 40.216 4.24 40.938 7.125 C41.597 7.785 42.257 8.445 42.938 9.125 C39.074 8.521 35.693 7.32 32.098 5.844 C26.485 3.976 20.88 3.99 15.039 4.027 C14.622 4.028 14.622 4.028 12.509 4.032 C9.86 4.037 7.211 4.05 4.562 4.062 C2.759 4.068 0.956 4.072 -0.848 4.076 C-5.253 4.087 -9.658 4.104 -14.062 4.125 C-9.996 -0.246 -5.773 -0.015 0 0 Z " fill="#0A283B" transform="translate(180.0625,40.875)"/>
<path d="M0 0 C1.042 0.009 2.083 0.018 3.156 0.027 C3.543 0.033 3.543 0.033 5.5 0.062 C5.5 0.392 5.5 0.722 5.5 1.062 C8.8 1.392 12.1 1.722 15.5 2.062 C15.5 2.392 15.5 2.722 15.5 3.062 C15.09 3.085 15.09 3.085 13.016 3.198 C-15.483 4.804 -15.483 4.804 -28.543 7.477 C-31.5 8.062 -31.5 8.062 -34.5 8.062 C-34.5 7.403 -34.5 6.742 -34.5 6.062 C-35.16 5.733 -35.82 5.403 -36.5 5.062 C-33.001 4.413 -29.5 3.769 -26 3.125 C-25.018 2.943 -24.035 2.76 -23.023 2.572 C-15.33 1.162 -7.85 -0.089 0 0 Z " fill="#D7EAF0" transform="translate(182.5,43.9375)"/>
<path d="M0 0 C-0.33 0.99 -0.66 1.98 -1 3 C-0.67 3.99 -0.34 4.98 0 6 C-1.32 5.34 -2.64 4.68 -4 4 C-4 3.01 -4 2.02 -4 1 C-4.66 0.67 -5.32 0.34 -6 0 C-6 1.98 -6 3.96 -6 6 C-6.99 6 -7.98 6 -9 6 C-9.33 5.01 -9.66 4.02 -10 3 C-11.65 3 -13.3 3 -15 3 C-15 3.66 -15 4.32 -15 5 C-13.35 5 -11.7 5 -10 5 C-10 5.33 -10 5.66 -10 6 C-12.31 6 -14.62 6 -17 6 C-17.66 4.02 -18.32 2.04 -19 0 C-21.64 0 -24.28 0 -27 0 C-27 1.65 -27 3.3 -27 5 C-28.32 4.67 -29.64 4.34 -31 4 C-31 3.01 -31 2.02 -31 1 C-23.272 -4.152 -7.876 -5.251 0 0 Z " fill="#46687C" transform="translate(183,130)"/>
<path d="M0 0 C2.31 0.66 4.62 1.32 7 2 C7 1.34 7 0.68 7 0 C7.99 0.33 8.98 0.66 10 1 C9.01 2.32 8.02 3.64 7 5 C7.66 5.33 8.32 5.66 9 6 C8 9 8 9 6.137 10.168 C-0.719 13.022 -6.62 13.456 -14 13 C-14.33 11.68 -14.66 10.36 -15 9 C-14.203 8.963 -13.407 8.925 -12.586 8.887 C-6.682 8.52 -2.031 8.214 3 5 C2.01 3.35 1.02 1.7 0 0 Z " fill="#152D3B" transform="translate(169,107)"/>
<path d="M0 0 C-3.08 1.485 -6.165 2.962 -9.25 4.438 C-9.686 4.648 -9.686 4.648 -11.895 5.713 C-12.739 6.116 -13.583 6.519 -14.453 6.934 C-15.228 7.305 -16.003 7.677 -16.802 8.06 C-18.861 8.941 -20.815 9.528 -23 10 C-22.67 9.34 -22.34 8.68 -22 8 C-21.34 8 -20.68 8 -20 8 C-20 6.68 -20 5.36 -20 4 C-25.047 4.418 -29.311 4.99 -34 7 C-35.32 7 -36.64 7 -38 7 C-38 6.34 -38 5.68 -38 5 C-38.99 4.835 -38.99 4.835 -44 4 C-44 3.67 -44 3.34 -44 3 C-43.661 2.993 -43.661 2.993 -41.943 2.956 C-18.209 2.387 -18.209 2.387 -6.793 -0.477 C-3.984 -1.003 -2.672 -0.78 0 0 Z " fill="#122C3C" transform="translate(86,134)"/>
<path d="M0 0 C1.32 0.33 2.64 0.66 4 1 C4 1.66 4 2.32 4 3 C4.99 3.33 5.98 3.66 7 4 C6.67 4.99 6.34 5.98 6 7 C6.99 7 7.98 7 9 7 C9 7.99 9 8.98 9 10 C8.34 10 7.68 10 7 10 C7 10.66 7 11.32 7 12 C7.99 12.33 8.98 12.66 10 13 C9.01 13.33 8.02 13.66 7 14 C6.34 13.34 5.68 12.68 5 12 C4.67 12.66 4.34 13.32 4 14 C3.01 14 2.02 14 1 14 C1 11.69 1 9.38 1 7 C0.67 7.33 0.34 7.66 0 8 C-0.99 8 -1.98 8 -3 8 C-3 9.98 -3 11.96 -3 14 C-3.99 14 -4.98 14 -6 14 C-6 11.69 -6 9.38 -6 7 C-4.68 6.34 -3.36 5.68 -2 5 C-2 4.01 -2 3.02 -2 2 C-1.34 2 -0.68 2 0 2 C0 1.34 0 0.68 0 0 Z " fill="#32586D" transform="translate(208,122)"/>
<path d="M0 0 C0.557 0.227 1.114 0.454 1.688 0.688 C2.312 3.062 2.312 3.062 2.688 5.688 C0.688 7.688 0.688 7.688 -2.07 7.777 C-2.626 7.752 -2.626 7.752 -5.438 7.625 C-11.306 7.515 -14.968 8.437 -20.312 10.688 C-23.812 10.875 -23.812 10.875 -26.312 10.688 C-26.312 10.028 -26.312 9.368 -26.312 8.688 C-24.332 8.688 -22.353 8.688 -20.312 8.688 C-20.312 8.028 -20.312 7.368 -20.312 6.688 C-19.432 6.434 -18.552 6.18 -17.645 5.918 C-16.483 5.574 -15.322 5.23 -14.125 4.875 C-12.976 4.539 -11.828 4.202 -10.645 3.855 C-6.997 2.577 -3.814 -0.515 0 0 Z " fill="#113142" transform="translate(92.3125,159.3125)"/>
<path d="M0 0 C3.625 0.375 3.625 0.375 7 1 C6.67 1.165 6.67 1.165 5 2 C4.367 4.285 4.367 4.285 3.875 7.062 C3.791 7.522 3.791 7.522 3.367 9.848 C3.246 10.558 3.125 11.268 3 12 C2.34 12 1.68 12 1 12 C1 12.66 1 13.32 1 14 C0.01 14.33 -0.98 14.66 -2 15 C-2.33 14.01 -2.66 13.02 -3 12 C-3.66 12 -4.32 12 -5 12 C-5 10.02 -5 8.04 -5 6 C-4.34 6 -3.68 6 -3 6 C-2.876 5.381 -2.752 4.762 -2.625 4.125 C-2 2 -2 2 0 0 Z " fill="#D5E0E4" transform="translate(57,150)"/>
<path d="M0 0 C1.968 0.975 3.925 1.96 5.859 3 C14.023 7.318 21.889 8.364 31 9 C31 9.33 31 9.66 31 10 C27.667 10.088 24.334 10.141 21 10.188 C20.065 10.213 19.131 10.238 18.168 10.264 C10.708 10.342 5.318 9.212 -1 5 C-0.67 3.35 -0.34 1.7 0 0 Z " fill="#E4F0F5" transform="translate(29,126)"/>
<path d="M0 0 C0.315 0.054 0.315 0.054 1.91 0.328 C2.57 1.318 3.23 2.308 3.91 3.328 C-0.751 7.025 -4.387 7.512 -10.277 7.891 C-10.913 7.933 -10.913 7.933 -14.133 8.145 C-15.109 8.205 -16.084 8.266 -17.09 8.328 C-17.42 7.668 -17.75 7.008 -18.09 6.328 C-17.152 4.203 -17.152 4.203 -16.09 2.328 C-14.77 2.328 -13.45 2.328 -12.09 2.328 C-12.09 3.318 -12.09 4.308 -12.09 5.328 C-10.605 5.163 -10.605 5.163 -3.09 4.328 C-3.09 3.668 -3.09 3.008 -3.09 2.328 C-4.41 1.998 -5.73 1.668 -7.09 1.328 C-5.199 -0.563 -2.519 0.091 0 0 Z " fill="#DCEEF3" transform="translate(169.08984375,108.671875)"/>
<path d="M0 0 C0.33 0.66 0.66 1.32 1 2 C0.67 2.99 0.34 3.98 0 5 C0.66 5.33 1.32 5.66 2 6 C-1.75 12.875 -1.75 12.875 -4 14 C-4.722 15.644 -5.394 17.311 -6 19 C-7.32 19 -8.64 19 -10 19 C-10.33 19.66 -10.66 20.32 -11 21 C-11 20.34 -11 19.68 -11 19 C-11.66 18.67 -12.32 18.34 -13 18 C-11 16 -11 16 -8.375 15.875 C-7.591 15.916 -6.808 15.957 -6 16 C-6 15.34 -6 14.68 -6 14 C-6.66 14 -7.32 14 -8 14 C-7.376 10.239 -5.652 7.81 -3.438 4.75 C-3.117 4.304 -3.117 4.304 -1.496 2.047 C-1.002 1.371 -0.509 0.696 0 0 Z " fill="#254855" transform="translate(136,110)"/>
<path d="M0 0 C-0.33 1.98 -0.66 3.96 -1 6 C-1.66 6 -2.32 6 -3 6 C-3 6.66 -3 7.32 -3 8 C-3.99 8 -4.98 8 -6 8 C-6.33 8.66 -6.66 9.32 -7 10 C-7.66 9.34 -8.32 8.68 -9 8 C-9.99 8 -10.98 8 -12 8 C-10.052 -0.092 -8.24 -1.555 0 0 Z " fill="#F5F9FB" transform="translate(150,87)"/>
<path d="M0 0 C0.382 0.083 0.382 0.083 2.312 0.5 C5.151 1.028 7.283 1.217 10.062 0.375 C10.702 0.251 11.341 0.127 12 0 C12.66 0.66 13.32 1.32 14 2 C12.35 2 10.7 2 9 2 C8.67 3.65 8.34 5.3 8 7 C8.66 7 9.32 7 10 7 C10 6.01 10 5.02 10 4 C10.99 3.67 11.98 3.34 13 3 C13 3.99 13 4.98 13 6 C15.31 5.34 17.62 4.68 20 4 C20 4.66 20 5.32 20 6 C19.408 6.193 18.817 6.387 18.207 6.586 C14.085 7.944 10.005 9.321 6 11 C5.01 10.01 4.02 9.02 3 8 C3.66 8 4.32 8 5 8 C5 7.34 5 6.68 5 6 C3.35 5.67 1.7 5.34 0 5 C0 3.35 0 1.7 0 0 Z " fill="#042F46" transform="translate(66,149)"/>
<path d="M0 0 C0.66 0.66 1.32 1.32 2 2 C-8.78 4.889 -19.944 4.19 -31 4 C-27.914 1.316 -25.774 0.563 -21.719 0.234 C-21.215 0.192 -21.215 0.192 -18.668 -0.023 C-17.623 -0.098 -16.577 -0.173 -15.5 -0.25 C-14.455 -0.34 -13.409 -0.43 -12.332 -0.523 C-3.448 -1.229 -3.448 -1.229 0 0 Z " fill="#CADFE5" transform="translate(76,133)"/>
<path d="M0 0 C0.33 0 0.66 0 1 0 C1.077 2.695 0.992 5.04 0.438 7.688 C0 10 0 10 1 12 C-0.375 13.5 -0.375 13.5 -2 15 C-2.66 15 -3.32 15 -4 15 C-4 15.99 -4 16.98 -4 18 C-4.99 18.33 -5.98 18.66 -7 19 C-7 18.34 -7 17.68 -7 17 C-7.99 16.67 -8.98 16.34 -10 16 C-8.36 13.33 -6.712 10.664 -5.062 8 C-4.594 7.237 -4.125 6.474 -3.643 5.688 C-3.195 4.966 -2.747 4.244 -2.285 3.5 C-1.871 2.83 -1.458 2.159 -1.031 1.469 C-0.691 0.984 -0.351 0.499 0 0 Z " fill="#193B4D" transform="translate(147,93)"/>
<path d="M0 0 C0 0.99 0 1.98 0 3 C-2.054 4.206 -4.116 5.389 -6.188 6.562 C-6.477 6.734 -6.477 6.734 -7.939 7.6 C-10.835 9.219 -12.581 10.041 -15.926 9.715 C-16.61 9.479 -17.295 9.243 -18 9 C-17 6 -17 6 -14.453 4.395 C-13.396 3.872 -12.339 3.35 -11.25 2.812 C-10.727 2.548 -10.727 2.548 -8.078 1.207 C-5.088 0.034 -3.166 -0.264 0 0 Z " fill="#E6F1F5" transform="translate(73,74)"/>
<path d="M0 0 C0 1.65 0 3.3 0 5 C-2.852 6.426 -5.325 6.132 -8.5 6.125 C-9.083 6.126 -9.083 6.126 -12.031 6.133 C-15 6 -15 6 -17 5 C-17 4.01 -17 3.02 -17 2 C-16.085 1.939 -15.17 1.879 -14.227 1.816 C-13.632 1.775 -13.632 1.775 -10.625 1.562 C-9.442 1.481 -8.258 1.4 -7.039 1.316 C-4.4 1.042 -2.565 0 0 0 Z " fill="#0F2535" transform="translate(225,114)"/>
<path d="M0 0 C4.744 0.922 4.744 0.922 7.062 1.625 C9 2 9 2 11.125 1.438 C11.744 1.293 12.363 1.149 13 1 C15.192 3.192 15.279 4.115 16 7 C16.66 7.66 17.32 8.32 18 9 C14.123 8.394 10.706 7.176 7.07 5.766 C4.089 4.663 1.067 3.831 -2 3 C-1.34 2.01 -0.68 1.02 0 0 Z " fill="#103041" transform="translate(205,41)"/>
<path d="M0 0 C2.666 1.333 2.991 2.19 4 5 C4.165 7.692 4.09 10.298 4 13 C3.34 13 2.68 13 2 13 C1.732 13.784 1.464 14.567 1.188 15.375 C0 18 0 18 -3 20 C-5.688 20.125 -5.688 20.125 -8 20 C-7.67 18.68 -7.34 17.36 -7 16 C-6.34 16 -5.68 16 -5 16 C-4.67 15.34 -4.34 14.68 -4 14 C-4 14.66 -4 15.32 -4 16 C-3.34 16 -2.68 16 -2 16 C-1.67 15.34 -1.34 14.68 -1 14 C-0.34 14 0.32 14 1 14 C1 12.68 1 11.36 1 10 C0.34 9.67 -0.32 9.34 -1 9 C-0.67 8.67 -0.34 8.34 0 8 C0.071 6.648 0.084 5.292 0.062 3.938 C0.042 2.638 0.021 1.339 0 0 Z " fill="#CEDFE7" transform="translate(221,51)"/>
<path d="M0 0 C0 0.33 0 0.66 0 1 C3.3 1.33 6.6 1.66 10 2 C10 2.33 10 2.66 10 3 C5.545 3.165 5.545 3.165 -17 4 C-17 3.34 -17 2.68 -17 2 C-17.99 1.67 -18.98 1.34 -20 1 C-13.303 -0.03 -6.769 -0.102 0 0 Z " fill="#C0D1D9" transform="translate(188,44)"/>
<path d="M0 0 C0.66 1.32 1.32 2.64 2 4 C0.614 5.014 -0.784 6.011 -2.188 7 C-2.965 7.557 -3.742 8.114 -4.543 8.688 C-7.283 10.151 -8.941 10.261 -12 10 C-11.875 8.25 -11.875 8.25 -11 6 C-7.54 3.326 -4.117 1.453 0 0 Z " fill="#E6F2F5" transform="translate(94,152)"/>
<path d="M0 0 C-1.45 3.791 -3.152 7.387 -5 11 C-5.66 11 -6.32 11 -7 11 C-7.33 10.34 -7.66 9.68 -8 9 C-8.66 9.99 -9.32 10.98 -10 12 C-9.67 9.36 -9.34 6.72 -9 4 C-8.34 4 -7.68 4 -7 4 C-7 3.34 -7 2.68 -7 2 C-4.353 0.539 -3.106 0 0 0 Z " fill="#F9FBFD" transform="translate(32,103)"/>
<path d="M0 0 C2.31 0.165 2.31 0.165 14 1 C12.472 4.055 11.191 6.443 9 9 C8.34 9 7.68 9 7 9 C7 10.65 7 12.3 7 14 C6.01 14 5.02 14 4 14 C4.33 12.68 4.66 11.36 5 10 C4.01 9.67 3.02 9.34 2 9 C2 8.67 2 8.34 2 8 C2.969 7.752 3.939 7.505 4.938 7.25 C5.443 7.044 5.443 7.044 8 6 C8.875 3.875 8.875 3.875 9 2 C6.36 2 3.72 2 1 2 C0.67 1.34 0.34 0.68 0 0 Z " fill="#1A313D" transform="translate(195,106)"/>
<path d="M0 0 C0.66 0 1.32 0 2 0 C2.33 0.66 2.66 1.32 3 2 C5.062 3.125 5.062 3.125 7 4 C5.756 5.298 4.505 6.588 3.25 7.875 C2.554 8.594 1.858 9.314 1.141 10.055 C-0.871 11.882 -2.455 13.07 -5 14 C-5.66 13.67 -6.32 13.34 -7 13 C-7 12.34 -7 11.68 -7 11 C-6.01 10.67 -5.02 10.34 -4 10 C-3.484 9.484 -2.969 8.969 -2.438 8.438 C-1.963 7.963 -1.489 7.489 -1 7 C-0.34 7 0.32 7 1 7 C1.33 5.68 1.66 4.36 2 3 C1.34 3 0.68 3 0 3 C0 2.01 0 1.02 0 0 Z " fill="#1C3849" transform="translate(128,93)"/>
<path d="M0 0 C2 1 2 1 3 3 C2.34 3 1.68 3 1 3 C1 3.99 1 4.98 1 6 C-2.96 7.65 -6.92 9.3 -11 11 C-11 10.34 -11 9.68 -11 9 C-10.34 9 -9.68 9 -9 9 C-9 7.35 -9 5.7 -9 4 C-8.072 4.082 -7.144 4.165 -6.188 4.25 C-3 4 -3 4 -1.125 2 C-0.754 1.34 -0.382 0.68 0 0 Z " fill="#0D2D3F" transform="translate(78,64)"/>
<path d="M0 0 C2.64 0 5.28 0 8 0 C8 0.99 8 1.98 8 3 C7.34 3 6.68 3 6 3 C6 3.66 6 4.32 6 5 C6.99 5.33 7.98 5.66 9 6 C8.01 6.33 7.02 6.66 6 7 C5.34 6.34 4.68 5.68 4 5 C3.67 5.66 3.34 6.32 3 7 C2.01 7 1.02 7 0 7 C0 4.69 0 2.38 0 0 Z " fill="#5E7D90" transform="translate(209,129)"/>
<path d="M0 0 C1.98 0.33 1.98 0.33 12 2 C12 2.33 12 2.66 12 3 C10.02 3 8.04 3 6 3 C6.66 4.32 7.32 5.64 8 7 C7.34 7 6.68 7 6 7 C5.67 7.66 5.34 8.32 5 9 C3.02 8.01 1.04 7.02 -1 6 C2 5 2 5 3 5 C2.691 4.928 2.691 4.928 1.125 4.562 C-1 4 -1 4 -3 3 C-2.01 2.67 -1.02 2.34 0 2 C0 1.34 0 0.68 0 0 Z " fill="#0E364D" transform="translate(149,121)"/>
<path d="M0 0 C0.99 0 1.98 0 3 0 C4.607 3.215 4.057 6.436 4 10 C2.35 10 0.7 10 -1 10 C-1.027 8.521 -1.046 7.042 -1.062 5.562 C-1.074 4.739 -1.086 3.915 -1.098 3.066 C-1 1 -1 1 0 0 Z " fill="#3C6278" transform="translate(221,126)"/>
<path d="M0 0 C0.33 0.99 0.66 1.98 1 3 C-3.95 3.66 -8.9 4.32 -14 5 C-14 4.34 -14 3.68 -14 3 C-14.66 2.67 -15.32 2.34 -16 2 C-14.087 1.467 -12.169 0.949 -10.25 0.438 C-9.183 0.147 -8.115 -0.143 -7.016 -0.441 C-4.156 -0.971 -2.622 -1.219 0 0 Z " fill="#15384E" transform="translate(146,54)"/>
<path d="M0 0 C8.25 0 16.5 0 25 0 C25.33 0.66 25.66 1.32 26 2 C25.264 1.977 24.528 1.954 23.77 1.93 C23.282 1.921 23.282 1.921 20.812 1.875 C20.331 1.863 20.331 1.863 17.895 1.805 C14.852 2.01 12.794 2.839 10 4 C8.68 4 7.36 4 6 4 C6 3.34 6 2.68 6 2 C5.01 1.835 5.01 1.835 0 1 C0 0.67 0 0.34 0 0 Z " fill="#072B3E" transform="translate(42,137)"/>
<path d="M0 0 C0.66 0 1.32 0 2 0 C2 1.65 2 3.3 2 5 C-1.996 7.83 -5.427 6.762 -10 6 C-10 5.01 -10 4.02 -10 3 C-7.36 2.67 -4.72 2.34 -2 2 C-2 2.66 -2 3.32 -2 4 C-1.34 3.67 -0.68 3.34 0 3 C0 2.01 0 1.02 0 0 Z " fill="#D0E6EC" transform="translate(223,109)"/>
<path d="M0 0 C-0.33 1.65 -0.66 3.3 -1 5 C-2.32 5 -3.64 5 -5 5 C-5 4.34 -5 3.68 -5 3 C-7.31 3.33 -9.62 3.66 -12 4 C-12 3.34 -12 2.68 -12 2 C-12.66 1.67 -13.32 1.34 -14 1 C-9.328 -0.206 -4.785 -0.094 0 0 Z " fill="#C0D2D9" transform="translate(204,108)"/>
<path d="M0 0 C1.65 0 3.3 0 5 0 C5 4.539 2.466 7.3 0 11 C-0.66 11 -1.32 11 -2 11 C-2.33 9.02 -2.66 7.04 -3 5 C-2.34 4.67 -1.68 4.34 -1 4 C-0.375 1.938 -0.375 1.938 0 0 Z " fill="#0B2D43" transform="translate(33,104)"/>
<path d="M0 0 C0.333 1.333 0.333 1.333 2 8 C1.257 7.649 0.515 7.299 -0.25 6.938 C-3.204 5.931 -4.129 6.109 -7 7 C-7.66 6.67 -8.32 6.34 -9 6 C-9.66 7.32 -10.32 8.64 -11 10 C-11 6.894 -10.461 5.647 -9 3 C-8.01 3.165 -8.01 3.165 -3 4 C-3 3.01 -3 2.02 -3 1 C-2.01 0.67 -1.02 0.34 0 0 Z " fill="#042E42" transform="translate(146,107)"/>
<path d="M0 0 C0.99 0.66 1.98 1.32 3 2 C2.34 2 1.68 2 1 2 C1 2.66 1 3.32 1 4 C-1.768 4.865 -4.539 5.717 -7.312 6.562 C-8.098 6.809 -8.884 7.056 -9.693 7.311 C-10.451 7.539 -11.208 7.768 -11.988 8.004 C-12.685 8.219 -13.381 8.433 -14.099 8.655 C-16 9 -16 9 -19 8 C-15.905 6.603 -12.798 5.236 -9.688 3.875 C-8.806 3.477 -7.925 3.078 -7.018 2.668 C-6.17 2.301 -5.322 1.933 -4.449 1.555 C-3.669 1.209 -2.889 0.863 -2.085 0.507 C-1.397 0.34 -0.709 0.172 0 0 Z " fill="#2A373E" transform="translate(105,124)"/>
<path d="M0 0 C1.376 1.29 2.708 2.627 4 4 C4 4.66 4 5.32 4 6 C4.99 6.33 5.98 6.66 7 7 C6.67 7.495 6.67 7.495 5 10 C3.845 9.34 3.845 9.34 -2 6 C-2 5.34 -2 4.68 -2 4 C-2.66 4 -3.32 4 -4 4 C-3.67 3.01 -3.34 2.02 -3 1 C-2.01 1.33 -1.02 1.66 0 2 C0 1.34 0 0.68 0 0 Z " fill="#1A3C4A" transform="translate(20,123)"/>
<path d="M0 0 C4.95 0.33 9.9 0.66 15 1 C15 1.99 15 2.98 15 4 C10.276 4.652 5.78 5.12 1 5 C1.66 4.34 2.32 3.68 3 3 C2.01 2.01 1.02 1.02 0 0 Z " fill="#033344" transform="translate(154,51)"/>
<path d="M0 0 C5.28 0 10.56 0 16 0 C16 0.66 16 1.32 16 2 C16.99 2.33 17.98 2.66 19 3 C12.263 3.11 5.7 2.701 -1 2 C-0.67 1.34 -0.34 0.68 0 0 Z " fill="#E2F3F7" transform="translate(188,44)"/>
<path d="M0 0 C0.66 0.99 1.32 1.98 2 3 C1.67 3.99 1.34 4.98 1 6 C0.01 5.01 -0.98 4.02 -2 3 C-2 3.99 -2 4.98 -2 6 C-3.98 6 -5.96 6 -8 6 C-8 4.35 -8 2.7 -8 1 C-5.36 0.67 -2.72 0.34 0 0 Z " fill="#0A2D40" transform="translate(164,129)"/>
<path d="M0 0 C-0.33 1.98 -0.66 3.96 -1 6 C-3.312 6.625 -3.312 6.625 -6 7 C-6.99 6.34 -7.98 5.68 -9 5 C-8.01 4.34 -7.02 3.68 -6 3 C-6.66 2.67 -7.32 2.34 -8 2 C-8 1.34 -8 0.68 -8 0 C-5.138 -1.431 -3.066 -0.6 0 0 Z " fill="#083046" transform="translate(208,122)"/>
<path d="M0 0 C0.33 1.32 0.66 2.64 1 4 C0.01 4.33 -0.98 4.66 -2 5 C-1.67 6.98 -1.34 8.96 -1 11 C0.65 9.68 2.3 8.36 4 7 C4 11 4 11 2.5 12.75 C2.252 12.956 2.252 12.956 1 14 C0.01 13.67 -0.98 13.34 -2 13 C-2 12.01 -2 11.02 -2 10 C-2.66 10 -3.32 10 -4 10 C-2.998 6.207 -2.19 3.285 0 0 Z " fill="#1E455E" transform="translate(32,104)"/>
<path d="M0 0 C1.072 0.248 2.145 0.495 3.25 0.75 C2.92 2.73 2.59 4.71 2.25 6.75 C1.92 6.09 1.59 5.43 1.25 4.75 C0.26 5.08 -0.73 5.41 -1.75 5.75 C-1.75 5.09 -1.75 4.43 -1.75 3.75 C-3.07 3.42 -4.39 3.09 -5.75 2.75 C-5.75 3.41 -5.75 4.07 -5.75 4.75 C-6.41 4.42 -7.07 4.09 -7.75 3.75 C-5.152 0.32 -4.431 -0.295 0 0 Z " fill="#C5D8E0" transform="translate(146.75,86.25)"/>
<path d="M0 0 C1.32 0 2.64 0 4 0 C4 0.99 4 1.98 4 3 C6.31 3 8.62 3 11 3 C11.33 3.66 11.66 4.32 12 5 C9.855 5.165 9.855 5.165 -1 6 C-1.33 5.34 -1.66 4.68 -2 4 C-1.062 1.875 -1.062 1.875 0 0 Z " fill="#E5F4F8" transform="translate(153,111)"/>
<path d="M0 0 C0.99 0 1.98 0 3 0 C3.25 5.625 3.25 5.625 1 9 C-0.32 9 -1.64 9 -3 9 C-3.33 9.66 -3.66 10.32 -4 11 C-4 10.34 -4 9.68 -4 9 C-4.66 8.67 -5.32 8.34 -6 8 C-4 6 -4 6 -1.375 5.875 C-0.591 5.916 0.192 5.957 1 6 C1 5.34 1 4.68 1 4 C0.34 4 -0.32 4 -1 4 C-0.67 2.68 -0.34 1.36 0 0 Z " fill="#2E4956" transform="translate(129,120)"/>
<path d="M0 0 C-2.602 1.006 -5.206 2.005 -7.812 3 C-8.181 3.143 -8.181 3.143 -10.049 3.867 C-10.761 4.138 -11.473 4.409 -12.207 4.688 C-12.862 4.939 -13.516 5.19 -14.191 5.449 C-16 6 -16 6 -19 6 C-19.33 5.01 -19.66 4.02 -20 3 C-19.359 2.879 -18.719 2.758 -18.059 2.633 C-13.999 1.846 -10.009 1.057 -6.062 -0.188 C-3 -1 -3 -1 0 0 Z " fill="#0C283A" transform="translate(103,61)"/>
<path d="M0 0 C1.896 -0.027 3.792 -0.046 5.688 -0.062 C6.743 -0.074 7.799 -0.086 8.887 -0.098 C11.724 -0.009 14.244 0.351 17 1 C17 1.66 17 2.32 17 3 C16.258 2.979 15.515 2.959 14.75 2.938 C12 3 12 3 10.094 3.594 C7.486 4.1 6.18 3.575 3.75 2.562 C3.044 2.275 2.337 1.988 1.609 1.691 C1.078 1.463 0.547 1.235 0 1 C0 0.67 0 0.34 0 0 Z " fill="#234050" transform="translate(36,130)"/>
<path d="M0 0 C0 1.32 0 2.64 0 4 C-0.66 4 -1.32 4 -2 4 C-2 3.34 -2 2.68 -2 2 C-2.302 2.084 -2.302 2.084 -3.828 2.508 C-4.228 2.61 -4.228 2.61 -6.25 3.125 C-7.039 3.334 -7.828 3.543 -8.641 3.758 C-11.42 4.043 -12.659 3.45 -15 2 C-10.139 -0.592 -5.347 -0.187 0 0 Z " fill="#D9E9EF" transform="translate(223,109)"/>
<path d="M0 0 C1.141 3.422 1.098 6.087 1.062 9.688 C1.053 10.867 1.044 12.046 1.035 13.262 C1.024 14.165 1.012 15.069 1 16 C-0.32 16 -1.64 16 -3 16 C-2.886 13.895 -2.758 11.791 -2.625 9.688 C-2.555 8.516 -2.486 7.344 -2.414 6.137 C-2 3 -2 3 0 0 Z " fill="#0B2B3B" transform="translate(19,109)"/>
<path d="M0 0 C0 0.99 0 1.98 0 3 C-3.83 4.802 -6.781 5.196 -11 5 C-11 4.34 -11 3.68 -11 3 C-4.5 0 -4.5 0 0 0 Z " fill="#E0EEF2" transform="translate(88,134)"/>
<path d="M0 0 C2.31 0 4.62 0 7 0 C7 1.32 7 2.64 7 4 C7.33 4.99 7.66 5.98 8 7 C6.68 6.34 5.36 5.68 4 5 C4 4.01 4 3.02 4 2 C3.34 1.67 2.68 1.34 2 1 C2 2.98 2 4.96 2 7 C1.34 7 0.68 7 0 7 C0 4.69 0 2.38 0 0 Z " fill="#7C9CB0" transform="translate(175,129)"/>
<path d="M0 0 C0 0.66 0 1.32 0 2 C1.32 2.33 2.64 2.66 4 3 C2.5 4.562 2.5 4.562 0 6 C-2.774 5.968 -5.253 5.504 -8 5 C-3.227 0 -3.227 0 0 0 Z " fill="#153649" transform="translate(192,112)"/>
<path d="M0 0 C0 0.66 0 1.32 0 2 C-2.957 3.478 -5.742 3.06 -9 3 C-9 2.01 -9 1.02 -9 0 C-9.66 -0.33 -10.32 -0.66 -11 -1 C-6.723 -2.375 -4.161 -1.387 0 0 Z " fill="#C1D4DC" transform="translate(166,111)"/>
<path d="M0 0 C2.25 0.25 2.25 0.25 4 1 C4 1.66 4 2.32 4 3 C4.66 3 5.32 3 6 3 C6 3.66 6 4.32 6 5 C4.35 5.66 2.7 6.32 1 7 C1 6.34 1 5.68 1 5 C-0.65 4.67 -2.3 4.34 -4 4 C-2.25 1.938 -2.25 1.938 0 0 Z " fill="#D4E4E9" transform="translate(186,107)"/>
<path d="M0 0 C0.124 0.619 0.248 1.237 0.375 1.875 C1 4 1 4 3 6 C-2.625 8 -2.625 8 -6 8 C-6 8.66 -6 9.32 -6 10 C-6.66 9.67 -7.32 9.34 -8 9 C-7.67 8.34 -7.34 7.68 -7 7 C-6.34 7 -5.68 7 -5 7 C-4.918 6.402 -4.835 5.804 -4.75 5.188 C-3.795 2.403 -2.429 1.567 0 0 Z " fill="#DBE8EE" transform="translate(31,97)"/>
<path d="M0 0 C0.66 0 1.32 0 2 0 C2 1.32 2 2.64 2 4 C-2.074 6.037 -4.589 6.026 -9 5 C-9 4.01 -9 3.02 -9 2 C-8.443 2.021 -8.443 2.021 -5.625 2.125 C-2 2 -2 2 0 0 Z " fill="#10344D" transform="translate(111,54)"/>
<path d="M0 0 C-0.33 0.99 -0.66 1.98 -1 3 C-0.34 3.33 0.32 3.66 1 4 C0.67 4.66 0.34 5.32 0 6 C-1.32 5.67 -2.64 5.34 -4 5 C-4 4.34 -4 3.68 -4 3 C-5.65 2.67 -7.3 2.34 -9 2 C-4 -1.333 -4 -1.333 0 0 Z " fill="#163B4D" transform="translate(105,132)"/>
<path d="M0 0 C0.66 0.99 1.32 1.98 2 3 C2.99 3.66 3.98 4.32 5 5 C4.67 5.99 4.34 6.98 4 8 C3.34 7.67 2.68 7.34 2 7 C2.33 6.34 2.66 5.68 3 5 C2.175 5.495 2.175 5.495 -2 8 C-2.99 6.68 -3.98 5.36 -5 4 C-3.35 2.68 -1.7 1.36 0 0 Z " fill="#CFDCDE" transform="translate(123,107)"/>
<path d="M0 0 C2.31 0.66 4.62 1.32 7 2 C7 1.34 7 0.68 7 0 C7.99 0.33 8.98 0.66 10 1 C9.01 2.32 8.02 3.64 7 5 C7.66 5.33 8.32 5.66 9 6 C9 6.66 9 7.32 9 8 C8.01 7.835 8.01 7.835 3 7 C2.876 6.402 2.752 5.804 2.625 5.188 C2 3 2 3 0 0 Z " fill="#0E2F3E" transform="translate(169,107)"/>
<path d="M0 0 C0.33 0 0.66 0 1 0 C1 4 1 8 1 12 C0.34 12 -0.32 12 -1 12 C-1.33 12.99 -1.66 13.98 -2 15 C-2.66 14.67 -3.32 14.34 -4 14 C-4 13.34 -4 12.68 -4 12 C-3.34 12 -2.68 12 -2 12 C-2 9.03 -2 6.06 -2 3 C-1.34 3 -0.68 3 0 3 C0 2.01 0 1.02 0 0 Z " fill="#FAFEFE" transform="translate(221,53)"/>
<path d="M0 0 C-2.545 2.969 -5.49 4.362 -9 6 C-9 5.01 -9 4.02 -9 3 C-9.99 2.67 -10.98 2.34 -12 2 C-7.528 -0.662 -5.066 -1.327 0 0 Z M-5 0 C-4 2 -4 2 -4 2 Z " fill="#CFE3EB" transform="translate(81,139)"/>
<path d="M0 0 C3.829 1.453 5.121 3.429 7 7 C5.515 6.67 5.515 6.67 -2 5 C-2.33 5.66 -2.66 6.32 -3 7 C-2.67 5.35 -2.34 3.7 -2 2 C-1.34 2 -0.68 2 0 2 C0 1.34 0 0.68 0 0 Z " fill="#7597AB" transform="translate(192,129)"/>
<path d="M0 0 C0.33 1.32 0.66 2.64 1 4 C0.67 4.165 0.67 4.165 -1 5 C-0.34 5.66 0.32 6.32 1 7 C-0.98 7.66 -2.96 8.32 -5 9 C-4.67 7.35 -4.34 5.7 -4 4 C-5.32 3.67 -6.64 3.34 -8 3 C-2.25 0 -2.25 0 0 0 Z " fill="#1C3F57" transform="translate(69,79)"/>
<path d="M0 0 C0.66 0 1.32 0 2 0 C2 2.64 2 5.28 2 8 C0.02 8 -1.96 8 -4 8 C-4.33 7.34 -4.66 6.68 -5 6 C-4.361 5.381 -3.721 4.763 -3.062 4.125 C-1 2 -1 2 0 0 Z " fill="#1E4358" transform="translate(223,64)"/>
<path d="M0 0 C-1.93 0.892 -3.869 1.763 -5.812 2.625 C-6.891 3.112 -7.97 3.6 -9.082 4.102 C-10.045 4.398 -11.008 4.695 -12 5 C-12.99 4.34 -13.98 3.68 -15 3 C-14.67 2.34 -14.34 1.68 -14 1 C-11.855 0.332 -11.855 0.332 -9.188 -0.188 C-8.315 -0.367 -7.442 -0.546 -6.543 -0.73 C-4.026 -0.997 -2.383 -0.783 0 0 Z " fill="#1B2B38" transform="translate(86,134)"/>
<path d="M0 0 C0.362 0.097 0.362 0.097 2.195 0.59 C2.75 0.746 3.304 0.902 3.875 1.062 C3.545 1.722 3.215 2.382 2.875 3.062 C0.59 3.477 0.59 3.477 -2.188 3.688 C-3.107 3.762 -4.026 3.837 -4.973 3.914 C-5.328 3.939 -5.328 3.939 -7.125 4.062 C-6.75 2.125 -6.75 2.125 -6.125 0.062 C-3.578 -1.211 -2.697 -0.739 0 0 Z " fill="#0D2833" transform="translate(113.125,122.9375)"/>
<path d="M0 0 C0.66 0 1.32 0 2 0 C2.33 0.66 2.66 1.32 3 2 C3.99 2.33 4.98 2.66 6 3 C6 3.66 6 4.32 6 5 C5.34 5.66 4.68 6.32 4 7 C3.67 7.66 3.34 8.32 3 9 C1.35 7.35 -0.3 5.7 -2 4 C-1.34 4 -0.68 4 0 4 C0 2.68 0 1.36 0 0 Z " fill="#1B3A4E" transform="translate(32,121)"/>
<path d="M0 0 C1.746 2.619 2.387 4.038 3 7 C0.125 7.125 0.125 7.125 -3 7 C-3.66 6.34 -4.32 5.68 -5 5 C-3.35 3.35 -1.7 1.7 0 0 Z M-1 7 C-0.67 7.66 -0.34 8.32 0 9 C-0.66 8.67 -1.32 8.34 -2 8 C-1.67 7.67 -1.34 7.34 -1 7 Z " fill="#1C3C4C" transform="translate(38,98)"/>
<path d="M0 0 C1.65 0 3.3 0 5 0 C1.71 3.684 -1.601 5.841 -6 8 C-6.99 7.67 -7.98 7.34 -9 7 C-8.34 6.67 -7.68 6.34 -7 6 C-6.67 5.01 -6.34 4.02 -6 3 C-2.938 1.812 -2.938 1.812 0 1 C0 0.67 0 0.34 0 0 Z " fill="#152B3D" transform="translate(50,80)"/>
<path d="M0 0 C6.625 -0.25 6.625 -0.25 10 2 C8.421 2.533 6.836 3.051 5.25 3.562 C4.368 3.853 3.487 4.143 2.578 4.441 C-0.078 5.017 -1.47 4.892 -4 4 C-3.34 3.526 -2.68 3.051 -2 2.562 C-1.34 2.047 -0.68 1.531 0 1 C0 0.67 0 0.34 0 0 Z " fill="#0E2E40" transform="translate(121,51)"/>
<path d="M0 0 C0.986 0.302 1.972 0.603 2.988 0.914 C3.982 1.211 4.976 1.507 6 1.812 C6.38 1.932 6.38 1.932 8.301 2.539 C7.971 3.199 7.641 3.859 7.301 4.539 C2.374 5.001 -1.207 3.367 -5.699 1.539 C-2.699 -0.461 -2.699 -0.461 0 0 Z " fill="#143346" transform="translate(32.69921875,133.4609375)"/>
<path d="M0 0 C-0.32 0.382 -0.32 0.382 -1.938 2.312 C-4 5 -4 5 -5 8 C-4.34 8 -3.68 8 -3 8 C-3 8.66 -3 9.32 -3 10 C-4.65 9.67 -6.3 9.34 -8 9 C-7.719 7.519 -7.425 6.04 -7.125 4.562 C-6.963 3.739 -6.8 2.915 -6.633 2.066 C-6.424 1.384 -6.215 0.703 -6 0 C-3.509 -1.245 -2.589 -0.777 0 0 Z " fill="#DFF0F4" transform="translate(133,116)"/>
<path d="M0 0 C0.451 0.051 0.451 0.051 2.73 0.309 C3.418 0.392 4.105 0.476 4.812 0.562 C4.812 0.892 4.812 1.222 4.812 1.562 C3.162 1.892 1.512 2.222 -0.188 2.562 C-0.188 2.892 -0.188 3.222 -0.188 3.562 C-2.498 3.562 -4.808 3.562 -7.188 3.562 C-7.518 2.572 -7.847 1.583 -8.188 0.562 C-4.987 -0.504 -3.302 -0.386 0 0 Z " fill="#133245" transform="translate(168.1875,42.4375)"/>
<path d="M0 0 C0.33 0.66 0.66 1.32 1 2 C0.67 2.66 0.34 3.32 0 4 C-0.66 4 -1.32 4 -2 4 C-2 4.66 -2 5.32 -2 6 C-1.34 6 -0.68 6 0 6 C-0.33 7.32 -0.66 8.64 -1 10 C-1.99 9.67 -2.98 9.34 -4 9 C-4 9.66 -4 10.32 -4 11 C-4.66 11 -5.32 11 -6 11 C-5.67 9.02 -5.34 7.04 -5 5 C-4.34 5 -3.68 5 -3 5 C-3 4.34 -3 3.68 -3 3 C-2.34 3 -1.68 3 -1 3 C-0.67 2.01 -0.34 1.02 0 0 Z M-4 6 C-3.67 6.66 -3.34 7.32 -3 8 C-2.67 7.34 -2.34 6.68 -2 6 C-2.66 6 -3.32 6 -4 6 Z " fill="#D0E1E7" transform="translate(112,131)"/>
<path d="M0 0 C0.99 0.165 0.99 0.165 6 1 C5 3 5 3 2.496 3.852 C1.991 3.979 1.991 3.979 -0.562 4.625 C-1.574 4.885 -2.586 5.146 -3.629 5.414 C-4.411 5.607 -5.194 5.801 -6 6 C-6 5.34 -6 4.68 -6 4 C-4.35 3.67 -2.7 3.34 -1 3 C-0.67 2.01 -0.34 1.02 0 0 Z " fill="#E6F2F7" transform="translate(99,62)"/>
<path d="M0 0 C2 2 2 2 2.195 3.945 C2.13 5.964 2.065 7.982 2 10 C1.34 10.33 1.34 10.33 -2 12 C-2 9.36 -2 6.72 -2 4 C-1.34 4.66 -0.68 5.32 0 6 C0 4.02 0 2.04 0 0 Z " fill="#2E4A58" transform="translate(216,54)"/>
<path d="M0 0 C0.99 0.33 1.98 0.66 3 1 C2.746 2.482 2.471 3.961 2.188 5.438 C2.037 6.261 1.886 7.085 1.73 7.934 C1.489 8.616 1.248 9.297 1 10 C0.01 10.33 -0.98 10.66 -2 11 C-2.33 10.34 -2.66 9.68 -3 9 C-2.34 9 -1.68 9 -1 9 C-1.021 7.886 -1.041 6.773 -1.062 5.625 C-1 2 -1 2 0 0 Z " fill="#0A293B" transform="translate(50,152)"/>
<path d="M0 0 C0.33 0 0.66 0 1 0 C1 1.98 1 3.96 1 6 C0.01 6.33 -0.98 6.66 -2 7 C-2 7.66 -2 8.32 -2 9 C-0.35 9.33 1.3 9.66 3 10 C2.01 10.66 1.02 11.32 0 12 C-3 11 -3 11 -6 9 C-6 8.34 -6 7.68 -6 7 C-5.598 6.887 -5.598 6.887 -3.562 6.312 C-2.717 5.879 -1.871 5.446 -1 5 C-0.188 2.375 -0.188 2.375 0 0 Z " fill="#20495D" transform="translate(202,115)"/>
<path d="M0 0 C0.99 0.66 1.98 1.32 3 2 C2.412 5.024 1.773 8.018 1 11 C0.01 10.67 -0.98 10.34 -2 10 C-1.34 8.35 -0.68 6.7 0 5 C-0.66 4.67 -1.32 4.34 -2 4 C-2 3.01 -2 2.02 -2 1 C-1.34 0.67 -0.68 0.34 0 0 Z " fill="#143A4F" transform="translate(95,156)"/>
<path d="M0 0 C-0.33 1.65 -0.66 3.3 -1 5 C-2.98 5.33 -4.96 5.66 -7 6 C-6.688 4.125 -6.688 4.125 -6 2 C-3 0 -3 0 0 0 Z " fill="#E8F2F4" transform="translate(65,146)"/>
<path d="M0 0 C0 0.99 0 1.98 0 3 C0.784 3.103 1.567 3.206 2.375 3.312 C5 4 5 4 7 7 C6.448 6.693 5.897 6.386 5.328 6.07 C2.795 4.906 0.488 4.379 -2.25 3.875 C-3.142 3.707 -4.034 3.54 -4.953 3.367 C-5.291 3.307 -5.291 3.307 -7 3 C-4.746 0.746 -3.208 0 0 0 Z " fill="#153B50" transform="translate(95,134)"/>
<path d="M0 0 C-1.708 2.106 -2.521 2.938 -5.262 3.293 C-6.062 3.258 -6.863 3.223 -7.688 3.188 C-8.496 3.16 -9.304 3.133 -10.137 3.105 C-10.752 3.071 -11.366 3.036 -12 3 C-7.918 -0.353 -5.148 -1.655 0 0 Z " fill="#E9EAE8" transform="translate(85,131)"/>
<path d="M0 0 C0 0.66 0 1.32 0 2 C-0.33 2.33 -0.66 2.66 -1 3 C-0.691 3.072 -0.691 3.072 0.875 3.438 C3 4 3 4 5 5 C4.67 5.66 4.34 6.32 4 7 C2.332 6.676 0.665 6.341 -1 6 C-1.743 5.856 -2.485 5.711 -3.25 5.562 C-3.827 5.377 -4.405 5.191 -5 5 C-5.33 4.34 -5.66 3.68 -6 3 C-2.25 0 -2.25 0 0 0 Z " fill="#032D44" transform="translate(149,121)"/>
<path d="M0 0 C-2.972 1.981 -4.494 2.743 -8 3 C-10.312 1.562 -10.312 1.562 -12 0 C-7.225 -1.685 -4.553 -2.483 0 0 Z " fill="#CDDDE5" transform="translate(113,61)"/>
<path d="M0 0 C-1 1.5 -1 1.5 -3 3 C-5.799 3.395 -8.138 3.227 -11 3 C-11.66 2.34 -12.32 1.68 -13 1 C-8.591 -0.102 -4.516 -0.077 0 0 Z " fill="#203D4E" transform="translate(169,49)"/>
<path d="M0 0 C6.27 0.66 12.54 1.32 19 2 C19 2.33 19 2.66 19 3 C16.208 3.081 13.418 3.14 10.625 3.188 C9.831 3.213 9.037 3.238 8.219 3.264 C6.144 3.29 4.069 3.155 2 3 C1.34 2.01 0.68 1.02 0 0 Z " fill="#EEFDFD" transform="translate(41,133)"/>
<path d="M0 0 C1.32 0 2.64 0 4 0 C4.33 0.66 4.66 1.32 5 2 C7.562 2.625 7.562 2.625 10 3 C10 3.33 10 3.66 10 4 C6.04 4 2.08 4 -2 4 C-1.34 2.68 -0.68 1.36 0 0 Z " fill="#EFF8FB" transform="translate(208,112)"/>
<path d="M0 0 C4.999 0.476 7.978 2.032 12 5 C8.234 6.255 6.628 5.371 3 4 C3 3.34 3 2.68 3 2 C2.01 1.67 1.02 1.34 0 1 C0 0.67 0 0.34 0 0 Z " fill="#183A4D" transform="translate(204,48)"/>
<path d="M0 0 C1.32 0.66 2.64 1.32 4 2 C3.34 2 2.68 2 2 2 C2.33 3.32 2.66 4.64 3 6 C0.509 7.245 -0.411 6.777 -3 6 C-2.67 4.68 -2.34 3.36 -2 2 C-1.34 2 -0.68 2 0 2 C0 1.34 0 0.68 0 0 Z " fill="#183C4D" transform="translate(64,150)"/>
<path d="M0 0 C2 1 2 1 3 3 C2.67 3.495 2.67 3.495 1 6 C-0.65 5.67 -2.3 5.34 -4 5 C-4 4.01 -4 3.02 -4 2 C-2.125 0.938 -2.125 0.938 0 0 Z " fill="#244455" transform="translate(85,137)"/>
<path d="M0 0 C0.66 0 1.32 0 2 0 C2 0.99 2 1.98 2 3 C1.34 3 0.68 3 0 3 C0 3.99 0 4.98 0 6 C0.66 6 1.32 6 2 6 C2 6.99 2 7.98 2 9 C1.34 9.33 1.34 9.33 -2 11 C-2 6.916 -1.193 3.877 0 0 Z " fill="#072C3E" transform="translate(149,91)"/>
<path d="M0 0 C1.98 0 3.96 0 6 0 C5.01 1.32 5.01 1.32 0 8 C-0.66 6.68 -1.32 5.36 -2 4 C-1.01 3.34 -0.02 2.68 1 2 C0.67 1.34 0.34 0.68 0 0 Z " fill="#DBE9EE" transform="translate(113,133)"/>
<path d="M0 0 C0 2.31 0 4.62 0 7 C-0.33 6.34 -0.66 5.68 -1 5 C-2.98 5 -4.96 5 -7 5 C-6.34 4.67 -5.68 4.34 -5 4 C-4.67 3.01 -4.34 2.02 -4 1 C-2 0 -2 0 0 0 Z " fill="#0E374B" transform="translate(225,121)"/>
<path d="M0 0 C3.3 0 6.6 0 10 0 C9.67 0.99 9.34 1.98 9 3 C6.36 3.33 3.72 3.66 1 4 C0.67 2.68 0.34 1.36 0 0 Z " fill="#2A3B45" transform="translate(154,116)"/>
<path d="M0 0 C0.99 0.33 1.98 0.66 3 1 C2.34 2.65 1.68 4.3 1 6 C-0.32 5.67 -1.64 5.34 -3 5 C-2.625 3.062 -2.625 3.062 -2 1 C-1.34 0.67 -0.68 0.34 0 0 Z " fill="#EAF7F9" transform="translate(34,96)"/>
<path d="M0 0 C0 0.66 0 1.32 0 2 C-2.818 4.174 -4.219 5.087 -7.812 4.688 C-8.534 4.461 -9.256 4.234 -10 4 C-10 3.34 -10 2.68 -10 2 C-3.375 0 -3.375 0 0 0 Z " fill="#082D42" transform="translate(148,82)"/>
<path d="M0 0 C0.33 0.66 0.66 1.32 1 2 C1.99 2.33 2.98 2.66 4 3 C4 3.66 4 4.32 4 5 C1.69 5.33 -0.62 5.66 -3 6 C-2.67 4.68 -2.34 3.36 -2 2 C-1.34 2 -0.68 2 0 2 C0 1.34 0 0.68 0 0 Z " fill="#C4D8E0" transform="translate(216,65)"/>
<path d="M0 0 C0.629 0.021 0.629 0.021 3.812 0.125 C3.812 0.455 3.812 0.785 3.812 1.125 C1.502 1.125 -0.808 1.125 -3.188 1.125 C-3.188 2.775 -3.188 4.425 -3.188 6.125 C-4.507 5.795 -5.827 5.465 -7.188 5.125 C-7.188 4.135 -7.188 3.145 -7.188 2.125 C-4.099 0.066 -3.478 -0.114 0 0 Z " fill="#6991A5" transform="translate(159.1875,128.875)"/>
<path d="M0 0 C0.33 0.66 0.66 1.32 1 2 C1.66 2 2.32 2 3 2 C3 2.66 3 3.32 3 4 C3.66 4.33 4.32 4.66 5 5 C4.67 5.165 4.67 5.165 3 6 C0.64 5.064 -1.696 4.067 -4 3 C-2.68 2.01 -1.36 1.02 0 0 Z " fill="#1A3F48" transform="translate(114,119)"/>
<path d="M0 0 C0 1.65 0 3.3 0 5 C-2.375 5.625 -2.375 5.625 -5 6 C-5.66 5.34 -6.32 4.68 -7 4 C-2.25 0 -2.25 0 0 0 Z " fill="#28414F" transform="translate(225,114)"/>
<path d="M0 0 C-0.33 1.65 -0.66 3.3 -1 5 C-1.66 5 -2.32 5 -3 5 C-3.33 5.66 -3.66 6.32 -4 7 C-4 6.34 -4 5.68 -4 5 C-5.65 5.33 -7.3 5.66 -9 6 C-3.286 0 -3.286 0 0 0 Z " fill="#424C57" transform="translate(126,112)"/>
<path d="M0 0 C0.66 0.66 1.32 1.32 2 2 C-0.64 2.33 -3.28 2.66 -6 3 C-6 2.34 -6 1.68 -6 1 C-7.98 1 -9.96 1 -12 1 C-12 0.67 -12 0.34 -12 0 C-3.141 -1.329 -3.141 -1.329 0 0 Z " fill="#C4D5DC" transform="translate(76,133)"/>
<path d="M0 0 C0.66 0.33 1.32 0.66 2 1 C1.67 3.31 1.34 5.62 1 8 C-0.32 7.67 -1.64 7.34 -3 7 C-3 5.35 -3 3.7 -3 2 C-2.01 2 -1.02 2 0 2 C0 1.34 0 0.68 0 0 Z " fill="#042236" transform="translate(208,128)"/>
<path d="M0 0 C0.66 0.33 1.32 0.66 2 1 C2 1.66 2 2.32 2 3 C0.845 3.495 0.845 3.495 -5 6 C-5.66 5.34 -6.32 4.68 -7 4 C-5.188 2.438 -5.188 2.438 -3 1 C-2.01 1.33 -1.02 1.66 0 2 C0 1.34 0 0.68 0 0 Z " fill="#193547" transform="translate(64,73)"/>
<path d="M0 0 C2 1 2 1 4 4 C1.69 4.66 -0.62 5.32 -3 6 C-3.33 4.68 -3.66 3.36 -4 2 C-2.125 0.938 -2.125 0.938 0 0 Z " fill="#D2E0E4" transform="translate(81,159)"/>
<path d="M0 0 C2.31 0.165 2.31 0.165 14 1 C12 5 12 5 10 6 C9.67 5.01 9.34 4.02 9 3 C7.701 2.876 6.401 2.752 5.062 2.625 C2.848 2.414 2.848 2.414 1 2 C0.67 1.34 0.34 0.68 0 0 Z " fill="#042534" transform="translate(195,106)"/>
<path d="M0 0 C-2.245 2.245 -2.96 2.37 -6 2.75 C-6.351 2.799 -6.351 2.799 -8.125 3.047 C-10 3 -10 3 -12 1 C-3.964 -1.277 -3.964 -1.277 0 0 Z " fill="#293E52" transform="translate(146,54)"/>
<path d="M0 0 C2.993 1.098 3.846 1.677 5.25 4.625 C5.498 5.409 5.745 6.192 6 7 C5.01 7.66 4.02 8.32 3 9 C2.876 8.196 2.752 7.391 2.625 6.562 C2.522 6.14 2.522 6.14 2 4 C1.34 3.67 0.68 3.34 0 3 C0 2.01 0 1.02 0 0 Z " fill="#164059" transform="translate(83,148)"/>
<path d="M0 0 C1.32 0.66 2.64 1.32 4 2 C0.812 4.125 -1.265 4.502 -5 5 C-4.67 3.68 -4.34 2.36 -4 1 C-3.34 1.165 -3.34 1.165 0 2 C0 1.34 0 0.68 0 0 Z " fill="#0A2E42" transform="translate(120,136)"/>
<path d="M0 0 C0.99 0.165 0.99 0.165 6 1 C6 1.66 6 2.32 6 3 C6.66 3.33 7.32 3.66 8 4 C7.34 4.66 6.68 5.32 6 6 C5.34 5.34 4.68 4.68 4 4 C1.875 3.375 1.875 3.375 0 3 C0 2.01 0 1.02 0 0 Z " fill="#083044" transform="translate(95,134)"/>
<path d="M0 0 C0 1.98 0 3.96 0 6 C-0.66 6 -1.32 6 -2 6 C-2 5.34 -2 4.68 -2 4 C-3.32 3.34 -4.64 2.68 -6 2 C-2.25 0 -2.25 0 0 0 Z " fill="#092A3E" transform="translate(202,130)"/>
<path d="M0 0 C0.66 0 1.32 0 2 0 C2 0.66 2 1.32 2 2 C3.98 2.66 5.96 3.32 8 4 C8 4.66 8 5.32 8 6 C5.36 5.67 2.72 5.34 0 5 C0 3.35 0 1.7 0 0 Z " fill="#032E46" transform="translate(16,127)"/>
<path d="M0 0 C1.32 0 2.64 0 4 0 C5.354 2.709 5.065 5.009 5 8 C4.01 7.67 3.02 7.34 2 7 C1.67 6.01 1.34 5.02 1 4 C1.66 4 2.32 4 3 4 C2.01 2.68 1.02 1.36 0 0 Z " fill="#102A3F" transform="translate(180,128)"/>
<path d="M0 0 C2.31 0.33 4.62 0.66 7 1 C6.67 1.165 6.67 1.165 5 2 C5 3.32 5 4.64 5 6 C4.01 5.67 3.02 5.34 2 5 C2.33 4.01 2.66 3.02 3 2 C2.01 2 1.02 2 0 2 C0 1.34 0 0.68 0 0 Z " fill="#06283A" transform="translate(214,127)"/>
<path d="M0 0 C0.99 0.66 1.98 1.32 3 2 C2.67 3.65 2.34 5.3 2 7 C1.34 7 0.68 7 0 7 C0 6.34 0 5.68 0 5 C-0.66 5 -1.32 5 -2 5 C-2 4.34 -2 3.68 -2 3 C-1.34 3 -0.68 3 0 3 C0 2.01 0 1.02 0 0 Z " fill="#F8FDFD" transform="translate(25,121)"/>
<path d="M0 0 C1.98 0.66 3.96 1.32 6 2 C6 2.66 6 3.32 6 4 C7.32 3.67 8.64 3.34 10 3 C8.688 4.5 8.688 4.5 7 6 C6.01 6 5.02 6 4 6 C4 5.34 4 4.68 4 4 C2.68 3.34 1.36 2.68 0 2 C0 1.34 0 0.68 0 0 Z " fill="#082C3F" transform="translate(86,120)"/>
<path d="M0 0 C3.3 0 6.6 0 10 0 C10 0.33 10 0.66 10 1 C8.35 1 6.7 1 5 1 C5 1.66 5 2.32 5 3 C4.01 3.33 3.02 3.66 2 4 C1.34 3.67 0.68 3.34 0 3 C0 2.01 0 1.02 0 0 Z " fill="#374551" transform="translate(208,116)"/>
<path d="M0 0 C1.98 0.66 3.96 1.32 6 2 C3.64 4.097 2.454 4.969 -0.75 5.188 C-1.121 5.157 -1.121 5.157 -3 5 C-2.67 4.01 -2.34 3.02 -2 2 C-1.34 2 -0.68 2 0 2 C0 1.34 0 0.68 0 0 Z " fill="#183C52" transform="translate(101,116)"/>
<path d="M0 0 C2.31 0.33 4.62 0.66 7 1 C7 1.99 7 2.98 7 4 C6.01 4.33 5.02 4.66 4 5 C3.34 4.67 2.68 4.34 2 4 C2 3.34 2 2.68 2 2 C1.34 2 0.68 2 0 2 C0 1.34 0 0.68 0 0 Z " fill="#0D3C54" transform="translate(132,89)"/>
<path d="M0 0 C2.688 0.875 2.688 0.875 5 2 C5 2.66 5 3.32 5 4 C3.68 4.33 2.36 4.66 1 5 C1 4.34 1 3.68 1 3 C-0.32 2.67 -1.64 2.34 -3 2 C-2.01 1.34 -1.02 0.68 0 0 Z " fill="#1D3F50" transform="translate(98,66)"/>
<path d="M0 0 C0.33 0.66 0.66 1.32 1 2 C-0.32 2 -1.64 2 -3 2 C-2.67 2.66 -2.34 3.32 -2 4 C-3.65 4 -5.3 4 -7 4 C-7 3.01 -7 2.02 -7 1 C-4.537 -0.231 -2.72 -0.072 0 0 Z " fill="#073B5C" transform="translate(62,138)"/>
<path d="M0 0 C-1 2 -1 2 -4.062 3.125 C-4.547 3.269 -4.547 3.269 -7 4 C-7 2.68 -7 1.36 -7 0 C-4.333 -1.333 -2.833 -0.671 0 0 Z " fill="#1A323F" transform="translate(214,108)"/>
<path d="M0 0 C1.32 0 2.64 0 4 0 C4 0.66 4 1.32 4 2 C-1.476 7 -1.476 7 -4 7 C-4 6.34 -4 5.68 -4 5 C-3.34 5 -2.68 5 -2 5 C-2 4.34 -2 3.68 -2 3 C-1.34 3 -0.68 3 0 3 C0 2.01 0 1.02 0 0 Z " fill="#112838" transform="translate(27,96)"/>
<path d="M0 0 C2.468 1.152 4.048 2.048 6 4 C5.67 4.66 5.34 5.32 5 6 C3.68 5.67 2.36 5.34 1 5 C0.67 3.35 0.34 1.7 0 0 Z " fill="#083C58" transform="translate(48,90)"/>
<path d="M0 0 C2.31 0.33 4.62 0.66 7 1 C5 3 5 3 1.375 3.125 C0.261 3.084 -0.853 3.042 -2 3 C-1.34 2.01 -0.68 1.02 0 0 Z " fill="#E2EFF1" transform="translate(111,58)"/>
<path d="M0 0 C0.66 0.66 1.32 1.32 2 2 C1.34 2.33 1.34 2.33 -2 4 C-2 4.66 -2 5.32 -2 6 C-3.32 5.67 -4.64 5.34 -6 5 C-2.25 1.125 -2.25 1.125 0 0 Z " fill="#213F52" transform="translate(73,144)"/>
<path d="M0 0 C-0.66 1.32 -1.32 2.64 -2 4 C-2.33 3.01 -2.66 2.02 -3 1 C-3.33 1.66 -3.66 2.32 -4 3 C-4.99 2.67 -5.98 2.34 -7 2 C-7 1.34 -7 0.68 -7 0 C-3.99 -0.934 -3.133 -1.044 0 0 Z " fill="#1F3D4B" transform="translate(64,143)"/>
<path d="M0 0 C1.32 0.33 2.64 0.66 4 1 C2.68 2.32 1.36 3.64 0 5 C-0.99 4.34 -1.98 3.68 -3 3 C-2.67 2.34 -2.34 1.68 -2 1 C-1.34 1.33 -0.68 1.66 0 2 C0 1.34 0 0.68 0 0 Z " fill="#E7EAEE" transform="translate(108,140)"/>
<path d="M0 0 C0.99 0 1.98 0 3 0 C3 0.99 3 1.98 3 3 C2.34 3 1.68 3 1 3 C1 3.66 1 4.32 1 5 C1.99 5.33 2.98 5.66 4 6 C3.01 6.33 2.02 6.66 1 7 C-0.062 5.188 -0.062 5.188 -1 3 C-0.67 2.01 -0.34 1.02 0 0 Z " fill="#7094A7" transform="translate(214,129)"/>
<path d="M0 0 C0.33 0.99 0.66 1.98 1 3 C1.66 3.33 2.32 3.66 3 4 C2.361 4.289 1.721 4.578 1.062 4.875 C-1 6 -1 6 -2 8 C-2.99 7.67 -3.98 7.34 -5 7 C-3.35 4.69 -1.7 2.38 0 0 Z " fill="#D9E0E7" transform="translate(123,117)"/>
<path d="M0 0 C1.32 0.33 2.64 0.66 4 1 C3.67 1.99 3.34 2.98 3 4 C1.35 4.33 -0.3 4.66 -2 5 C-1.34 3.35 -0.68 1.7 0 0 Z " fill="#F1F7F9" transform="translate(117,112)"/>
<path d="M0 0 C0.99 0.33 1.98 0.66 3 1 C2.34 1 1.68 1 1 1 C0.752 1.619 0.505 2.237 0.25 2.875 C-1.206 5.351 -2.378 5.951 -5 7 C-5 5.68 -5 4.36 -5 3 C-4.361 2.876 -3.721 2.752 -3.062 2.625 C-2.722 2.522 -2.722 2.522 -1 2 C-0.67 1.34 -0.34 0.68 0 0 Z " fill="#F4FAFB" transform="translate(129,104)"/>
<path d="M0 0 C0.825 0.33 0.825 0.33 5 2 C2.637 4.526 1.335 5.888 -2 7 C-2 6.34 -2 5.68 -2 5 C-1.34 5 -0.68 5 0 5 C0 3.35 0 1.7 0 0 Z " fill="#1A3545" transform="translate(69,68)"/>
<path d="M0 0 C1.093 0.227 2.186 0.454 3.312 0.688 C-0.089 2.781 -2.74 2.867 -6.688 2.688 C-4.58 -0.411 -3.868 -0.328 0 0 Z " fill="#133745" transform="translate(95.6875,68.3125)"/>
<path d="M0 0 C3.3 0 6.6 0 10 0 C6.812 2.125 4.735 2.502 1 3 C0.67 2.01 0.34 1.02 0 0 Z " fill="#143139" transform="translate(83,64)"/>
<path d="M0 0 C0.33 0.66 0.66 1.32 1 2 C-0.98 2.33 -2.96 2.66 -5 3 C-5 2.34 -5 1.68 -5 1 C-5.99 0.67 -6.98 0.34 -8 0 C-4.979 -0.971 -2.995 -1.136 0 0 Z " fill="#CCE3EB" transform="translate(129,55)"/>
<path d="M0 0 C3.3 0 6.6 0 10 0 C10 0.66 10 1.32 10 2 C8.02 2.33 6.04 2.66 4 3 C4 2.34 4 1.68 4 1 C2.68 0.67 1.36 0.34 0 0 Z " fill="#D0E2EA" transform="translate(161,46)"/>
<path d="M0 0 C1.32 0.33 2.64 0.66 4 1 C2.812 2.5 2.812 2.5 1 4 C-1.688 4.188 -1.688 4.188 -4 4 C-3.67 3.34 -3.34 2.68 -3 2 C-2.01 2 -1.02 2 0 2 C0 1.34 0 0.68 0 0 Z " fill="#E6F4F6" transform="translate(75,162)"/>
<path d="M0 0 C-0.66 1.65 -1.32 3.3 -2 5 C-2.33 4.34 -2.66 3.68 -3 3 C-5.562 2.375 -5.562 2.375 -8 2 C-8 1.67 -8 1.34 -8 1 C-5.237 0.403 -2.84 0 0 0 Z " fill="#313F4A" transform="translate(113,129)"/>
<path d="M0 0 C0.66 0.33 1.32 0.66 2 1 C1.34 2.65 0.68 4.3 0 6 C-0.99 6 -1.98 6 -3 6 C-3 4.35 -3 2.7 -3 1 C-2.01 0.67 -1.02 0.34 0 0 Z " fill="#0A2A43" transform="translate(134,122)"/>
<path d="M0 0 C0.66 0.33 1.32 0.66 2 1 C0.196 4.265 -0.834 5.889 -4 8 C-3.502 4.312 -2.899 2.395 0 0 Z " fill="#B5C9D2" transform="translate(151,112)"/>
<path d="M0 0 C-0.33 0.99 -0.66 1.98 -1 3 C-3.31 3 -5.62 3 -8 3 C-6.231 -0.538 -3.704 0 0 0 Z " fill="#2D404C" transform="translate(220,111)"/>
<path d="M0 0 C-0.99 0.33 -1.98 0.66 -3 1 C-3 1.66 -3 2.32 -3 3 C-4.98 2.34 -6.96 1.68 -9 1 C-9 0.67 -9 0.34 -9 0 C-5.622 -0.845 -3.325 -1.108 0 0 Z " fill="#284657" transform="translate(155,52)"/>
<path d="M0 0 C0 0.66 0 1.32 0 2 C0.66 2.66 1.32 3.32 2 4 C-0.343 3.744 -2.678 3.407 -5 3 C-5.33 2.34 -5.66 1.68 -6 1 C-3 0 -3 0 0 0 Z " fill="#042F46" transform="translate(173,124)"/>
<path d="M0 0 C2 3 2 3 1.625 5.188 C1.419 5.786 1.213 6.384 1 7 C-0.65 7 -2.3 7 -4 7 C-2.68 4.69 -1.36 2.38 0 0 Z " fill="#FAFCFD" transform="translate(126,116)"/>
<path d="M0 0 C0 0.66 0 1.32 0 2 C-2.709 3.354 -5.009 3.065 -8 3 C-6.231 -0.538 -3.704 0 0 0 Z " fill="#213744" transform="translate(166,111)"/>
<path d="M0 0 C0.66 0.33 1.32 0.66 2 1 C2.33 1.99 2.66 2.98 3 4 C1.35 4.33 -0.3 4.66 -2 5 C-2.33 4.34 -2.66 3.68 -3 3 C-2.01 2.01 -1.02 1.02 0 0 Z " fill="#F6FCFD" transform="translate(184,110)"/>
<path d="M0 0 C0.99 0.33 1.98 0.66 3 1 C2.67 2.65 2.34 4.3 2 6 C1.67 5.34 1.34 4.68 1 4 C0.01 3.67 -0.98 3.34 -2 3 C-1.34 2.01 -0.68 1.02 0 0 Z " fill="#25404E" transform="translate(177,109)"/>
<path d="M0 0 C0 3.517 -0.824 4.371 -3 7 C-4.32 6.67 -5.64 6.34 -7 6 C-4.69 4.02 -2.38 2.04 0 0 Z " fill="#DAE5E9" transform="translate(131,100)"/>
<path d="M0 0 C0.99 0 1.98 0 3 0 C2.34 1.65 1.68 3.3 1 5 C0.01 4.67 -0.98 4.34 -2 4 C-1.34 2.68 -0.68 1.36 0 0 Z " fill="#E7F3F7" transform="translate(29,103)"/>
<path d="M0 0 C0.66 0.33 1.32 0.66 2 1 C2 1.99 2 2.98 2 4 C-0.64 4.66 -3.28 5.32 -6 6 C-4 4 -2 2 0 0 Z " fill="#22474F" transform="translate(45,92)"/>
<path d="M0 0 C0.99 0.33 1.98 0.66 3 1 C3.33 1.99 3.66 2.98 4 4 C2.02 4.66 0.04 5.32 -2 6 C-2 3 -2 3 0 1 C0 0.67 0 0.34 0 0 Z " fill="#1A3D4E" transform="translate(81,64)"/>
<path d="M0 0 C0.66 0 1.32 0 2 0 C2 1.32 2 2.64 2 4 C0.35 4.33 -1.3 4.66 -3 5 C-1.125 1.125 -1.125 1.125 0 0 Z " fill="#0C2B3F" transform="translate(111,54)"/>
<path d="M0 0 C1.98 0 3.96 0 6 0 C6 0.99 6 1.98 6 3 C3.69 3 1.38 3 -1 3 C-0.67 2.01 -0.34 1.02 0 0 Z " fill="#D5E6EC" transform="translate(204,45)"/>
<path d="M0 0 C0.99 0.165 0.99 0.165 6 1 C5.505 1.495 5.505 1.495 3 4 C2.01 3.67 1.02 3.34 0 3 C0 2.01 0 1.02 0 0 Z " fill="#F0F7F8" transform="translate(87,156)"/>
<path d="M0 0 C1.32 0 2.64 0 4 0 C4.33 0.99 4.66 1.98 5 3 C3.35 3 1.7 3 0 3 C-0.33 3.66 -0.66 4.32 -1 5 C-0.67 3.35 -0.34 1.7 0 0 Z " fill="#507186" transform="translate(190,131)"/>
<path d="M0 0 C2.343 0.256 4.678 0.593 7 1 C7.33 1.66 7.66 2.32 8 3 C7.34 3.66 6.68 4.32 6 5 C3.981 3.696 1.981 2.362 0 1 C0 0.67 0 0.34 0 0 Z " fill="#164158" transform="translate(19,128)"/>
<path d="M0 0 C0 0.99 0 1.98 0 3 C-1.32 3 -2.64 3 -4 3 C-4 2.34 -4 1.68 -4 1 C-4.66 0.67 -5.32 0.34 -6 0 C-3.509 -1.245 -2.589 -0.777 0 0 Z " fill="#092D3D" transform="translate(40,127)"/>
<path d="M0 0 C0.825 0.33 0.825 0.33 5 2 C2.861 4.139 1.867 4.427 -1 5 C-1.33 4.01 -1.66 3.02 -2 2 C-1.34 2 -0.68 2 0 2 C0 1.34 0 0.68 0 0 Z " fill="#D0E5EE" transform="translate(166,111)"/>
<path d="M0 0 C1.98 0 3.96 0 6 0 C6 0.66 6 1.32 6 2 C6.99 2.33 7.98 2.66 9 3 C2.848 2.414 2.848 2.414 1 2 C0.67 1.34 0.34 0.68 0 0 Z " fill="#3C5763" transform="translate(193,111)"/>
<path d="M0 0 C0.825 0.165 0.825 0.165 5 1 C5 2.32 5 3.64 5 5 C3.062 4.188 3.062 4.188 1 3 C0.67 2.01 0.34 1.02 0 0 Z " fill="#1B3C50" transform="translate(154,105)"/>
<path d="M0 0 C0 0.66 0 1.32 0 2 C0.99 2.33 1.98 2.66 3 3 C1.35 3.33 -0.3 3.66 -2 4 C-2 3.34 -2 2.68 -2 2 C-2.99 1.67 -3.98 1.34 -5 1 C-3 0 -3 0 0 0 Z " fill="#CBDDE5" transform="translate(75,72)"/>
<path d="M0 0 C0 0.99 0 1.98 0 3 C-1.65 3.33 -3.3 3.66 -5 4 C-5.33 3.01 -5.66 2.02 -6 1 C-3.924 0.447 -2.156 0 0 0 Z " fill="#1C3A50" transform="translate(122,59)"/>
<path d="M0 0 C0 2.31 0 4.62 0 7 C-2.784 5.608 -2.979 3.844 -4 1 C-2 0 -2 0 0 0 Z " fill="#254357" transform="translate(225,49)"/>
<path d="M0 0 C0.66 0.33 1.32 0.66 2 1 C2 2.32 2 3.64 2 5 C0.35 4.67 -1.3 4.34 -3 4 C-3 3.34 -3 2.68 -3 2 C-2.01 1.34 -1.02 0.68 0 0 Z " fill="#254052" transform="translate(90,159)"/>
<path d="M0 0 C0 0.66 0 1.32 0 2 C-1.98 2 -3.96 2 -6 2 C-6.33 1.34 -6.66 0.68 -7 0 C-3.867 -1.044 -3.01 -0.934 0 0 Z " fill="#0B3037" transform="translate(34,134)"/>
<path d="M0 0 C0.99 0.33 1.98 0.66 3 1 C3 1.66 3 2.32 3 3 C0.043 4.478 -2.742 4.06 -6 4 C-6 3.67 -6 3.34 -6 3 C-4.02 3 -2.04 3 0 3 C0 2.01 0 1.02 0 0 Z " fill="#6F96AA" transform="translate(162,132)"/>
<path d="M0 0 C0.66 0.165 0.66 0.165 4 1 C4 1.66 4 2.32 4 3 C3.34 3 2.68 3 2 3 C2 3.66 2 4.32 2 5 C1.01 4.67 0.02 4.34 -1 4 C-0.67 2.68 -0.34 1.36 0 0 Z " fill="#DBEBEF" transform="translate(35,130)"/>
<path d="M0 0 C0.66 0.165 0.66 0.165 4 1 C4 1.99 4 2.98 4 4 C2.35 4 0.7 4 -1 4 C-0.67 2.68 -0.34 1.36 0 0 Z " fill="#132F3F" transform="translate(107,123)"/>
<path d="M0 0 C-0.33 0.99 -0.66 1.98 -1 3 C-4.3 2.67 -7.6 2.34 -11 2 C-11 1.67 -11 1.34 -11 1 C-9.542 0.832 -8.083 0.666 -6.625 0.5 C-5.813 0.407 -5.001 0.314 -4.164 0.219 C-2 0 -2 0 0 0 Z " fill="#C0DFE8" transform="translate(169,119)"/>
<path d="M0 0 C1.32 0.99 2.64 1.98 4 3 C3.67 3.99 3.34 4.98 3 6 C2.01 5.67 1.02 5.34 0 5 C0.33 4.34 0.66 3.68 1 3 C0.34 3 -0.32 3 -1 3 C-0.67 2.01 -0.34 1.02 0 0 Z " fill="#255061" transform="translate(131,117)"/>
<path d="M0 0 C-2.312 1.562 -2.312 1.562 -5 3 C-5.99 2.67 -6.98 2.34 -8 2 C-8 1.34 -8 0.68 -8 0 C-2.25 -1.125 -2.25 -1.125 0 0 Z " fill="#0C3D54" transform="translate(145,113)"/>
<path d="M0 0 C0.66 0.33 1.32 0.66 2 1 C1.34 2.32 0.68 3.64 0 5 C-1.32 4.01 -2.64 3.02 -4 2 C-2.125 0.938 -2.125 0.938 0 0 Z " fill="#244255" transform="translate(35,90)"/>
<path d="M0 0 C1 3 1 3 0 6 C-0.99 6.33 -1.98 6.66 -3 7 C-3.33 6.34 -3.66 5.68 -4 5 C-3.67 4.01 -3.34 3.02 -3 2 C-2.01 2 -1.02 2 0 2 C0 1.34 0 0.68 0 0 Z " fill="#1A3A4A" transform="translate(43,83)"/>
<path d="M0 0 C0.99 0.33 1.98 0.66 3 1 C2.546 1.433 2.093 1.866 1.625 2.312 C0 4 0 4 -2 7 C-2.125 4.625 -2.125 4.625 -2 2 C-1.34 1.34 -0.68 0.68 0 0 Z " fill="#294250" transform="translate(55,149)"/>
<path d="M0 0 C0.66 0.33 0.66 0.33 4 2 C3.67 2.99 3.34 3.98 3 5 C2.01 4.67 1.02 4.34 0 4 C0 2.68 0 1.36 0 0 Z " fill="#072C41" transform="translate(87,149)"/>
<path d="M0 0 C0.66 0 1.32 0 2 0 C2 0.66 2 1.32 2 2 C2.66 2 3.32 2 4 2 C3.34 3.32 2.68 4.64 2 6 C1.876 5.361 1.752 4.721 1.625 4.062 C1.522 3.722 1.522 3.722 1 2 C0.34 1.67 -0.32 1.34 -1 1 C-0.67 0.67 -0.34 0.34 0 0 Z " fill="#D3DBDD" transform="translate(64,144)"/>
<path d="M0 0 C2.64 0.33 5.28 0.66 8 1 C8 1.33 8 1.66 8 2 C5.36 2.33 2.72 2.66 0 3 C0 2.01 0 1.02 0 0 Z " fill="#2C4554" transform="translate(69,130)"/>
<path d="M0 0 C2.125 0.938 2.125 0.938 4 2 C3.01 2.33 2.02 2.66 1 3 C-0.688 4.562 -0.688 4.562 -2 6 C-2 4.35 -2 2.7 -2 1 C-1.34 0.67 -0.68 0.34 0 0 Z " fill="#D4E3E6" transform="translate(95,124)"/>
<path d="M0 0 C0.949 0.351 1.897 0.701 2.875 1.062 C2.215 1.392 2.215 1.392 -1.125 3.062 C-2.445 2.073 -3.765 1.082 -5.125 0.062 C-3.125 -0.938 -3.125 -0.938 0 0 Z " fill="#CDDFE4" transform="translate(106.125,120.9375)"/>
<path d="M0 0 C-0.33 0.495 -0.33 0.495 -2 3 C-2.99 2.67 -3.98 2.34 -5 2 C-5.33 1.34 -5.66 0.68 -6 0 C-3 -1 -3 -1 0 0 Z " fill="#072D39" transform="translate(115,112)"/>
<path d="M0 0 C0.99 0 1.98 0 3 0 C2.67 1.32 2.34 2.64 2 4 C1.01 4 0.02 4 -1 4 C-0.67 2.68 -0.34 1.36 0 0 Z " fill="#EAF3F6" transform="translate(201,109)"/>
<path d="M0 0 C1.32 0 2.64 0 4 0 C4 0.66 4 1.32 4 2 C3.34 2 2.68 2 2 2 C1.67 2.99 1.34 3.98 1 5 C0.01 4.01 -0.98 3.02 -2 2 C-1.34 2 -0.68 2 0 2 C0 1.34 0 0.68 0 0 Z " fill="#264253" transform="translate(22,102)"/>
<path d="M0 0 C0.33 0.66 0.66 1.32 1 2 C0.01 2.99 -0.98 3.98 -2 5 C-2.99 4.67 -3.98 4.34 -5 4 C-3.35 2.68 -1.7 1.36 0 0 Z " fill="#B4C1C9" transform="translate(31,97)"/>
<path d="M0 0 C0.33 1.32 0.66 2.64 1 4 C-1.31 3.67 -3.62 3.34 -6 3 C-2.25 0 -2.25 0 0 0 Z " fill="#DAEBF0" transform="translate(66,76)"/>
<path d="M0 0 C0 0.99 0 1.98 0 3 C-1.65 3 -3.3 3 -5 3 C-5.33 2.34 -5.66 1.68 -6 1 C-3.924 0.447 -2.156 0 0 0 Z " fill="#243D49" transform="translate(78,165)"/>
<path d="M0 0 C2 3 2 3 3 6 C1.68 5.34 0.36 4.68 -1 4 C-1 1 -1 1 0 0 Z " fill="#67889D" transform="translate(180,130)"/>
<path d="M0 0 C1.32 0 2.64 0 4 0 C4.33 0.99 4.66 1.98 5 3 C3.35 3 1.7 3 0 3 C0 2.01 0 1.02 0 0 Z " fill="#315064" transform="translate(168,130)"/>
<path d="M0 0 C0.33 1.32 0.66 2.64 1 4 C2.32 4.33 3.64 4.66 5 5 C3.35 5.33 1.7 5.66 0 6 C-1.125 2.25 -1.125 2.25 0 0 Z " fill="#EFF4F9" transform="translate(29,126)"/>
<path d="M0 0 C0.99 0 1.98 0 3 0 C2.67 1.32 2.34 2.64 2 4 C1.01 4 0.02 4 -1 4 C-0.67 2.68 -0.34 1.36 0 0 Z " fill="#233C4C" transform="translate(129,120)"/>
<path d="M0 0 C-0.33 0.99 -0.66 1.98 -1 3 C-2.65 2.67 -4.3 2.34 -6 2 C-3 0 -3 0 0 0 Z " fill="#F1F9FB" transform="translate(111,119)"/>
<path d="M0 0 C0.33 0.99 0.66 1.98 1 3 C3.062 3.688 3.062 3.688 5 4 C4.34 4.33 4.34 4.33 1 6 C0 5 0 5 -0.062 2.438 C-0.042 1.633 -0.021 0.829 0 0 Z " fill="#1C4051" transform="translate(114,107)"/>
<path d="M0 0 C0.33 0 0.66 0 1 0 C1 1.65 1 3.3 1 5 C-0.32 5.33 -1.64 5.66 -3 6 C-2.01 4.02 -1.02 2.04 0 0 Z " fill="#375460" transform="translate(147,93)"/>
<path d="M0 0 C1.32 0 2.64 0 4 0 C4.33 0.99 4.66 1.98 5 3 C3.68 3 2.36 3 1 3 C0.67 2.01 0.34 1.02 0 0 Z " fill="#0B2D45" transform="translate(61,83)"/>
<path d="M0 0 C0.66 0.33 1.32 0.66 2 1 C2 1.66 2 2.32 2 3 C0.35 3.33 -1.3 3.66 -3 4 C-3 3.01 -3 2.02 -3 1 C-2.01 0.67 -1.02 0.34 0 0 Z " fill="#223B49" transform="translate(116,54)"/>
<path d="M0 0 C0.66 1.32 1.32 2.64 2 4 C0.02 4 -1.96 4 -4 4 C-2.68 2.68 -1.36 1.36 0 0 Z " fill="#233F4E" transform="translate(100,152)"/>
<path d="M0 0 C0.33 0.66 0.66 1.32 1 2 C1.99 2.33 2.98 2.66 4 3 C3.34 3.33 3.34 3.33 0 5 C-0.33 4.01 -0.66 3.02 -1 2 C-0.67 1.34 -0.34 0.68 0 0 Z " fill="#073354" transform="translate(82,149)"/>
<path d="M0 0 C0 1.65 0 3.3 0 5 C-1.32 4.34 -2.64 3.68 -4 3 C-1.125 0 -1.125 0 0 0 Z " fill="#1F3B4A" transform="translate(120,133)"/>
<path d="M0 0 C0.99 0.33 1.98 0.66 3 1 C2.67 1.66 2.34 2.32 2 3 C0.02 3 -1.96 3 -4 3 C-2.188 1.438 -2.188 1.438 0 0 Z " fill="#F3F7F7" transform="translate(77,131)"/>
<path d="M0 0 C0.825 0.165 0.825 0.165 5 1 C5 1.66 5 2.32 5 3 C3.35 3 1.7 3 0 3 C0 2.01 0 1.02 0 0 Z " fill="#295061" transform="translate(197,127)"/>
<path d="M0 0 C0.99 0.66 1.98 1.32 3 2 C2.34 2 1.68 2 1 2 C0.67 2.66 0.34 3.32 0 4 C-1.65 3.67 -3.3 3.34 -5 3 C-2 1 -2 1 0 0 Z " fill="#324753" transform="translate(105,124)"/>
<path d="M0 0 C0.99 0 1.98 0 3 0 C2.67 0.99 2.34 1.98 2 3 C0.35 3.33 -1.3 3.66 -3 4 C-2.67 3.34 -2.34 2.68 -2 2 C-1.34 2 -0.68 2 0 2 C0 1.34 0 0.68 0 0 Z " fill="#23485B" transform="translate(149,121)"/>
<path d="M0 0 C1.32 0 2.64 0 4 0 C4 1.32 4 2.64 4 4 C3.34 4 2.68 4 2 4 C2 3.34 2 2.68 2 2 C1.34 2 0.68 2 0 2 C0 1.34 0 0.68 0 0 Z " fill="#072D32" transform="translate(115,119)"/>
<path d="M0 0 C0.66 0 1.32 0 2 0 C2 0.66 2 1.32 2 2 C3.32 2.33 4.64 2.66 6 3 C4.02 3.33 2.04 3.66 0 4 C0 2.68 0 1.36 0 0 Z " fill="#194351" transform="translate(190,112)"/>
<path d="M0 0 C0.33 0 0.66 0 1 0 C1 1.65 1 3.3 1 5 C-0.32 5.33 -1.64 5.66 -3 6 C-2.01 4.02 -1.02 2.04 0 0 Z " fill="#284156" transform="translate(140,104)"/>
<path d="M0 0 C0.66 0 1.32 0 2 0 C2.33 1.32 2.66 2.64 3 4 C1.68 4 0.36 4 -1 4 C-0.67 2.68 -0.34 1.36 0 0 Z " fill="#06323F" transform="translate(47,91)"/>
<path d="M0 0 C1.65 0.33 3.3 0.66 5 1 C4.67 1.66 4.34 2.32 4 3 C2.35 3 0.7 3 -1 3 C-0.67 2.01 -0.34 1.02 0 0 Z " fill="#0E2B41" transform="translate(145,53)"/>
<path d="M0 0 C0.66 0 1.32 0 2 0 C2 1.32 2 2.64 2 4 C0.68 3.67 -0.64 3.34 -2 3 C-1.34 2.67 -0.68 2.34 0 2 C0 1.34 0 0.68 0 0 Z " fill="#F2FBFB" transform="translate(58,162)"/>
<path d="M0 0 C0.99 0.66 1.98 1.32 3 2 C2 3 2 3 -0.562 3.062 C-0.965 3.052 -0.965 3.052 -3 3 C-2.01 2.01 -1.02 1.02 0 0 Z " fill="#233D4A" transform="translate(95,156)"/>
<path d="M0 0 C1.32 0 2.64 0 4 0 C3.67 0.99 3.34 1.98 3 3 C1.68 2.34 0.36 1.68 -1 1 C-0.67 0.67 -0.34 0.34 0 0 Z " fill="#0E2D3F" transform="translate(87,137)"/>
<path d="M0 0 C0.99 0 1.98 0 3 0 C3.33 0.99 3.66 1.98 4 3 C3.01 2.835 3.01 2.835 -2 2 C-1.34 1.34 -0.68 0.68 0 0 Z " fill="#2A4658" transform="translate(90,135)"/>
<path d="M0 0 C0.825 0.33 0.825 0.33 5 2 C4.01 2.66 3.02 3.32 2 4 C1.01 3.34 0.02 2.68 -1 2 C-0.67 1.34 -0.34 0.68 0 0 Z " fill="#274050" transform="translate(72,135)"/>
<path d="M0 0 C1.65 1.32 3.3 2.64 5 4 C3.35 4 1.7 4 0 4 C0 2.68 0 1.36 0 0 Z " fill="#DEE6EC" transform="translate(30,126)"/>
<path d="M0 0 C0.99 0.33 1.98 0.66 3 1 C3 1.99 3 2.98 3 4 C2.01 4 1.02 4 0 4 C-0.33 3.01 -0.66 2.02 -1 1 C-0.67 0.67 -0.34 0.34 0 0 Z " fill="#163A4F" transform="translate(88,123)"/>
<path d="M0 0 C1.65 0 3.3 0 5 0 C5 0.99 5 1.98 5 3 C4.01 3 3.02 3 2 3 C2 2.34 2 1.68 2 1 C1.34 0.67 0.68 0.34 0 0 Z " fill="#2B485A" transform="translate(168,121)"/>
<path d="M0 0 C1.32 0.66 2.64 1.32 4 2 C3.175 2.495 3.175 2.495 -1 5 C-0.67 3.35 -0.34 1.7 0 0 Z " fill="#CEDCE4" transform="translate(178,117)"/>
<path d="M0 0 C0.33 0.99 0.66 1.98 1 3 C-2 3 -2 3 -5 1 C-2 0 -2 0 0 0 Z " fill="#013249" transform="translate(142,115)"/>
<path d="M0 0 C0.99 0.33 1.98 0.66 3 1 C2.67 1.99 2.34 2.98 2 4 C0.68 3.34 -0.64 2.68 -2 2 C-1.34 1.34 -0.68 0.68 0 0 Z " fill="#1B3F4C" transform="translate(193,105)"/>
<path d="M0 0 C3.875 1.75 3.875 1.75 5 4 C3.062 3.688 3.062 3.688 1 3 C0.67 2.01 0.34 1.02 0 0 Z " fill="#0E3043" transform="translate(50,89)"/>
<path d="M0 0 C0.66 0 1.32 0 2 0 C2 1.32 2 2.64 2 4 C1.01 4 0.02 4 -1 4 C-0.67 2.68 -0.34 1.36 0 0 Z " fill="#1D394D" transform="translate(73,76)"/>
<path d="M0 0 C1.32 0.33 2.64 0.66 4 1 C4 1.66 4 2.32 4 3 C2.68 3 1.36 3 0 3 C0 2.01 0 1.02 0 0 Z " fill="#EAF6F7" transform="translate(75,71)"/>
<path d="M0 0 C0.99 0.165 0.99 0.165 6 1 C5.67 1.66 5.34 2.32 5 3 C4.175 2.67 4.175 2.67 0 1 C0 0.67 0 0.34 0 0 Z " fill="#D8E9EF" transform="translate(99,62)"/>
<path d="M0 0 C0.99 0.66 1.98 1.32 3 2 C1.125 2.625 1.125 2.625 -1 3 C-1.66 2.34 -2.32 1.68 -3 1 C-2.01 0.67 -1.02 0.34 0 0 Z " fill="#062D46" transform="translate(99,155)"/>
<path d="M0 0 C0.66 0.33 1.32 0.66 2 1 C1.67 1.99 1.34 2.98 1 4 C0.01 3.67 -0.98 3.34 -2 3 C-1.34 2.01 -0.68 1.02 0 0 Z " fill="#CFDEE2" transform="translate(90,153)"/>
<path d="M0 0 C0.66 0 1.32 0 2 0 C2 0.99 2 1.98 2 3 C1.34 3 0.68 3 0 3 C-0.33 3.66 -0.66 4.32 -1 5 C-0.67 3.35 -0.34 1.7 0 0 Z " fill="#17374A" transform="translate(190,128)"/>
<path d="M0 0 C1.32 0.33 2.64 0.66 4 1 C3.01 1.99 2.02 2.98 1 4 C0.67 2.68 0.34 1.36 0 0 Z " fill="#CEE3E8" transform="translate(118,129)"/>
<path d="M0 0 C1.32 0 2.64 0 4 0 C4 0.99 4 1.98 4 3 C3.01 3 2.02 3 1 3 C0.67 2.01 0.34 1.02 0 0 Z " fill="#C3D8E3" transform="translate(106,127)"/>
<path d="M0 0 C1.32 0.33 2.64 0.66 4 1 C4 1.66 4 2.32 4 3 C2.68 2.67 1.36 2.34 0 2 C0 1.34 0 0.68 0 0 Z " fill="#1A323F" transform="translate(20,126)"/>
<path d="M0 0 C0.66 0 1.32 0 2 0 C1.67 0.66 1.34 1.32 1 2 C0.67 1.34 0.34 0.68 0 0 Z M-1 2 C-0.01 2.33 0.98 2.66 2 3 C1.67 3.66 1.34 4.32 1 5 C0.34 5 -0.32 5 -1 5 C-1 4.01 -1 3.02 -1 2 Z " fill="#294755" transform="translate(166,115)"/>
<path d="M0 0 C0.66 0 1.32 0 2 0 C1.34 1.32 0.68 2.64 0 4 C-0.66 4 -1.32 4 -2 4 C-1.34 2.68 -0.68 1.36 0 0 Z " fill="#1E2F34" transform="translate(124,112)"/>
<path d="M0 0 C0.66 0.33 1.32 0.66 2 1 C1.67 1.99 1.34 2.98 1 4 C0.01 3.67 -0.98 3.34 -2 3 C-2 2.34 -2 1.68 -2 1 C-1.34 0.67 -0.68 0.34 0 0 Z " fill="#173D55" transform="translate(109,113)"/>
<path d="M0 0 C0.66 0.33 0.66 0.33 4 2 C3.67 2.66 3.34 3.32 3 4 C2.01 3.67 1.02 3.34 0 3 C0 2.01 0 1.02 0 0 Z " fill="#163B4E" transform="translate(48,90)"/>
<path d="M0 0 C0.99 0 1.98 0 3 0 C3 0.99 3 1.98 3 3 C2.01 3.33 1.02 3.66 0 4 C0 2.68 0 1.36 0 0 Z " fill="#284659" transform="translate(136,90)"/>
<path d="M0 0 C2 1 2 1 3 3 C1.68 3.33 0.36 3.66 -1 4 C-0.67 2.68 -0.34 1.36 0 0 Z " fill="#0C2A42" transform="translate(76,75)"/>
<path d="M0 0 C0.825 0.165 0.825 0.165 5 1 C4.34 1.33 4.34 1.33 1 3 C0.67 2.01 0.34 1.02 0 0 Z " fill="#E8F5FA" transform="translate(113,58)"/>
<path d="M0 0 C0 0.66 0 1.32 0 2 C-1.32 2.33 -2.64 2.66 -4 3 C-4.33 2.34 -4.66 1.68 -5 1 C-3 0 -3 0 0 0 Z " fill="#E6FAFD" transform="translate(148,50)"/>

</svg>