<?xml version="1.0" encoding="UTF-8"?>
<!-- Generator: visioncortex VTracer 0.6.12 -->
<svg version="1.1" xmlns="http://www.w3.org/2000/svg" width="225" height="225">
<path d="M0 0 C74.25 0 148.5 0 225 0 C225 74.25 225 148.5 225 225 C150.75 225 76.5 225 0 225 C0 150.75 0 76.5 0 0 Z M22.156 90.309 C15.263 98.913 10.263 108.26 10.648 119.508 C11.431 125.054 13.484 129.484 17.438 133.438 C24.949 138.018 33.128 137.989 41.691 136.547 C43.479 136.099 45.245 135.562 47 135 C46.348 135.545 45.695 136.091 45.023 136.652 C38.163 142.572 31.463 148.438 29.875 157.75 C29.736 160.917 30.04 162.085 31.438 165.062 C34.361 167.273 36.336 167.603 39.98 167.359 C47.814 165.965 53.288 160.158 57.688 153.938 C57.899 153.642 57.899 153.642 58.971 152.146 C63.144 146.13 66.471 139.701 69.688 133.135 C70.079 132.351 70.469 131.568 70.871 130.762 C71.211 130.06 71.55 129.358 71.9 128.635 C73 127 73 127 76 126 C76 125.34 76 124.68 76 124 C75.34 124 74.68 124 74 124 C74.287 123.29 74.574 122.58 74.87 121.848 C76.187 118.587 77.5 115.325 78.812 112.062 C79.038 111.504 79.038 111.504 80.182 108.678 C82.146 103.788 84.101 98.892 85.887 93.934 C86.13 93.263 86.373 92.592 86.624 91.9 C87.071 89.643 86.704 88.168 86 86 C84.128 86.286 84.128 86.286 82 87 C80.444 89.613 79.113 92.14 77.812 94.875 C74.014 102.427 69.776 108.775 64 115 C63.196 115.884 62.391 116.769 61.562 117.68 C53.234 126.451 44.398 132.778 32 133.375 C26.844 133.242 24.051 132.224 20 129 C16.144 122.781 15.998 116.355 17.621 109.301 C25.424 84.989 50.018 70.223 71.329 59.153 C83.424 53.085 96.326 47.927 110 47.75 C111.196 47.724 112.392 47.698 113.625 47.672 C117.296 48.029 119.1 48.765 122 51 C125.755 57.258 125.117 62.364 123.453 69.27 C123.304 69.841 123.154 70.412 123 71 C124.32 71 125.64 71 127 71 C129.78 65.556 130.803 61.113 130 55 C128.229 49.786 125.753 47.674 121 45 C88.495 34.165 42.072 67.58 22.156 90.309 Z M141.938 106.75 C140 110 140 110 139.812 113.562 C141.335 117.968 143.137 119.449 147 122 C153.337 125.024 160.753 124.987 167.375 122.812 C171.888 120.871 174.141 118.094 176 113.562 C176 109.68 174.474 107.918 172 105 C162.782 99.431 149.945 98.5 141.938 106.75 Z M179 101 C179 108.59 179 116.18 179 124 C180.65 123.67 182.3 123.34 184 123 C184.33 119.7 184.66 116.4 185 113 C185.447 113.794 185.895 114.588 186.355 115.406 C186.658 115.917 186.658 115.917 188.188 118.5 C188.779 119.521 189.371 120.542 189.98 121.594 C192 124 192 124 194.5 124.719 C197 124 197 124 199.02 121.375 C199.611 120.261 200.203 119.148 200.812 118 C201.417 116.886 202.022 115.773 202.645 114.625 C202.868 114.192 202.868 114.192 204 112 C204.33 115.96 204.66 119.92 205 124 C206.65 123.67 208.3 123.34 210 123 C210 116.07 210 109.14 210 102 C208.35 101.67 206.7 101.34 205 101 C204.541 101.736 204.082 102.472 203.609 103.23 C202.996 104.206 202.382 105.182 201.75 106.188 C201.147 107.15 200.543 108.113 199.922 109.105 C198.084 111.874 196.116 114.44 194 117 C193.723 116.515 193.447 116.031 193.161 115.531 C191.897 113.343 190.606 111.172 189.312 109 C189.095 108.618 189.095 108.618 187.994 106.688 C187.559 105.966 187.124 105.244 186.676 104.5 C186.479 104.165 186.479 104.165 185.486 102.469 C184 101 184 101 179 101 Z M107 107 C106.625 107.615 106.25 108.23 105.863 108.863 C100.518 117.306 100.518 117.306 96 119 C92.688 119.188 92.688 119.188 90 119 C89.67 118.01 89.34 117.02 89 116 C90.258 116.082 91.516 116.165 92.812 116.25 C96.708 116.257 96.708 116.257 99.062 114.188 C100 112 100 112 99 109 C94.902 108.672 92.388 108.82 88.625 110.562 C85.326 113.626 85.17 115.59 85 120 C90.045 123.563 93.828 123.492 99.832 122.922 C104.453 121.577 106.133 119.058 108.535 115.031 C110 113 110 113 112.184 112.219 C112.783 112.147 113.382 112.074 114 112 C114.33 112.66 114.66 113.32 115 114 C115.99 113.67 116.98 113.34 118 113 C118 111.35 118 109.7 118 108 C117.007 108.016 117.007 108.016 112.043 108.098 C110 108 110 108 107 107 Z M118 113 C116.646 115.709 116.935 118.009 117 121 C121.481 123.616 125.068 123.188 130 122 C133.933 119.926 136.477 118.263 138 114 C134.607 114 134.241 114.383 131.75 116.438 C128.136 119.166 125.48 119.726 121 120 C121 119.01 121 118.02 121 117 C122.093 116.897 123.186 116.794 124.312 116.688 C128 116 128 116 129.938 114.688 C131 113 131 113 131 109 C125.151 108.603 122.292 108.577 118 113 Z M90 129 C94 130 94 130 94 130 Z M96 129 C96 131.31 96 133.62 96 136 C97.32 135.67 98.64 135.34 100 135 C99.01 135 98.02 135 97 135 C97 134.34 97 133.68 97 133 C97.99 132.67 98.98 132.34 100 132 C99.01 132 98.02 132 97 132 C97 131.34 97 130.68 97 130 C97.99 129.67 98.98 129.34 100 129 C98.68 129 97.36 129 96 129 Z M101 129 C101 131.31 101 133.62 101 136 C101.33 136 101.66 136 102 136 C102 134.02 102 132.04 102 130 C102.66 130 103.32 130 104 130 C104 130.66 104 131.32 104 132 C104.66 132 105.32 132 106 132 C105.67 131.01 105.34 130.02 105 129 C103.68 129 102.36 129 101 129 Z M107 129 C107 131.31 107 133.62 107 136 C107.33 136 107.66 136 108 136 C108 133.69 108 131.38 108 129 C107.67 129 107.34 129 107 129 Z M111 129 C109.938 130.812 109.938 130.812 109 133 C109.33 133.99 109.66 134.98 110 136 C110 135.34 110 134.68 110 134 C110.66 134.165 110.66 134.165 114 135 C113.625 132.562 113.625 132.562 113 130 C112.34 129.67 111.68 129.34 111 129 Z M115 129 C115.33 129.165 115.33 129.165 117 130 C117 131.98 117 133.96 117 136 C117.33 136 117.66 136 118 136 C118 133.69 118 131.38 118 129 C117.01 129 116.02 129 115 129 Z M121 129 C121 131.31 121 133.62 121 136 C121.33 136 121.66 136 122 136 C122 134.02 122 132.04 122 130 C122.66 130 123.32 130 124 130 C124.33 130.66 124.66 131.32 125 132 C125 131.01 125 130.02 125 129 C123.68 129 122.36 129 121 129 Z M127 129 C127 131.31 127 133.62 127 136 C127.66 135.01 128.32 134.02 129 133 C128.34 131.68 127.68 130.36 127 129 Z M132 129 C133 131 133 131 133 131 Z M140 129 C144 130 144 130 144 130 Z M149 129 C149.66 130.98 150.32 132.96 151 135 C151.33 135 151.66 135 152 135 C152 133.35 152 131.7 152 130 C151.01 129.67 150.02 129.34 149 129 Z M153 129 C153 131.31 153 133.62 153 136 C153.66 135.34 154.32 134.68 155 134 C155.33 133.67 155.66 133.34 156 133 C156 132.01 156 131.02 156 130 C155.01 129.67 154.02 129.34 153 129 Z M159 129 C158.34 130.98 157.68 132.96 157 135 C157.99 135.33 158.98 135.66 160 136 C160 133.69 160 131.38 160 129 C159.67 129 159.34 129 159 129 Z M161 129 C161 129.99 161 130.98 161 132 C161.66 131.67 162.32 131.34 163 131 C163 130.34 163 129.68 163 129 C162.34 129 161.68 129 161 129 Z M173 129 C173 131.31 173 133.62 173 136 C173.66 135.34 174.32 134.68 175 134 C174.625 131.375 174.625 131.375 174 129 C173.67 129 173.34 129 173 129 Z M176 129 C174.667 131.667 175.329 133.167 176 136 C176.99 135.67 177.98 135.34 179 135 C178.34 135 177.68 135 177 135 C177 134.34 177 133.68 177 133 C177.66 132.67 178.32 132.34 179 132 C178.34 132 177.68 132 177 132 C177 131.34 177 130.68 177 130 C177.66 129.67 178.32 129.34 179 129 C178.01 129 177.02 129 176 129 Z M181 129 C181 131.31 181 133.62 181 136 C181.66 135.01 182.32 134.02 183 133 C183.66 133.33 184.32 133.66 185 134 C183.25 130.125 183.25 130.125 181 129 Z M186 129 C185.67 131.31 185.34 133.62 185 136 C185.66 136 186.32 136 187 136 C187 133.69 187 131.38 187 129 C186.67 129 186.34 129 186 129 Z M188 129 C188.33 129.165 188.33 129.165 190 130 C190 131.98 190 133.96 190 136 C190.66 135.34 191.32 134.68 192 134 C191.625 131.875 191.625 131.875 191 130 C191.66 129.67 192.32 129.34 193 129 C191.35 129 189.7 129 188 129 Z M194 129 C194 131.31 194 133.62 194 136 C195.32 135.67 196.64 135.34 198 135 C197.34 135 196.68 135 196 135 C196 134.34 196 133.68 196 133 C196.66 132.67 197.32 132.34 198 132 C197.34 132 196.68 132 196 132 C196 131.34 196 130.68 196 130 C196.66 129.67 197.32 129.34 198 129 C196.68 129 195.36 129 194 129 Z M89 130 C88.67 131.32 88.34 132.64 88 134 C88.33 134.165 88.33 134.165 90 135 C90 133.35 90 131.7 90 130 C89.67 130 89.34 130 89 130 Z M139 130 C138.67 130.99 138.34 131.98 138 133 C138.33 133.495 138.33 133.495 140 136 C141.32 135.67 142.64 135.34 144 135 C143.01 134.67 142.02 134.34 141 134 C139.812 131.938 139.812 131.938 139 130 Z M167 130 C166.34 130.66 165.68 131.32 165 132 C164.67 132.165 164.67 132.165 163 133 C163.33 133.66 163.66 134.32 164 135 C163.01 135.33 162.02 135.66 161 136 C162.155 135.835 162.155 135.835 168 135 C168 133.35 168 131.7 168 130 C167.67 130 167.34 130 167 130 Z M131 131 C130.67 132.32 130.34 133.64 130 135 C130.66 134.67 131.32 134.34 132 134 C131.67 133.01 131.34 132.02 131 131 Z M133 131 C133.33 132.65 133.66 134.3 134 136 C134.33 135.01 134.66 134.02 135 133 C134.34 132.34 133.68 131.68 133 131 Z M145 131 C145.33 132.32 145.66 133.64 146 135 C146.33 134.34 146.66 133.68 147 133 C146.34 132.34 145.68 131.68 145 131 Z M94 132 C95 135 95 135 95 135 Z M103 132 C103.33 132.99 103.66 133.98 104 135 C104 134.01 104 133.02 104 132 C103.67 132 103.34 132 103 132 Z M123 132 C124 134 124 134 124 134 Z M124 134 C124 134.66 124 135.32 124 136 C124.66 135.67 125.32 135.34 126 135 C125.34 134.67 124.68 134.34 124 134 Z M90 135 C94 136 94 136 94 136 Z M147 135 C151 136 151 136 151 136 Z M168 135 C172 136 172 136 172 136 Z " fill="#FFFFFF" transform="translate(0,0)"/>
<path d="M0 0 C2.312 1.812 2.312 1.812 3.438 4.25 C3.312 6.812 3.312 6.812 2 9 C-2.493 12.03 -7.57 13.116 -12.977 12.59 C-16.721 11.755 -20.107 10.715 -22.688 7.812 C-23.188 5.312 -23.188 5.312 -22.688 2.812 C-16.795 -2.877 -7.341 -2.364 0 0 Z " fill="#FFFFFF" transform="translate(167.6875,107.1875)"/>
<path d="M0 0 C1 2 1 2 0.207 4.645 C-2.581 10.978 -4.73 14.551 -11.25 17.312 C-14.391 18.426 -14.391 18.426 -17 19 C-17.66 18.67 -18.32 18.34 -19 18 C-18.443 17.588 -17.886 17.175 -17.312 16.75 C-10.87 11.874 -4.516 6.774 0 0 Z " fill="#FFFFFF" transform="translate(72,112)"/>
<path d="M0 0 C1 3 1 3 -0.371 6.188 C-1.047 7.465 -1.736 8.736 -2.438 10 C-2.619 10.333 -2.619 10.333 -3.541 12.019 C-8.059 20.121 -13.029 28.912 -21 34 C-24.812 34.875 -24.812 34.875 -28 35 C-29 34 -29 34 -29.5 30.062 C-29.395 22.732 -24.755 17.862 -19.883 12.801 C-14.129 7.426 -7.529 2.51 0 0 Z " fill="#FFFFFF" transform="translate(64,129)"/>
</svg>
