<?xml version="1.0" encoding="UTF-8"?>
<!-- Generator: visioncortex VTracer 0.6.12 -->
<svg version="1.1" xmlns="http://www.w3.org/2000/svg" width="225" height="225">
<path d="M0 0 C74.25 0 148.5 0 225 0 C225 74.25 225 148.5 225 225 C150.75 225 76.5 225 0 225 C0 150.75 0 76.5 0 0 Z " fill="#08364D" transform="translate(0,0)"/>
<path d="M0 0 C4.578 4.812 5.288 8 5.223 14.449 C4.925 17.861 3.942 20.195 2 23 C1.505 23.165 1.505 23.165 -1 24 C-0.835 23.01 -0.67 22.02 -0.5 21 C0.399 14.458 0.947 8.716 -3 3 C-10.807 -1.116 -21.625 0.065 -29.922 2.385 C-33.335 3.46 -36.671 4.689 -40 6 C-40.714 6.279 -41.428 6.558 -42.164 6.845 C-58.473 13.35 -73.996 22.118 -87 34 C-87.492 34.439 -87.984 34.878 -88.491 35.33 C-97.214 43.182 -107.307 53.856 -108.238 66.145 C-108.463 77.27 -108.463 77.27 -106.312 80.688 C-102.198 84.802 -99.59 86.18 -93.75 86.375 C-80.882 85.961 -70.88 78.897 -62 70 C-54.526 61.494 -48.41 52.748 -44.273 42.188 C-43 40 -43 40 -40.852 39.188 C-40.241 39.126 -39.63 39.064 -39 39 C-38.451 45.548 -40.38 50.476 -42.812 56.5 C-43.169 57.411 -43.525 58.323 -43.893 59.262 C-45.444 63.206 -47.041 67.117 -48.766 70.988 C-50 74 -50 74 -49.938 76.688 C-49.958 77.451 -49.979 78.214 -50 79 C-50.572 79.54 -51.145 80.08 -51.734 80.637 C-54.746 83.779 -56.38 87.256 -58.312 91.125 C-71.065 115.859 -71.065 115.859 -83 120 C-85.98 120.515 -87.897 120.4 -91 120 C-93.916 117.521 -94.832 115.943 -95.5 112.188 C-93.852 101.679 -85.646 93.557 -77.438 87.375 C-76.3 86.572 -75.157 85.775 -74 85 C-74.715 85.361 -75.431 85.722 -76.168 86.094 C-84.761 90.096 -93.672 92.182 -102.938 88.938 C-107.773 85.878 -110.908 82.283 -113.375 77.125 C-115.414 66.931 -112.722 59.233 -107.426 50.363 C-89.67 23.999 -56.993 4.48 -26.109 -2.531 C-17.261 -3.865 -8.013 -4.384 0 0 Z " fill="#E8F1F4" transform="translate(125,47)"/>
<path d="M0 0 C3.229 1.72 4.355 2.564 6.438 5.688 C6.778 9.43 6.929 11.816 5.062 15.125 C3.438 16.688 3.438 16.688 1.438 16.688 C1.438 17.347 1.438 18.007 1.438 18.688 C2.097 19.017 2.757 19.347 3.438 19.688 C3.108 19.852 3.108 19.852 1.438 20.688 C2.428 21.677 3.417 22.668 4.438 23.688 C0.808 23.688 -2.822 23.688 -6.562 23.688 C-5.243 24.677 -3.923 25.667 -2.562 26.688 C-2.965 26.904 -2.965 26.904 -5 28 C-7.562 29.688 -7.562 29.688 -8.562 32.688 C-9.553 32.358 -10.542 32.028 -11.562 31.688 C-11.233 29.708 -10.903 27.727 -10.562 25.688 C-13.5 24.165 -16.479 22.886 -19.562 21.688 C-19.562 22.347 -19.562 23.007 -19.562 23.688 C-20.222 23.688 -20.882 23.688 -21.562 23.688 C-22.222 26.327 -22.882 28.968 -23.562 31.688 C-25.213 31.358 -26.863 31.028 -28.562 30.688 C-28.233 29.368 -27.903 28.048 -27.562 26.688 C-30.26 28.576 -31.695 29.886 -33.562 32.688 C-35.508 32.98 -35.508 32.98 -37.688 32.875 C-38.966 32.813 -40.245 32.751 -41.562 32.688 C-41.892 31.368 -42.222 30.048 -42.562 28.688 C-42.562 30.007 -42.562 31.327 -42.562 32.688 C-43.222 32.688 -43.882 32.688 -44.562 32.688 C-45.688 28.938 -45.688 28.938 -44.562 26.688 C-45.222 26.688 -45.882 26.688 -46.562 26.688 C-46.562 28.667 -46.562 30.648 -46.562 32.688 C-46.892 32.688 -47.222 32.688 -47.562 32.688 C-47.562 30.377 -47.562 28.067 -47.562 25.688 C-45.582 25.358 -43.603 25.028 -41.562 24.688 C-41.892 23.037 -42.222 21.388 -42.562 19.688 C-43.676 19.543 -44.79 19.399 -45.938 19.25 C-49.562 18.688 -49.562 18.688 -51.562 17.688 C-51.919 13.853 -51.86 12.134 -49.688 8.875 C-46.862 5.967 -46.203 5.705 -42.086 5.59 C-40.703 5.596 -39.32 5.608 -37.938 5.625 C-37.584 5.627 -37.584 5.627 -35.797 5.639 C-34.052 5.65 -32.307 5.668 -30.562 5.688 C-30.562 4.698 -30.562 3.707 -30.562 2.688 C-31.553 2.358 -32.542 2.028 -33.562 1.688 C-32.243 1.688 -30.923 1.688 -29.562 1.688 C-29.233 2.183 -29.233 2.183 -27.562 4.688 C-26.676 3.904 -25.789 3.12 -24.875 2.312 C-17.72 -4.01 -8.327 -4.006 0 0 Z " fill="#0B3349" transform="translate(168.5625,103.3125)"/>
<path d="M0 0 C4.578 4.812 5.288 8 5.223 14.449 C4.925 17.861 3.942 20.195 2 23 C1.505 23.165 1.505 23.165 -1 24 C-0.835 23.01 -0.67 22.02 -0.5 21 C0.399 14.458 0.947 8.716 -3 3 C-10.807 -1.116 -21.625 0.065 -29.922 2.385 C-33.335 3.46 -36.671 4.689 -40 6 C-40.714 6.279 -41.428 6.558 -42.164 6.845 C-58.473 13.35 -73.996 22.118 -87 34 C-87.492 34.439 -87.984 34.878 -88.491 35.33 C-97.214 43.182 -107.307 53.856 -108.238 66.145 C-108.483 78.26 -108.483 78.26 -104 83 C-103.422 83.619 -102.845 84.238 -102.25 84.875 C-102.044 85.061 -102.044 85.061 -101 86 C-101.165 86.33 -101.165 86.33 -102 88 C-106.893 86.602 -109.086 84.096 -112 80 C-114.751 74.105 -114.995 68.291 -113.125 62.105 C-102.066 33.766 -74.579 16.98 -48.021 5.116 C-33.552 -1.162 -15.016 -8.216 0 0 Z " fill="#D8E8EE" transform="translate(125,47)"/>
<path d="M0 0 C3.229 1.72 4.355 2.564 6.438 5.688 C6.989 9.945 6.993 11.923 4.438 15.438 C-1.344 19.773 -6.874 21.284 -14.102 21.039 C-19.428 20.278 -23.184 17.931 -27.125 14.375 C-28.562 11.688 -28.562 11.688 -28.688 8.188 C-27.252 3.72 -25.418 2.283 -21.562 -0.312 C-14.317 -3.691 -7.177 -3.453 0 0 Z " fill="#E0F1F4" transform="translate(168.5625,103.3125)"/>
<path d="M0 0 C3.96 0 7.92 0 12 0 C11.67 1.65 11.34 3.3 11 5 C10.34 5 9.68 5 9 5 C9 4.34 9 3.68 9 3 C6.062 4.312 6.062 4.312 3 6 C2.67 6.99 2.34 7.98 2 9 C3.65 9.66 5.3 10.32 7 11 C7.33 10.34 7.66 9.68 8 9 C8 9.66 8 10.32 8 11 C8.66 11.33 9.32 11.66 10 12 C9.67 13.32 9.34 14.64 9 16 C8.01 16 7.02 16 6 16 C6.33 16.66 6.66 17.32 7 18 C7.763 17.773 8.526 17.546 9.312 17.312 C10.199 17.209 11.086 17.106 12 17 C13.812 18.438 13.812 18.438 15 20 C14.67 20.66 14.34 21.32 14 22 C13.34 22 12.68 22 12 22 C12 23.98 12 25.96 12 28 C11.34 26.68 10.68 25.36 10 24 C9.34 24 8.68 24 8 24 C7.67 24.99 7.34 25.98 7 27 C6.67 26.34 6.34 25.68 6 25 C5.546 25.495 5.093 25.99 4.625 26.5 C3 28 3 28 1 28 C0.67 26.68 0.34 25.36 0 24 C-0.66 24.99 -1.32 25.98 -2 27 C-2.33 26.01 -2.66 25.02 -3 24 C-2.67 23.34 -2.34 22.68 -2 22 C-2.66 22 -3.32 22 -4 22 C-4 23.98 -4 25.96 -4 28 C-4.66 27.01 -5.32 26.02 -6 25 C-6.99 25 -7.98 25 -9 25 C-9 25.66 -9 26.32 -9 27 C-8.01 27.33 -7.02 27.66 -6 28 C-7.32 28 -8.64 28 -10 28 C-10.125 21.25 -10.125 21.25 -9 19 C-9.66 19 -10.32 19 -11 19 C-11 19.99 -11 20.98 -11 22 C-12.65 22 -14.3 22 -16 22 C-16 23.65 -16 25.3 -16 27 C-16.66 26.67 -17.32 26.34 -18 26 C-17.719 24.519 -17.425 23.04 -17.125 21.562 C-16.963 20.739 -16.8 19.915 -16.633 19.066 C-16.424 18.384 -16.215 17.703 -16 17 C-15.34 16.67 -14.68 16.34 -14 16 C-14.485 15.804 -14.485 15.804 -16.938 14.812 C-20 13 -20 13 -21 10.562 C-21 7.619 -20.739 6.371 -19 4 C-15.044 0.835 -11.973 0.707 -7 1 C-6.812 3.375 -6.812 3.375 -7 6 C-10.644 8.429 -12.712 8.162 -17 8 C-16.67 8.99 -16.34 9.98 -16 11 C-11.58 11.442 -9.524 11.343 -5.75 8.875 C-3.034 6.036 -1.509 3.604 0 0 Z " fill="#224B60" transform="translate(106,108)"/>
<path d="M0 0 C-10.831 21.495 -10.831 21.495 -17 28 C-17.5 28.529 -18 29.057 -18.516 29.602 C-22.07 32.95 -25.182 33.811 -30 34 C-31.52 32.48 -31.316 31.119 -31.438 29 C-31.353 23.041 -28.707 19.474 -25 15 C-24.722 14.66 -24.722 14.66 -23.312 12.938 C-19.303 8.513 -14.806 5.423 -9.688 2.438 C-9.076 2.078 -8.465 1.719 -7.836 1.349 C-3.378 -1.126 -3.378 -1.126 0 0 Z " fill="#0A3751" transform="translate(66,130)"/>
<path d="M0 0 C5 0 5 0 6.362 1.361 C6.7 1.983 7.038 2.605 7.387 3.246 C7.768 3.918 8.149 4.591 8.541 5.283 C8.919 5.994 9.298 6.705 9.688 7.438 C13.804 14.902 13.804 14.902 16 16 C16.282 15.515 16.564 15.031 16.854 14.531 C18.138 12.345 19.443 10.173 20.75 8 C21.193 7.237 21.637 6.474 22.094 5.688 C22.532 4.966 22.97 4.244 23.422 3.5 C23.82 2.83 24.218 2.159 24.628 1.469 C25.081 0.984 25.533 0.499 26 0 C27.32 0 28.64 0 30 0 C30 7.59 30 15.18 30 23 C28.68 23 27.36 23 26 23 C25.67 19.04 25.34 15.08 25 11 C24.776 11.433 24.776 11.433 23.645 13.625 C23.04 14.739 22.435 15.852 21.812 17 C21.221 18.114 20.629 19.227 20.02 20.375 C18 23 18 23 15.531 23.781 C11.724 22.606 10.503 19.813 8.688 16.5 C8.328 15.88 7.969 15.26 7.6 14.621 C6.716 13.09 5.856 11.546 5 10 C4.67 14.29 4.34 18.58 4 23 C2.68 23 1.36 23 0 23 C0 15.41 0 7.82 0 0 Z " fill="#E1ECF0" transform="translate(179,101)"/>
<path d="M0 0 C2.375 2.25 2.375 2.25 3.125 4.75 C2.375 7.25 2.375 7.25 -0.375 9.5 C-5.344 12.176 -8.94 12.635 -14.625 12.25 C-18.12 11.165 -21.004 9.871 -23.625 7.25 C-24 4.812 -24 4.812 -23.625 2.25 C-17.611 -3.995 -7.264 -4.234 0 0 Z " fill="#0E384D" transform="translate(168.625,107.75)"/>
<path d="M0 0 C0.99 0 1.98 0 3 0 C3.549 6.548 1.62 11.476 -0.812 17.5 C-1.169 18.411 -1.525 19.323 -1.893 20.262 C-3.84 25.214 -5.876 30.121 -8 35 C-8.99 35 -9.98 35 -11 35 C-11.33 35.66 -11.66 36.32 -12 37 C-12.66 37 -13.32 37 -14 37 C-13.01 33.7 -12.02 30.4 -11 27 C-11.26 27.325 -11.26 27.325 -12.574 28.969 C-12.923 29.386 -12.923 29.386 -14.688 31.5 C-15.372 32.335 -16.056 33.171 -16.762 34.031 C-19 36 -19 36 -21.77 36.281 C-22.138 36.235 -22.138 36.235 -24 36 C-21.123 32.072 -18.233 28.206 -15 24.562 C-9.358 18.036 -5.378 11.104 -1.98 3.188 C-1 1 -1 1 0 0 Z " fill="#E6F1F4" transform="translate(83,86)"/>
<path d="M0 0 C1 2 1 2 0.461 4.391 C-1.817 10.389 -3.911 13.563 -9.812 16.312 C-12.197 17.237 -14.594 18.131 -17 19 C-18.319 19.557 -19.636 20.121 -20.949 20.691 C-29.266 24.21 -36.825 26.395 -46 25 C-48.359 23.969 -48.359 23.969 -50 23 C-49.67 22.34 -49.34 21.68 -49 21 C-48.094 21.035 -47.188 21.07 -46.254 21.105 C-34.158 21.374 -26.642 19.318 -17 12 C-16.34 11.34 -15.68 10.68 -15 10 C-13.969 9.979 -12.938 9.959 -11.875 9.938 C-6.097 8.54 -3.551 4.566 0 0 Z " fill="#DBE9ED" transform="translate(72,112)"/>
<path d="M0 0 C3.96 0 7.92 0 12 0 C11.67 1.65 11.34 3.3 11 5 C10.34 5 9.68 5 9 5 C9 4.34 9 3.68 9 3 C4.599 4.676 2.814 6.173 0.625 10.188 C-0.82 12.316 -0.82 12.316 -3 14 C-8.423 14.827 -13.57 14.743 -19 14 C-19.66 13.34 -20.32 12.68 -21 12 C-21 8.625 -21 8.625 -20 5 C-16.63 1.871 -14.728 1.047 -10.125 0.75 C-9.094 0.832 -8.062 0.915 -7 1 C-6.812 3.375 -6.812 3.375 -7 6 C-10.644 8.429 -12.712 8.162 -17 8 C-16.67 8.99 -16.34 9.98 -16 11 C-11.58 11.442 -9.524 11.343 -5.75 8.875 C-3.034 6.036 -1.509 3.604 0 0 Z " fill="#D8E7ED" transform="translate(106,108)"/>
<path d="M0 0 C2 2 2 2 2.195 3.945 C2.13 5.964 2.065 7.982 2 10 C2.33 10 2.66 10 3 10 C3.125 12.875 3.125 12.875 3 16 C2.34 16.66 1.68 17.32 1 18 C1.375 21.125 1.375 21.125 2 24 C1.34 23.67 0.68 23.34 0 23 C-0.66 23.99 -1.32 24.98 -2 26 C-3.91 26.293 -3.91 26.293 -6.062 26.188 C-10 26 -10 26 -11 26 C-11.907 25.814 -12.815 25.629 -13.75 25.438 C-16.885 25.015 -18.974 25.199 -22 26 C-21.01 25.67 -20.02 25.34 -19 25 C-19.33 24.01 -19.66 23.02 -20 22 C-19.01 22 -18.02 22 -17 22 C-16.407 21.335 -15.814 20.67 -15.203 19.984 C-13 18 -13 18 -9.984 17.828 C-8.917 17.967 -7.85 18.107 -6.75 18.25 C-5.672 18.379 -4.595 18.508 -3.484 18.641 C-2.665 18.759 -1.845 18.878 -1 19 C-1.33 17.68 -1.66 16.36 -2 15 C-1.34 14.67 -0.68 14.34 0 14 C0 9.38 0 4.76 0 0 Z " fill="#4C6D82" transform="translate(183,110)"/>
<path d="M0 0 C0 0.33 0 0.66 0 1 C-1.485 1.165 -1.485 1.165 -9 2 C-8.67 2.99 -8.34 3.98 -8 5 C-10.97 6.32 -13.94 7.64 -17 9 C-17.25 11.312 -17.25 11.312 -17 14 C-14.641 16.274 -11.958 17.627 -9 19 C-9.66 19.99 -10.32 20.98 -11 22 C-15.931 21.565 -18.618 19.536 -22 16 C-23.125 12.5 -23.125 12.5 -23 9 C-20.777 4.844 -17.544 2.679 -13.371 0.715 C-8.981 -0.609 -4.533 -0.3 0 0 Z " fill="#DFECF0" transform="translate(163,101)"/>
<path d="M0 0 C-1.554 3.025 -3.12 6.044 -4.688 9.062 C-5.123 9.91 -5.558 10.758 -6.006 11.631 C-8.669 16.74 -11.533 21.396 -15 26 C-15.582 24.086 -15.582 24.086 -16 22 C-15.024 20.977 -14.019 19.981 -13 19 C-12.321 17.004 -11.654 15.004 -11 13 C-10.34 12.67 -9.68 12.34 -9 12 C-9.99 12 -10.98 12 -12 12 C-12 11.34 -12 10.68 -12 10 C-12.784 10.206 -13.568 10.412 -14.375 10.625 C-15.241 10.749 -16.108 10.873 -17 11 C-17.66 10.34 -18.32 9.68 -19 9 C-4.462 -1.487 -4.462 -1.487 0 0 Z " fill="#163749" transform="translate(66,130)"/>
<path d="M0 0 C6.154 -0.385 11.55 -0.132 17 3 C21.578 7.812 22.288 11 22.223 17.449 C21.925 20.861 20.942 23.195 19 26 C18.01 26.33 17.02 26.66 16 27 C16.165 26.01 16.33 25.02 16.5 24 C17.387 17.542 18.108 11.52 14 6 C9.37 3.33 4.246 2.546 -1 2 C-0.67 1.34 -0.34 0.68 0 0 Z " fill="#DFF2F6" transform="translate(108,44)"/>
<path d="M0 0 C0.99 0 1.98 0 3 0 C3.369 5.843 2.189 10.05 0 15.438 C-0.286 16.169 -0.572 16.901 -0.867 17.654 C-1.568 19.44 -2.282 21.221 -3 23 C-4.98 22.67 -6.96 22.34 -9 22 C-7.784 14.704 -5.395 5.395 0 0 Z " fill="#F0F6F9" transform="translate(83,86)"/>
<path d="M0 0 C1.062 1.812 1.062 1.812 2 4 C1.67 4.99 1.34 5.98 1 7 C0.933 8.561 0.915 10.125 0.938 11.688 C0.947 12.496 0.956 13.304 0.965 14.137 C0.976 14.752 0.988 15.366 1 16 C7.165 15.623 10.174 13.841 15 10 C14.67 10.784 14.34 11.567 14 12.375 C13 15 13 15 13 17 C8 20 4.694 20.735 -1 20 C-3.916 17.521 -4.832 15.943 -5.5 12.188 C-4.831 7.921 -3.134 3.134 0 0 Z " fill="#D6E3E8" transform="translate(35,147)"/>
<path d="M0 0 C0.99 0.33 1.98 0.66 3 1 C3 2.98 3 4.96 3 7 C4.485 7.33 4.485 7.33 12 9 C12 9.66 12 10.32 12 11 C12.99 11.33 13.98 11.66 15 12 C14.34 12 13.68 12 13 12 C13 12.66 13 13.32 13 14 C11.02 14.33 9.04 14.66 7 15 C7 17.31 7 19.62 7 22 C6.01 21.67 5.02 21.34 4 21 C4 19.35 4 17.7 4 16 C4.66 16 5.32 16 6 16 C5.67 15.01 5.34 14.02 5 13 C2 12 2 12 -2 12 C-2 11.34 -2 10.68 -2 10 C-1.01 9.67 -0.02 9.34 1 9 C0.67 7.68 0.34 6.36 0 5 C-1.32 5.33 -2.64 5.66 -4 6 C-4 5.34 -4 4.68 -4 4 C-4.99 3.67 -5.98 3.34 -7 3 C-6.67 2.34 -6.34 1.68 -6 1 C-5.598 1.01 -5.598 1.01 -3.562 1.062 C-1 1 -1 1 0 0 Z " fill="#0A3146" transform="translate(114,114)"/>
<path d="M0 0 C0.33 1.32 0.66 2.64 1 4 C0.34 4.33 0.34 4.33 -3 6 C-2.67 5.01 -2.34 4.02 -2 3 C-4.438 3.375 -4.438 3.375 -7 4 C-7.33 4.66 -7.66 5.32 -8 6 C-6.68 6.33 -5.36 6.66 -4 7 C-5.98 7 -7.96 7 -10 7 C-9.67 7.99 -9.34 8.98 -9 10 C-3.223 10.462 -0.598 9.448 4 6 C4.99 5.67 5.98 5.34 7 5 C5.481 9.252 2.902 10.904 -1 13 C-4.663 13.979 -7.868 14.425 -11.5 13.062 C-11.995 12.712 -12.49 12.361 -13 12 C-13.357 8.165 -13.298 6.447 -11.125 3.188 C-7.533 -0.51 -5.034 -0.093 0 0 Z " fill="#CDDFE6" transform="translate(130,109)"/>
<path d="M0 0 C-1 3 -1 3 -3.59 4.508 C-4.695 5.041 -5.799 5.575 -6.938 6.125 C-15.871 10.66 -22.899 17.069 -29 25 C-29.66 24.34 -30.32 23.68 -31 23 C-26.823 11.86 -15.01 6.159 -5 1 C-2 0 -2 0 0 0 Z " fill="#D6E9EF" transform="translate(66,126)"/>
<path d="M0 0 C0.33 0 0.66 0 1 0 C1 6.93 1 13.86 1 21 C2.65 21 4.3 21 6 21 C5.34 21.99 4.68 22.98 4 24 C4 24.66 4 25.32 4 26 C3.596 25.977 3.596 25.977 1.551 25.859 C-7.286 25.561 -7.286 25.561 -11.25 28 C-11.827 28.66 -12.405 29.32 -13 30 C-14.021 29.021 -15.021 28.02 -16 27 C-16 26 -16 25 -16 24 C-13.03 23.67 -10.06 23.34 -7 23 C-7.66 22.34 -8.32 21.68 -9 21 C-8.67 20.01 -8.34 19.02 -8 18 C-6.35 18 -4.7 18 -3 18 C-3.66 18.33 -4.32 18.66 -5 19 C-5 19.66 -5 20.32 -5 21 C-3 22 -3 22 0 22 C0 14.74 0 7.48 0 0 Z " fill="#05334C" transform="translate(178,103)"/>
<path d="M0 0 C0.33 0.66 0.66 1.32 1 2 C2.325 2.365 3.66 2.694 5 3 C6.32 3.66 7.64 4.32 9 5 C9 7.97 9 10.94 9 14 C6.36 14 3.72 14 1 14 C0.67 12.68 0.34 11.36 0 10 C0 11.32 0 12.64 0 14 C-0.66 14 -1.32 14 -2 14 C-3.125 10.25 -3.125 10.25 -2 8 C-2.66 8 -3.32 8 -4 8 C-4 9.98 -4 11.96 -4 14 C-4.33 14 -4.66 14 -5 14 C-5 11.69 -5 9.38 -5 7 C-3.02 6.67 -1.04 6.34 1 6 C0.67 4.02 0.34 2.04 0 0 Z " fill="#466C81" transform="translate(126,122)"/>
<path d="M0 0 C0.026 0.941 0.052 1.882 0.078 2.852 C0.466 11.372 0.962 15.674 6.75 21.875 C6.956 22.061 6.956 22.061 8 23 C7.67 23.66 7.34 24.32 7 25 C1.971 23.563 0.043 21.058 -3 17 C-4.353 14.294 -4.206 12.081 -4.25 9.062 C-4.276 8.002 -4.302 6.941 -4.328 5.848 C-4 3 -4 3 -2.547 1.121 C-1 0 -1 0 0 0 Z " fill="#EBF8FC" transform="translate(16,110)"/>
<path d="M0 0 C0.536 0.371 1.072 0.743 1.625 1.125 C1.295 1.29 1.295 1.29 -0.375 2.125 C0.615 3.115 1.605 4.105 2.625 5.125 C-1.005 5.125 -4.635 5.125 -8.375 5.125 C-7.055 6.115 -5.735 7.105 -4.375 8.125 C-4.777 8.342 -4.777 8.342 -6.812 9.438 C-9.375 11.125 -9.375 11.125 -10.375 14.125 C-11.365 13.795 -12.355 13.465 -13.375 13.125 C-13.045 11.145 -12.715 9.165 -12.375 7.125 C-12.973 6.836 -13.571 6.548 -14.188 6.25 C-16.375 5.125 -16.375 5.125 -19.375 3.125 C-15.745 3.125 -12.115 3.125 -8.375 3.125 C-8.375 2.465 -8.375 1.805 -8.375 1.125 C-2.96 -1.09 -2.96 -1.09 0 0 Z " fill="#103B51" transform="translate(170.375,121.875)"/>
<path d="M0 0 C0.99 0 1.98 0 3 0 C3 7.26 3 14.52 3 22 C1.68 22 0.36 22 -1 22 C-1.33 17.71 -1.66 13.42 -2 9 C-2.66 9 -3.32 9 -4 9 C-3.67 7.68 -3.34 6.36 -3 5 C-2.34 5 -1.68 5 -1 5 C-0.67 3.35 -0.34 1.7 0 0 Z " fill="#E6F5F9" transform="translate(206,102)"/>
<path d="M0 0 C0.66 0.99 1.32 1.98 2 3 C2 2.01 2 1.02 2 0 C2.99 0.33 3.98 0.66 5 1 C1.214 5.378 -2.291 7.762 -8 9 C-11.352 9.22 -14.647 9.186 -18 9 C-17.67 7.68 -17.34 6.36 -17 5 C-16.192 4.89 -15.384 4.781 -14.551 4.668 C-13.482 4.509 -12.414 4.351 -11.312 4.188 C-10.257 4.037 -9.201 3.886 -8.113 3.73 C-4.898 2.976 -2.719 1.841 0 0 Z " fill="#DAE6EA" transform="translate(170,115)"/>
<path d="M0 0 C0 0.33 0 0.66 0 1 C0.99 1.165 0.99 1.165 6 2 C6 2.33 6 2.66 6 3 C5.247 3.014 4.494 3.028 3.719 3.043 C-4.601 3.417 -11.748 5.199 -19.566 7.844 C-22.048 8.679 -24.451 9.429 -27 10 C-27 9.34 -27 8.68 -27 8 C-27.66 7.67 -28.32 7.34 -29 7 C-7.397 -0.37 -7.397 -0.37 0 0 Z " fill="#D9ECF2" transform="translate(108,44)"/>
<path d="M0 0 C0.99 0.165 0.99 0.165 6 1 C6.309 1.949 6.619 2.898 6.938 3.875 C8 7 8 7 9 9 C8.175 9.495 8.175 9.495 4 12 C4.031 11.536 4.031 11.536 4.188 9.188 C4 6 4 6 2.5 4.125 C2.005 3.754 1.51 3.382 1 3 C1.33 4.32 1.66 5.64 2 7 C1.34 7 0.68 7 0 7 C0 7.66 0 8.32 0 9 C-0.99 9 -1.98 9 -3 9 C-3 10.65 -3 12.3 -3 14 C0.29 15.097 1.713 14.8 5 14 C3.812 15.5 3.812 15.5 2 17 C-0.625 17.25 -0.625 17.25 -3 17 C-4.541 15.459 -4.244 14.016 -4.312 11.875 C-4.288 6.866 -2.787 4.094 0 0 Z " fill="#113646" transform="translate(39,147)"/>
<path d="M0 0 C1 2 1 2 0.461 4.391 C-1.995 10.858 -4.341 13.77 -10.688 16.75 C-14.137 18.172 -14.137 18.172 -17 19 C-17.66 18.67 -18.32 18.34 -19 18 C-18.299 17.455 -17.597 16.909 -16.875 16.348 C-10.594 11.355 -5.107 6.189 0 0 Z " fill="#19323B" transform="translate(72,112)"/>
<path d="M0 0 C0 0.66 0 1.32 0 2 C1.65 1.67 3.3 1.34 5 1 C4.67 1.165 4.67 1.165 3 2 C3.33 2.99 3.66 3.98 4 5 C-0.105 7.985 -2.977 8.295 -8 8 C-8.33 6.68 -8.66 5.36 -9 4 C-8.34 3.67 -7.68 3.34 -7 3 C-6.67 2.01 -6.34 1.02 -6 0 C-3.509 -1.245 -2.589 -0.777 0 0 Z " fill="#213846" transform="translate(129,112)"/>
<path d="M0 0 C2 2 2 2 2.195 3.945 C2.13 5.964 2.065 7.982 2 10 C2.33 10 2.66 10 3 10 C3.125 12.875 3.125 12.875 3 16 C2.34 16.66 1.68 17.32 1 18 C1.375 21.125 1.375 21.125 2 24 C1.34 23.67 0.68 23.34 0 23 C-0.66 23.99 -1.32 24.98 -2 26 C-3.32 25.67 -4.64 25.34 -6 25 C-6 23.02 -6 21.04 -6 19 C-4.35 19 -2.7 19 -1 19 C-1.33 17.68 -1.66 16.36 -2 15 C-1.34 14.67 -0.68 14.34 0 14 C0 9.38 0 4.76 0 0 Z " fill="#4B687D" transform="translate(183,110)"/>
<path d="M0 0 C0.188 2.375 0.188 2.375 0 5 C-3.204 7.136 -4.019 7.231 -7.688 7.125 C-8.092 7.116 -8.092 7.116 -10.137 7.07 C-10.444 7.059 -10.444 7.059 -12 7 C-9.697 0.267 -6.859 -0.259 0 0 Z " fill="#E4F5F9" transform="translate(99,109)"/>
<path d="M0 0 C0.66 1.32 1.32 2.64 2 4 C2.99 3.67 3.98 3.34 5 3 C3.453 6.986 0.919 8.985 -2.375 11.625 C-2.853 12.013 -2.853 12.013 -5.273 13.977 C-9.247 16.926 -10.98 18 -16 18 C-16 17.34 -16 16.68 -16 16 C-15.422 15.876 -14.845 15.752 -14.25 15.625 C-11.866 14.963 -10.064 14.376 -8 13 C-7.67 12.154 -7.34 11.309 -7 10.438 C-6.67 9.633 -6.34 8.829 -6 8 C-3.875 7.188 -3.875 7.188 -2 7 C-1.34 4.69 -0.68 2.38 0 0 Z " fill="#133649" transform="translate(58,113)"/>
<path d="M0 0 C0.33 0.99 0.66 1.98 1 3 C-0.758 3.977 -2.516 4.953 -4.273 5.93 C-6 7 -6 7 -8 9 C-11.411 9 -14.631 8.509 -18 8 C-14.839 5.397 -11.657 3.86 -7.875 2.312 C-6.821 1.876 -5.766 1.439 -4.68 0.988 C-2 0 -2 0 0 0 Z " fill="#143950" transform="translate(87,52)"/>
<path d="M0 0 C1.65 0 3.3 0 5 0 C3.68 0.33 2.36 0.66 1 1 C1 4.3 1 7.6 1 11 C1.99 11 2.98 11 4 11 C4 14.96 4 18.92 4 23 C2.68 23 1.36 23 0 23 C0 15.41 0 7.82 0 0 Z " fill="#E0EAF4" transform="translate(179,101)"/>
<path d="M0 0 C0.99 0.33 1.98 0.66 3 1 C-0.63 4.63 -4.26 8.26 -8 12 C-8.66 11.34 -9.32 10.68 -10 10 C-10.33 10.66 -10.66 11.32 -11 12 C-11.66 11.67 -12.32 11.34 -13 11 C-11.855 9.687 -10.709 8.375 -9.562 7.062 C-8.924 6.332 -8.286 5.601 -7.629 4.848 C-6.775 3.879 -5.913 2.913 -5 2 C-3.334 1.959 -1.666 1.957 0 2 C0 1.34 0 0.68 0 0 Z " fill="#D4E1E7" transform="translate(37,78)"/>
<path d="M0 0 C0.825 0.165 0.825 0.165 5 1 C2.161 4.225 -1.418 6.386 -5 8.688 C-5.629 9.103 -6.258 9.519 -6.906 9.947 C-11.638 13 -11.638 13 -15 13 C-15 12.34 -15 11.68 -15 11 C-14.01 11 -13.02 11 -12 11 C-11.67 10.01 -11.34 9.02 -11 8 C-10.01 8 -9.02 8 -8 8 C-8 7.01 -8 6.02 -8 5 C-6.845 4.835 -6.845 4.835 -1 4 C-0.67 2.68 -0.34 1.36 0 0 Z " fill="#1A3846" transform="translate(55,59)"/>
<path d="M0 0 C0.33 0.66 0.66 1.32 1 2 C0.67 2.66 0.34 3.32 0 4 C0.66 4 1.32 4 2 4 C2.33 4.99 2.66 5.98 3 7 C10.429 7.286 10.429 7.286 14 5 C14 5.99 14 6.98 14 8 C14.66 8.66 15.32 9.32 16 10 C13.375 10.054 10.751 10.094 8.125 10.125 C7.379 10.142 6.632 10.159 5.863 10.176 C3.908 10.193 1.953 10.103 0 10 C-0.66 9.34 -1.32 8.68 -2 8 C-1.423 1.423 -1.423 1.423 0 0 Z " fill="#D4E9F1" transform="translate(87,112)"/>
<path d="M0 0 C1 3 1 3 -0.434 6.137 C-1.091 7.326 -1.76 8.509 -2.438 9.688 C-2.776 10.294 -3.114 10.901 -3.463 11.525 C-4.3 13.022 -5.149 14.512 -6 16 C-6.99 14.68 -7.98 13.36 -9 12 C-8.433 10.535 -7.846 9.078 -7.25 7.625 C-6.925 6.813 -6.6 6.001 -6.266 5.164 C-4.793 2.646 -3.659 2.07 -1 1 C-0.67 0.67 -0.34 0.34 0 0 Z " fill="#DDECF1" transform="translate(68,131)"/>
<path d="M0 0 C0.66 0.33 1.32 0.66 2 1 C0.605 4.372 -0.763 6.25 -4 8 C-7.75 8.188 -7.75 8.188 -11 8 C-11.33 6.68 -11.66 5.36 -12 4 C-11.385 3.879 -10.77 3.758 -10.137 3.633 C-9.328 3.465 -8.52 3.298 -7.688 3.125 C-6.887 2.963 -6.086 2.8 -5.262 2.633 C-3 2 -3 2 0 0 Z " fill="#1D3441" transform="translate(101,112)"/>
<path d="M0 0 C0.746 1.641 0.746 1.641 1 4 C-0.652 6.797 -0.652 6.797 -2.938 9.75 C-3.313 10.242 -3.313 10.242 -5.215 12.734 C-5.804 13.482 -6.393 14.23 -7 15 C-7.99 14.34 -8.98 13.68 -10 13 C-8.634 9.015 -6.899 6.075 -4 3 C-3.01 3 -2.02 3 -1 3 C-0.67 2.01 -0.34 1.02 0 0 Z " fill="#E4F1F5" transform="translate(27,87)"/>
<path d="M0 0 C3.375 -0.188 3.375 -0.188 7 0 C7.66 0.99 8.32 1.98 9 3 C8.67 3.66 8.34 4.32 8 5 C7.34 5 6.68 5 6 5 C6 5.99 6 6.98 6 8 C4.35 8 2.7 8 1 8 C1 9.65 1 11.3 1 13 C0.34 12.67 -0.32 12.34 -1 12 C-0.719 10.519 -0.425 9.04 -0.125 7.562 C0.037 6.739 0.2 5.915 0.367 5.066 C0.576 4.384 0.785 3.703 1 3 C1.66 2.67 2.32 2.34 3 2 C2.01 1.34 1.02 0.68 0 0 Z " fill="#1E455A" transform="translate(89,122)"/>
<path d="M0 0 C0.33 0 0.66 0 1 0 C1 3.96 1 7.92 1 12 C-0.98 12.99 -2.96 13.98 -5 15 C-5.66 14.01 -6.32 13.02 -7 12 C-5.859 9.997 -4.712 7.998 -3.562 6 C-2.924 4.886 -2.286 3.772 -1.629 2.625 C-1.091 1.759 -0.554 0.892 0 0 Z " fill="#14384C" transform="translate(204,110)"/>
<path d="M0 0 C0.33 0 0.66 0 1 0 C1 6.93 1 13.86 1 21 C2.65 21 4.3 21 6 21 C5.34 21.99 4.68 22.98 4 24 C4 24.66 4 25.32 4 26 C0.7 26 -2.6 26 -6 26 C-1.125 22 -1.125 22 0 22 C0 14.74 0 7.48 0 0 Z " fill="#06273C" transform="translate(178,103)"/>
<path d="M0 0 C-0.808 0.603 -1.616 1.207 -2.449 1.828 C-3.529 2.635 -4.608 3.443 -5.688 4.25 C-6.743 5.039 -7.799 5.828 -8.887 6.641 C-11.628 8.718 -14.326 10.837 -17 13 C-16.558 9.618 -15.812 6.909 -14 4 C-4.209 -2.104 -4.209 -2.104 0 0 Z " fill="#142F3E" transform="translate(53,132)"/>
<path d="M0 0 C0 0.33 0 0.66 0 1 C-7.92 1.33 -15.84 1.66 -24 2 C-24 1.34 -24 0.68 -24 0 C-15.524 -2.208 -8.539 -1.765 0 0 Z " fill="#0C2A3D" transform="translate(117,43)"/>
<path d="M0 0 C3.375 0.25 3.375 0.25 7 1 C8.438 3.062 8.438 3.062 9 5 C8.67 5.495 8.67 5.495 7 8 C6.67 7.01 6.34 6.02 6 5 C6.33 4.34 6.66 3.68 7 3 C6.34 3 5.68 3 5 3 C5 4.98 5 6.96 5 9 C4.34 8.01 3.68 7.02 3 6 C2.01 6 1.02 6 0 6 C0 6.66 0 7.32 0 8 C0.99 8.33 1.98 8.66 3 9 C1.68 9 0.36 9 -1 9 C-1.125 2.25 -1.125 2.25 0 0 Z " fill="#5E7F93" transform="translate(97,127)"/>
<path d="M0 0 C2.394 2.394 2.296 3.038 2.312 6.312 C2.229 10.294 1.629 12.866 -1 16 C-1.66 16 -2.32 16 -3 16 C-2.856 15.01 -2.711 14.02 -2.562 13 C-2.159 10.213 -1.818 7.423 -1.5 4.625 C-1 1 -1 1 0 0 Z " fill="#F3FEFF" transform="translate(127,55)"/>
<path d="M0 0 C3.96 0 7.92 0 12 0 C11.67 0.165 11.67 0.165 10 1 C10 1.66 10 2.32 10 3 C10.66 3.33 11.32 3.66 12 4 C11.34 4 10.68 4 10 4 C10 4.66 10 5.32 10 6 C10.66 6.33 11.32 6.66 12 7 C10.68 7 9.36 7 8 7 C8 5.02 8 3.04 8 1 C7.01 1 6.02 1 5 1 C5 2.98 5 4.96 5 7 C4.67 7 4.34 7 4 7 C4 5.02 4 3.04 4 1 C3.01 2.98 2.02 4.96 1 7 C0.34 6.34 -0.32 5.68 -1 5 C-0.67 3.35 -0.34 1.7 0 0 Z " fill="#6B8EA1" transform="translate(186,129)"/>
<path d="M0 0 C0 2.31 0 4.62 0 7 C-2.812 7.312 -2.812 7.312 -6 7 C-7.875 4.5 -7.875 4.5 -9 2 C-5.565 -0.29 -4.015 -0.178 0 0 Z " fill="#0C2D42" transform="translate(104,121)"/>
<path d="M0 0 C2.947 2.744 5.192 5.383 7 9 C6.67 9.66 6.34 10.32 6 11 C5.01 11.33 4.02 11.66 3 12 C2.67 11.34 2.34 10.68 2 10 C1.67 10.165 1.67 10.165 0 11 C0 7.37 0 3.74 0 0 Z " fill="#103340" transform="translate(184,112)"/>
<path d="M0 0 C0.825 0.165 0.825 0.165 5 1 C5.33 2.98 5.66 4.96 6 7 C5.01 6.67 4.02 6.34 3 6 C3 7.32 3 8.64 3 10 C2.01 10 1.02 10 0 10 C0 6.7 0 3.4 0 0 Z " fill="#F5FAFB" transform="translate(180,102)"/>
<path d="M0 0 C0 4.714 0 4.714 -1 7 C-5.384 9.923 -8.801 10.312 -14 10 C-14 9.34 -14 8.68 -14 8 C-13.134 7.752 -12.267 7.505 -11.375 7.25 C-6.925 5.602 -3.357 3.357 0 0 Z " fill="#D9EBEF" transform="translate(49,157)"/>
<path d="M0 0 C0.33 0.99 0.66 1.98 1 3 C-0.812 6.188 -0.812 6.188 -3 9 C-3.66 9 -4.32 9 -5 9 C-5.33 9.99 -5.66 10.98 -6 12 C-7.32 12 -8.64 12 -10 12 C-10 9 -10 9 -8.32 7.246 C-7.596 6.649 -6.871 6.052 -6.125 5.438 C-5.765 5.138 -5.765 5.138 -3.945 3.621 C-3.303 3.086 -2.661 2.551 -2 2 C-1.34 1.34 -0.68 0.68 0 0 Z " fill="#193646" transform="translate(56,155)"/>
<path d="M0 0 C0.99 0 1.98 0 3 0 C3 3.3 3 6.6 3 10 C2.01 10 1.02 10 0 10 C0 9.01 0 8.02 0 7 C-0.66 7 -1.32 7 -2 7 C-2 7.66 -2 8.32 -2 9 C-2.66 9 -3.32 9 -4 9 C-3.67 7.68 -3.34 6.36 -3 5 C-2.34 5 -1.68 5 -1 5 C-0.67 3.35 -0.34 1.7 0 0 Z " fill="#F8FCFE" transform="translate(206,102)"/>
<path d="M0 0 C1.666 -0.043 3.334 -0.041 5 0 C6 1 6 1 6.062 3.562 C6.042 4.367 6.021 5.171 6 6 C3.625 6.625 3.625 6.625 1 7 C0.34 6.34 -0.32 5.68 -1 5 C-0.625 2.375 -0.625 2.375 0 0 Z " fill="#7595AA" transform="translate(146,129)"/>
<path d="M0 0 C-0.33 2.64 -0.66 5.28 -1 8 C-2.32 8.33 -3.64 8.66 -5 9 C-5.99 7.35 -6.98 5.7 -8 4 C-3.375 0 -3.375 0 0 0 Z " fill="#0F3244" transform="translate(179,100)"/>
<path d="M0 0 C0 0.66 0 1.32 0 2 C-5.61 4.31 -11.22 6.62 -17 9 C-17 8.01 -17 7.02 -17 6 C-14.921 4.991 -12.837 3.993 -10.75 3 C-9.59 2.443 -8.43 1.886 -7.234 1.312 C-4 0 -4 0 0 0 Z " fill="#183948" transform="translate(82,49)"/>
<path d="M0 0 C0.598 0.206 1.196 0.412 1.812 0.625 C0.822 0.625 -0.167 0.625 -1.188 0.625 C0.132 1.615 1.452 2.605 2.812 3.625 C2.41 3.842 2.41 3.842 0.375 4.938 C-2.188 6.625 -2.188 6.625 -3.188 9.625 C-4.178 9.295 -5.167 8.965 -6.188 8.625 C-5.875 5.25 -5.875 5.25 -5.188 1.625 C-2.188 -0.375 -2.188 -0.375 0 0 Z " fill="#4B697E" transform="translate(163.1875,126.375)"/>
<path d="M0 0 C0.99 0.33 1.98 0.66 3 1 C3.33 3.31 3.66 5.62 4 8 C1 7 1 7 -1 5 C-1.99 5.33 -2.98 5.66 -4 6 C-4 5.34 -4 4.68 -4 4 C-4.99 3.67 -5.98 3.34 -7 3 C-6.67 2.34 -6.34 1.68 -6 1 C-5.598 1.01 -5.598 1.01 -3.562 1.062 C-1 1 -1 1 0 0 Z " fill="#0B2C40" transform="translate(114,114)"/>
<path d="M0 0 C4.29 0 8.58 0 13 0 C13 0.33 13 0.66 13 1 C11.02 1.33 9.04 1.66 7 2 C7 2.66 7 3.32 7 4 C7.66 4.66 8.32 5.32 9 6 C8.34 6 7.68 6 7 6 C7.33 6.99 7.66 7.98 8 9 C7.34 9 6.68 9 6 9 C5.34 7.35 4.68 5.7 4 4 C2.35 4 0.7 4 -1 4 C-0.67 2.68 -0.34 1.36 0 0 Z " fill="#072E42" transform="translate(26,137)"/>
<path d="M0 0 C-1 3 -1 3 -3.723 4.605 C-4.825 5.128 -5.927 5.65 -7.062 6.188 C-8.167 6.717 -9.272 7.247 -10.41 7.793 C-11.265 8.191 -12.119 8.59 -13 9 C-13 7.68 -13 6.36 -13 5 C-11.21 4.162 -9.418 3.33 -7.625 2.5 C-6.627 2.036 -5.63 1.572 -4.602 1.094 C-2 0 -2 0 0 0 Z " fill="#DBEEF3" transform="translate(66,126)"/>
<path d="M0 0 C3.625 -0.188 3.625 -0.188 7 0 C7.33 1.32 7.66 2.64 8 4 C7.34 4.33 7.34 4.33 4 6 C4.33 5.01 4.66 4.02 5 3 C2.562 3.375 2.562 3.375 0 4 C-0.33 4.66 -0.66 5.32 -1 6 C0.32 6.33 1.64 6.66 3 7 C1.35 7 -0.3 7 -2 7 C-2 3 -2 3 0 0 Z " fill="#EEF9FC" transform="translate(123,109)"/>
<path d="M0 0 C0.333 1.333 0.667 2.667 1 4 C1.227 4.681 1.454 5.361 1.688 6.062 C2 8 2 8 0 11 C-0.385 12.655 -0.728 14.322 -1 16 C-1.33 16 -1.66 16 -2 16 C-3.019 9.786 -3.629 5.516 0 0 Z " fill="#183B52" transform="translate(19,104)"/>
<path d="M0 0 C0.99 0 1.98 0 3 0 C3.054 1.896 3.093 3.791 3.125 5.688 C3.148 6.743 3.171 7.799 3.195 8.887 C2.999 12.023 2.331 14.176 1 17 C0.67 17 0.34 17 0 17 C0 11.39 0 5.78 0 0 Z " fill="#0F3244" transform="translate(210,101)"/>
<path d="M0 0 C3 1 3 1 4.18 2.734 C5.139 5.383 5.199 7.441 5.125 10.25 C5.107 11.142 5.089 12.034 5.07 12.953 C5.059 13.291 5.059 13.291 5 15 C4.67 15 4.34 15 4 15 C3.67 12.69 3.34 10.38 3 8 C2.01 7.67 1.02 7.34 0 7 C-1.188 4.438 -1.188 4.438 -2 2 C-1.34 1.34 -0.68 0.68 0 0 Z " fill="#D1DDE5" transform="translate(125,49)"/>
<path d="M0 0 C0.825 0.165 0.825 0.165 5 1 C5.309 1.949 5.619 2.898 5.938 3.875 C7 7 7 7 8 9 C7.175 9.495 7.175 9.495 3 12 C3.031 11.546 3.031 11.546 3.188 9.25 C2.98 5.656 2.275 4.655 0 2 C0 1.34 0 0.68 0 0 Z " fill="#042F48" transform="translate(40,147)"/>
<path d="M0 0 C2 2 2 2 2.195 3.945 C2.13 5.964 2.065 7.982 2 10 C2.33 10 2.66 10 3 10 C3.25 12.75 3.25 12.75 3 16 C1 18.375 1 18.375 -1 20 C-1.33 18.35 -1.66 16.7 -2 15 C-1.34 14.67 -0.68 14.34 0 14 C0 9.38 0 4.76 0 0 Z " fill="#315061" transform="translate(183,110)"/>
<path d="M0 0 C1.98 0.33 1.98 0.33 12 2 C12 1.34 12 0.68 12 0 C13.98 0 15.96 0 18 0 C13.114 4.013 9.299 4.344 3 4 C2.01 3.34 1.02 2.68 0 2 C0 1.34 0 0.68 0 0 Z " fill="#243F4A" transform="translate(151,116)"/>
<path d="M0 0 C0.967 3.122 0.99 5.521 0.562 8.75 C0.512 9.15 0.512 9.15 0.254 11.172 C0.212 11.474 0.212 11.474 0 13 C-0.99 12.34 -1.98 11.68 -3 11 C-3.676 3.901 -3.676 3.901 -1.5 1 C-1.005 0.67 -0.51 0.34 0 0 Z " fill="#F6FDFE" transform="translate(15,110)"/>
<path d="M0 0 C0.33 0 0.66 0 1 0 C1 1.65 1 3.3 1 5 C0.34 5 -0.32 5 -1 5 C-0.67 5.99 -0.34 6.98 0 8 C-0.938 11.188 -0.938 11.188 -2 14 C-3.32 13.67 -4.64 13.34 -6 13 C-4.313 8.502 -2.183 4.271 0 0 Z " fill="#1A394B" transform="translate(70,130)"/>
<path d="M0 0 C2.474 2.152 3.562 3.718 4 7 C3.67 7.33 3.34 7.66 3 8 C3.437 10.062 3.437 10.062 4 12 C2.063 11.188 2.063 11.188 0 10 C-1.072 6.784 -1.146 4.366 -1 1 C-0.67 0.67 -0.34 0.34 0 0 Z " fill="#0C3042" transform="translate(10,122)"/>
<path d="M0 0 C0.144 0.598 0.289 1.196 0.438 1.812 C0.887 3.562 1.429 5.287 2 7 C2.66 7 3.32 7 4 7 C4 7.66 4 8.32 4 9 C3.34 9 2.68 9 2 9 C1.67 9.66 1.34 10.32 1 11 C-0.32 10.01 -1.64 9.02 -3 8 C-1.125 1.125 -1.125 1.125 0 0 Z " fill="#0E3A52" transform="translate(82,107)"/>
<path d="M0 0 C-1.32 1.65 -2.64 3.3 -4 5 C-5.65 4.67 -7.3 4.34 -9 4 C-9 3.01 -9 2.02 -9 1 C-6.043 -0.478 -3.258 -0.06 0 0 Z " fill="#9BB0B8" transform="translate(99,109)"/>
<path d="M0 0 C0 0.99 0 1.98 0 3 C-0.338 2.988 -0.338 2.988 -2.047 2.93 C-2.939 2.912 -3.831 2.894 -4.75 2.875 C-5.632 2.852 -6.513 2.829 -7.422 2.805 C-10.114 3.009 -11.699 3.634 -14 5 C-13 2 -13 2 -10.938 0.812 C-7.145 -0.236 -3.929 -0.133 0 0 Z " fill="#0B2E3F" transform="translate(160,106)"/>
<path d="M0 0 C1.32 0 2.64 0 4 0 C4 1.98 4 3.96 4 6 C4.99 6.33 5.98 6.66 7 7 C4.69 7 2.38 7 0 7 C0 4.69 0 2.38 0 0 Z " fill="#65859A" transform="translate(173,129)"/>
<path d="M0 0 C0.66 0 1.32 0 2 0 C0.489 4.23 -2.123 5.912 -6 8 C-9.375 8.25 -9.375 8.25 -12 8 C-8.954 5.969 -5.857 4.044 -2.742 2.121 C-1 1 -1 1 0 0 Z " fill="#D4F0F6" transform="translate(135,114)"/>
<path d="M0 0 C2.5 1.188 2.5 1.188 5 3 C5.312 5.688 5.312 5.688 5 8 C2.333 9.333 0.833 8.671 -2 8 C-1.742 7.804 -1.742 7.804 -0.438 6.812 C0.037 6.214 0.511 5.616 1 5 C0.688 2.312 0.688 2.312 0 0 Z " fill="#1F3D4F" transform="translate(166,107)"/>
<path d="M0 0 C0.66 0 1.32 0 2 0 C1.67 2.64 1.34 5.28 1 8 C0.34 7.34 -0.32 6.68 -1 6 C-1 6.66 -1 7.32 -1 8 C-2.32 8 -3.64 8 -5 8 C-5 6.35 -5 4.7 -5 3 C-3.35 3 -1.7 3 0 3 C0 2.01 0 1.02 0 0 Z " fill="#092E42" transform="translate(95,127)"/>
<path d="M0 0 C0.66 1.32 1.32 2.64 2 4 C2.99 3.67 3.98 3.34 5 3 C3.848 5.468 2.952 7.048 1 9 C-1.125 8.625 -1.125 8.625 -3 8 C-2.691 7.237 -2.381 6.474 -2.062 5.688 C-1.321 3.812 -0.638 1.913 0 0 Z " fill="#1B3E53" transform="translate(58,113)"/>
<path d="M0 0 C0 0.66 0 1.32 0 2 C1.32 1.67 2.64 1.34 4 1 C3.67 1.99 3.34 2.98 3 4 C1.68 3.67 0.36 3.34 -1 3 C-1.33 3.66 -1.66 4.32 -2 5 C-3.65 4.67 -5.3 4.34 -7 4 C-3.375 0 -3.375 0 0 0 Z " fill="#21424E" transform="translate(115,111)"/>
<path d="M0 0 C1.792 0.114 3.584 0.241 5.375 0.375 C5.874 0.41 5.874 0.41 8.398 0.586 C11 1 11 1 13 3 C7.25 6 7.25 6 5 6 C5 4.68 5 3.36 5 2 C3.35 2 1.7 2 0 2 C0 1.34 0 0.68 0 0 Z " fill="#0C2837" transform="translate(113,106)"/>
<path d="M0 0 C0.501 0.005 0.501 0.005 3.039 0.027 C3.81 0.039 4.581 0.051 5.375 0.062 C5.375 0.392 5.375 0.722 5.375 1.062 C3.89 1.228 3.89 1.228 -3.625 2.062 C-3.295 3.052 -2.965 4.043 -2.625 5.062 C-4.275 5.392 -5.925 5.722 -7.625 6.062 C-7.625 4.412 -7.625 2.763 -7.625 1.062 C-4.98 -0.26 -2.947 -0.034 0 0 Z " fill="#B6C6CB" transform="translate(157.625,100.9375)"/>
<path d="M0 0 C0.99 0 1.98 0 3 0 C3.178 4.548 2.998 7.879 1 12 C0.024 9.072 -0.082 7.044 0 4 C-0.66 4 -1.32 4 -2 4 C-1.34 2.68 -0.68 1.36 0 0 Z " fill="#D5E8EE" transform="translate(83,86)"/>
<path d="M0 0 C1.65 0.33 3.3 0.66 5 1 C2.455 3.969 -0.49 5.362 -4 7 C-4.99 6.34 -5.98 5.68 -7 5 C-4.924 4.447 -3.156 4 -1 4 C-0.67 2.68 -0.34 1.36 0 0 Z " fill="#123141" transform="translate(55,59)"/>
<path d="M0 0 C3.63 0.33 7.26 0.66 11 1 C10.67 1.495 10.67 1.495 9 4 C5.7 3.67 2.4 3.34 -1 3 C-0.67 2.01 -0.34 1.02 0 0 Z " fill="#D0E2EA" transform="translate(23,133)"/>
<path d="M0 0 C0.33 0 0.66 0 1 0 C1.33 3.63 1.66 7.26 2 11 C1.34 11.33 1.34 11.33 -2 13 C-2.33 11.02 -2.66 9.04 -3 7 C-2.67 7.165 -2.67 7.165 -1 8 C-0.67 5.36 -0.34 2.72 0 0 Z " fill="#E0ECF1" transform="translate(15,114)"/>
<path d="M0 0 C2.97 0 5.94 0 9 0 C8.67 1.65 8.34 3.3 8 5 C7.34 5 6.68 5 6 5 C6 4.34 6 3.68 6 3 C5.01 2.835 5.01 2.835 0 2 C0 1.34 0 0.68 0 0 Z " fill="#CCDEE4" transform="translate(109,108)"/>
<path d="M0 0 C6.75 -0.125 6.75 -0.125 9 1 C9 1.66 9 2.32 9 3 C6.03 3 3.06 3 0 3 C0 2.01 0 1.02 0 0 Z " fill="#F3FEFD" transform="translate(154,102)"/>
<path d="M0 0 C0.66 0 1.32 0 2 0 C2.99 2.31 3.98 4.62 5 7 C4.34 7.33 4.34 7.33 1 9 C0.876 8.361 0.752 7.721 0.625 7.062 C0.522 6.722 0.522 6.722 0 5 C-0.66 4.67 -1.32 4.34 -2 4 C-1.34 2.68 -0.68 1.36 0 0 Z " fill="#0A3043" transform="translate(59,151)"/>
<path d="M0 0 C0.66 0.33 1.32 0.66 2 1 C2 1.66 2 2.32 2 3 C1.01 3 0.02 3 -1 3 C-1.33 3.99 -1.66 4.98 -2 6 C-2.99 6.33 -3.98 6.66 -5 7 C-5.66 6.34 -6.32 5.68 -7 5 C-4.69 3.35 -2.38 1.7 0 0 Z " fill="#1E3C4E" transform="translate(54,134)"/>
<path d="M0 0 C0.33 0.66 0.66 1.32 1 2 C0.67 2.66 0.34 3.32 0 4 C0.66 4 1.32 4 2 4 C2.33 5.32 2.66 6.64 3 8 C2.34 8 1.68 8 1 8 C0.67 8.66 0.34 9.32 0 10 C-0.66 9.34 -1.32 8.68 -2 8 C-1.423 1.423 -1.423 1.423 0 0 Z " fill="#C4D8E0" transform="translate(87,112)"/>
<path d="M0 0 C0.66 0.99 1.32 1.98 2 3 C2.66 3 3.32 3 4 3 C3.34 4.32 2.68 5.64 2 7 C1.34 7 0.68 7 0 7 C-0.33 7.66 -0.66 8.32 -1 9 C-1.66 9 -2.32 9 -3 9 C-2.01 6.03 -1.02 3.06 0 0 Z " fill="#D5E3E9" transform="translate(72,114)"/>
<path d="M0 0 C0.66 0 1.32 0 2 0 C3.894 1.894 5.42 3.845 7 6 C5 7 5 7 1.875 6.062 C0.926 5.712 -0.023 5.361 -1 5 C-0.67 3.35 -0.34 1.7 0 0 Z " fill="#214155" transform="translate(136,113)"/>
<path d="M0 0 C0.99 0.33 1.98 0.66 3 1 C2.34 5.62 1.68 10.24 1 15 C0.67 15 0.34 15 0 15 C0 10.05 0 5.1 0 0 Z " fill="#0D2F40" transform="translate(10,105)"/>
<path d="M0 0 C0 3.38 -0.875 5.835 -2 9 C-2.66 8.34 -3.32 7.68 -4 7 C-4.33 7.66 -4.66 8.32 -5 9 C-5.66 8.67 -6.32 8.34 -7 8 C-4.69 5.36 -2.38 2.72 0 0 Z " fill="#D0D8E1" transform="translate(31,81)"/>
<path d="M0 0 C2.625 -0.188 2.625 -0.188 5 0 C5 0.99 5 1.98 5 3 C4.34 3 3.68 3 3 3 C2.67 3.66 2.34 4.32 2 5 C1.01 5.33 0.02 5.66 -1 6 C-1.33 5.01 -1.66 4.02 -2 3 C-1.34 2.01 -0.68 1.02 0 0 Z " fill="#053044" transform="translate(47,140)"/>
<path d="M0 0 C3.914 1.269 5.791 2.512 8 6 C4.25 7.125 4.25 7.125 2 6 C2 5.01 2 4.02 2 3 C1.34 2.67 0.68 2.34 0 2 C0 1.34 0 0.68 0 0 Z " fill="#1D4254" transform="translate(11,128)"/>
<path d="M0 0 C0 1.65 0 3.3 0 5 C-1.98 5 -3.96 5 -6 5 C-4.873 1.619 -3.788 0 0 0 Z " fill="#05394E" transform="translate(104,123)"/>
<path d="M0 0 C0.825 0.33 0.825 0.33 5 2 C4.67 3.32 4.34 4.64 4 6 C3.34 5.34 2.68 4.68 2 4 C1.34 4.99 0.68 5.98 0 7 C-1.125 2.25 -1.125 2.25 0 0 Z " fill="#1D3E54" transform="translate(75,119)"/>
<path d="M0 0 C2.31 0 4.62 0 7 0 C7 0.99 7 1.98 7 3 C4.36 3 1.72 3 -1 3 C-0.67 2.01 -0.34 1.02 0 0 Z " fill="#FAFEFF" transform="translate(153,120)"/>
<path d="M0 0 C0.99 0 1.98 0 3 0 C2.521 4.314 1.254 6.166 -2 9 C-2.201 5.375 -1.858 3.135 0 0 Z " fill="#122F42" transform="translate(72,99)"/>
<path d="M0 0 C2.64 0.33 5.28 0.66 8 1 C6.35 2.65 4.7 4.3 3 6 C1.979 5.021 0.979 4.02 0 3 C0 2 0 1 0 0 Z " fill="#133449" transform="translate(162,127)"/>
<path d="M0 0 C0.66 0 1.32 0 2 0 C2 4.29 2 8.58 2 13 C1.34 12.67 0.68 12.34 0 12 C0 10.02 0 8.04 0 6 C-0.33 6 -0.66 6 -1 6 C-1.043 4.334 -1.041 2.666 -1 1 C-0.67 0.67 -0.34 0.34 0 0 Z " fill="#1C3C4E" transform="translate(176,108)"/>
<path d="M0 0 C-0.33 1.32 -0.66 2.64 -1 4 C-1.99 3.835 -1.99 3.835 -7 3 C-6.67 2.01 -6.34 1.02 -6 0 C-3.509 -1.245 -2.589 -0.777 0 0 Z " fill="#7C919B" transform="translate(129,112)"/>
<path d="M0 0 C1 3 1 3 0.25 5.062 C-1 7 -1 7 -4 9 C-4 5.001 -2.274 3.198 0 0 Z " fill="#EDFAFC" transform="translate(52,154)"/>
<path d="M0 0 C0.66 0.33 1.32 0.66 2 1 C1.67 3.64 1.34 6.28 1 9 C0.01 8.67 -0.98 8.34 -2 8 C-1.125 1.125 -1.125 1.125 0 0 Z " fill="#0C2C3B" transform="translate(29,152)"/>
<path d="M0 0 C3 3.625 3 3.625 3 7 C1.35 6.67 -0.3 6.34 -2 6 C-1.34 4.02 -0.68 2.04 0 0 Z " fill="#557B91" transform="translate(132,129)"/>
<path d="M0 0 C0.99 0 1.98 0 3 0 C3 0.66 3 1.32 3 2 C5.64 2 8.28 2 11 2 C10.01 2.99 9.02 3.98 8 5 C2.25 3.375 2.25 3.375 0 0 Z " fill="#1F3948" transform="translate(20,129)"/>
<path d="M0 0 C0.99 0 1.98 0 3 0 C3 1.65 3 3.3 3 5 C2.01 5 1.02 5 0 5 C0 5.99 0 6.98 0 8 C-0.66 7.67 -1.32 7.34 -2 7 C-1.34 4.69 -0.68 2.38 0 0 Z " fill="#F1FCFD" transform="translate(172,110)"/>
<path d="M0 0 C0.99 0.33 1.98 0.66 3 1 C3 1.99 3 2.98 3 4 C2.34 4 1.68 4 1 4 C1 7.3 1 10.6 1 14 C0.67 14 0.34 14 0 14 C-0.195 12.042 -0.38 10.084 -0.562 8.125 C-0.667 7.034 -0.771 5.944 -0.879 4.82 C-1 2 -1 2 0 0 Z " fill="#06293B" transform="translate(130,50)"/>
<path d="M0 0 C0.66 0.66 1.32 1.32 2 2 C1.546 2.433 1.093 2.866 0.625 3.312 C-1 5 -1 5 -3 8 C-3.99 7.67 -4.98 7.34 -6 7 C-4.02 4.69 -2.04 2.38 0 0 Z " fill="#14364D" transform="translate(46,140)"/>
<path d="M0 0 C0.66 0.33 1.32 0.66 2 1 C0.902 1.842 -0.203 2.673 -1.312 3.5 C-1.927 3.964 -2.542 4.428 -3.176 4.906 C-5 6 -5 6 -8 6 C-8 5.34 -8 4.68 -8 4 C-6.713 3.303 -5.421 2.618 -4.125 1.938 C-3.406 1.555 -2.686 1.172 -1.945 0.777 C-1.303 0.521 -0.661 0.264 0 0 Z " fill="#33404B" transform="translate(51,131)"/>
<path d="M0 0 C1.32 0.66 2.64 1.32 4 2 C2.625 4.5 2.625 4.5 1 7 C0.34 7 -0.32 7 -1 7 C-0.67 4.69 -0.34 2.38 0 0 Z " fill="#DEF1F8" transform="translate(125,64)"/>
<path d="M0 0 C0.33 0.99 0.66 1.98 1 3 C-1.31 3.33 -3.62 3.66 -6 4 C-6.33 3.34 -6.66 2.68 -7 2 C-2.25 0 -2.25 0 0 0 Z " fill="#1B354A" transform="translate(87,52)"/>
<path d="M0 0 C0.557 0.351 1.114 0.701 1.688 1.062 C4.539 2.218 6.085 1.81 9 1 C7.812 2.5 7.812 2.5 6 4 C3.312 4.188 3.312 4.188 1 4 C0.67 2.68 0.34 1.36 0 0 Z " fill="#0A283A" transform="translate(35,160)"/>
<path d="M0 0 C0.825 0.33 0.825 0.33 5 2 C3.68 2.33 2.36 2.66 1 3 C1 4.65 1 6.3 1 8 C0.34 7.67 -0.32 7.34 -1 7 C-0.67 4.69 -0.34 2.38 0 0 Z " fill="#50798E" transform="translate(89,127)"/>
<path d="M0 0 C1.65 0.33 3.3 0.66 5 1 C4.34 2.32 3.68 3.64 3 5 C1.35 4.67 -0.3 4.34 -2 4 C-1.34 2.68 -0.68 1.36 0 0 Z " fill="#DCEBF1" transform="translate(149,118)"/>
<path d="M0 0 C2.31 0 4.62 0 7 0 C7.33 1.32 7.66 2.64 8 4 C7.34 4.33 7.34 4.33 4 6 C4.33 4.35 4.66 2.7 5 1 C3.35 1 1.7 1 0 1 C0 0.67 0 0.34 0 0 Z " fill="#D8EFF3" transform="translate(123,109)"/>
<path d="M0 0 C2.188 0.312 2.188 0.312 4 1 C4 2.32 4 3.64 4 5 C1.69 4.34 -0.62 3.68 -3 3 C-1.75 1.438 -1.75 1.438 0 0 Z " fill="#072F45" transform="translate(84,82)"/>
<path d="M0 0 C-0.33 0.99 -0.66 1.98 -1 3 C-2.32 3 -3.64 3 -5 3 C-5 3.66 -5 4.32 -5 5 C-5.99 4.67 -6.98 4.34 -8 4 C-4.5 0 -4.5 0 0 0 Z " fill="#E7F7FB" transform="translate(42,75)"/>
<path d="M0 0 C0.66 0 1.32 0 2 0 C2 0.66 2 1.32 2 2 C2.66 2 3.32 2 4 2 C4 2.66 4 3.32 4 4 C1 5 1 5 -1.188 4.062 C-1.786 3.712 -2.384 3.361 -3 3 C-2.67 2.34 -2.34 1.68 -2 1 C-1.34 1.33 -0.68 1.66 0 2 C0 1.34 0 0.68 0 0 Z " fill="#1A3D54" transform="translate(59,56)"/>
<path d="M0 0 C-2.97 1.32 -5.94 2.64 -9 4 C-9 3.01 -9 2.02 -9 1 C-5.195 -0.797 -4.294 -1.073 0 0 Z " fill="#132F3F" transform="translate(74,54)"/>
<path d="M0 0 C1.98 0 3.96 0 6 0 C6 0.33 6 0.66 6 1 C6.99 1.165 6.99 1.165 12 2 C12 2.33 12 2.66 12 3 C8.7 3 5.4 3 2 3 C2 2.34 2 1.68 2 1 C1.34 0.67 0.68 0.34 0 0 Z " fill="#B6C7D1" transform="translate(102,44)"/>
<path d="M0 0 C0.33 0.99 0.66 1.98 1 3 C-0.98 4.32 -2.96 5.64 -5 7 C-3.75 3.347 -3.329 2.219 0 0 Z " fill="#E7F4FA" transform="translate(52,132)"/>
<path d="M0 0 C1.32 0.33 2.64 0.66 4 1 C3.67 2.32 3.34 3.64 3 5 C2.01 5 1.02 5 0 5 C0 3.35 0 1.7 0 0 Z " fill="#0E2B41" transform="translate(147,130)"/>
<path d="M0 0 C0.66 0.33 1.32 0.66 2 1 C2 1.66 2 2.32 2 3 C2.66 3.33 3.32 3.66 4 4 C3.34 4 2.68 4 2 4 C1.67 4.99 1.34 5.98 1 7 C0.34 7 -0.32 7 -1 7 C-1.33 5.02 -1.66 3.04 -2 1 C-1.34 0.67 -0.68 0.34 0 0 Z " fill="#163D51" transform="translate(197,125)"/>
<path d="M0 0 C0.289 0.186 0.289 0.186 1.75 1.125 C-1.338 2.89 -2.483 3.125 -6.25 3.125 C-6.25 2.465 -6.25 1.805 -6.25 1.125 C-2.804 -1.09 -2.804 -1.09 0 0 Z " fill="#1A3645" transform="translate(170.25,121.875)"/>
<path d="M0 0 C0.33 0.99 0.66 1.98 1 3 C-0.32 4.32 -1.64 5.64 -3 7 C-3.33 6.34 -3.66 5.68 -4 5 C-2.528 1.264 -2.528 1.264 0 0 Z " fill="#EAF4F7" transform="translate(39,144)"/>
<path d="M0 0 C0.66 0.165 0.66 0.165 4 1 C3.01 2.98 2.02 4.96 1 7 C0.34 6.34 -0.32 5.68 -1 5 C-0.625 2.375 -0.625 2.375 0 0 Z " fill="#617F94" transform="translate(186,129)"/>
<path d="M0 0 C0.99 0.33 1.98 0.66 3 1 C2.34 3.31 1.68 5.62 1 8 C0.67 8 0.34 8 0 8 C-0.381 5.674 -0.713 3.339 -1 1 C-0.67 0.67 -0.34 0.34 0 0 Z " fill="#0B3148" transform="translate(129,127)"/>
<path d="M0 0 C-0.33 0.99 -0.66 1.98 -1 3 C-3.562 4.188 -3.562 4.188 -6 5 C-6.33 4.01 -6.66 3.02 -7 2 C-2.25 0 -2.25 0 0 0 Z " fill="#CDE1E9" transform="translate(66,126)"/>
<path d="M0 0 C1.32 0.66 2.64 1.32 4 2 C2 4 2 4 -0.625 4.125 C-1.409 4.084 -2.193 4.043 -3 4 C-2.01 2.68 -1.02 1.36 0 0 Z " fill="#E5F2F5" transform="translate(62,118)"/>
<path d="M0 0 C0.33 1.32 0.66 2.64 1 4 C0.34 4.33 0.34 4.33 -3 6 C-3.33 5.34 -3.66 4.68 -4 4 C-2.68 2.68 -1.36 1.36 0 0 Z " fill="#F0F9FD" transform="translate(104,115)"/>
<path d="M0 0 C0.66 0.33 1.32 0.66 2 1 C1.34 2.32 0.68 3.64 0 5 C-1.32 4.34 -2.64 3.68 -4 3 C-2.68 2.01 -1.36 1.02 0 0 Z " fill="#0D2933" transform="translate(101,112)"/>
<path d="M0 0 C0.33 0 0.66 0 1 0 C1 2.64 1 5.28 1 8 C0.67 8.165 0.67 8.165 -1 9 C-1.81 6.085 -2.218 4.539 -1.062 1.688 C-0.712 1.131 -0.361 0.574 0 0 Z " fill="#1E313D" transform="translate(204,110)"/>
<path d="M0 0 C0 1.65 0 3.3 0 5 C-1.65 4.67 -3.3 4.34 -5 4 C-5 3.01 -5 2.02 -5 1 C-2 0 -2 0 0 0 Z " fill="#284455" transform="translate(104,109)"/>
<path d="M0 0 C0.66 0 1.32 0 2 0 C2 0.66 2 1.32 2 2 C2.99 2 3.98 2 5 2 C5 2.66 5 3.32 5 4 C3.02 4.33 1.04 4.66 -1 5 C-0.67 3.35 -0.34 1.7 0 0 Z " fill="#ECF6F9" transform="translate(107,108)"/>
<path d="M0 0 C0.382 0.082 0.382 0.082 2.312 0.5 C5 1 5 1 8 1 C7.67 1.66 7.34 2.32 7 3 C3.938 3.625 3.938 3.625 1 4 C0.67 2.68 0.34 1.36 0 0 Z " fill="#063040" transform="translate(105,104)"/>
<path d="M0 0 C0.66 0.33 1.32 0.66 2 1 C0.875 3.972 -0.223 6.334 -2 9 C-2.25 3.375 -2.25 3.375 0 0 Z " fill="#1C3446" transform="translate(16,95)"/>
<path d="M0 0 C2.062 0.438 2.062 0.438 4 1 C4 1.66 4 2.32 4 3 C2.02 3.66 0.04 4.32 -2 5 C-1.125 1.125 -1.125 1.125 0 0 Z " fill="#082F41" transform="translate(204,98)"/>
<path d="M0 0 C0.99 0.33 1.98 0.66 3 1 C2.67 1.165 2.67 1.165 1 2 C1 2.66 1 3.32 1 4 C-0.65 4.33 -2.3 4.66 -4 5 C-2.25 1.125 -2.25 1.125 0 0 Z " fill="#0F2E3D" transform="translate(57,66)"/>
</svg>
